<svg width="199" height="268" viewBox="0 0 199 268" fill="none" xmlns="http://www.w3.org/2000/svg">
<path d="M65.3214 265.226C64.8066 264.545 64.6693 264.378 64.3461 263.95C14.4543 197.914 27.7336 103.489 93.9475 53.4624C117.637 35.513 146.122 25.0068 175.768 23.2833C181.792 22.9328 196.602 21.0323 196.602 21.0323C159.369 18.0838 122.315 28.9268 92.4994 51.4959C25.213 102.333 11.7138 198.299 62.4188 265.411C62.7412 265.838 63.0654 266.262 63.3914 266.685C64.8263 268.543 66.4477 265.981 65.3214 265.226Z" fill="#5C0609" fill-opacity="0.6"/>
<path d="M75.8956 158.23C75.0127 155.088 73.4297 152.126 70.1992 151.046C67.4165 150.104 64.3851 150.452 61.6484 151.374C55.2656 153.521 50.7128 158.566 47.2895 164.176C42.4694 172.098 39.1773 190.863 39.3504 191.042C37.8462 192.296 35.9868 192.364 34.5838 193.745C33.9676 194.349 35.1702 196.651 35.7864 196.046C40.2499 191.611 45.3318 187.843 50.8733 184.862C56.0547 182.098 61.7897 180.542 66.8981 177.667C73.9764 173.657 78.194 166.371 75.8956 158.23ZM74.5532 166.907C74.5316 166.886 74.5054 166.87 74.4767 166.861C74.448 166.852 74.4176 166.849 74.3878 166.854C74.3579 166.858 74.3295 166.869 74.3047 166.887C74.2798 166.904 74.2592 166.926 74.2445 166.953C70.818 173.822 63.7761 176.141 57.0612 178.565C58.3648 177.805 59.6349 177.001 60.8749 176.128C66.5337 172.119 71.3654 167.055 75.1033 161.215C75.148 161.679 75.179 162.153 75.1826 162.627C75.1949 164.072 74.9873 165.512 74.5669 166.896L74.5532 166.907ZM44.1354 179.289C44.0227 179.613 43.9134 179.941 43.8075 180.275C43.8462 179.999 43.8935 179.728 43.9382 179.454C43.9655 179.454 43.9927 179.448 44.0169 179.436C44.0412 179.423 44.0617 179.404 44.0766 179.381L44.1354 179.289ZM42.2974 186.237C42.4867 186.018 42.6872 185.809 42.8982 185.611C42.6117 186.021 42.3261 186.424 42.0516 186.834C42.1444 186.652 42.22 186.439 42.2974 186.237ZM42.9637 185.038C42.9637 185.038 42.9807 185.025 42.991 185.017L42.9637 185.038ZM42.8677 184.612C42.9247 184.446 42.9765 184.274 43.024 184.109L43 184.475C42.971 184.508 42.9241 184.559 42.878 184.605L42.8677 184.612ZM43.3726 184.713L43.3776 184.613C43.6592 184.325 43.9373 184.04 44.2241 183.759C44.0433 184.003 43.8565 184.245 43.6928 184.476C43.5809 184.555 43.4819 184.63 43.3829 184.705L43.3726 184.713ZM43.4053 184.046C43.4315 183.491 43.4791 182.957 43.5309 182.415L43.564 182.31C44.0382 180.691 44.6222 179.105 45.3119 177.565C52.2298 167.768 61.2716 159.656 71.7605 153.837C71.8856 153.945 72.0013 154.056 72.1221 154.173C65.9891 159.582 60.178 165.344 54.7188 171.432C51.6336 174.833 48.48 178.285 45.6168 181.952C44.8716 182.606 44.135 183.307 43.4224 184.033L43.4053 184.046ZM43.1645 182.307C42.8571 183.32 42.5677 184.315 42.2115 185.306C42.046 185.485 41.8727 185.653 41.7098 185.835C41.6875 185.863 41.674 185.897 41.6708 185.933C41.6677 185.969 41.6751 186.005 41.6921 186.036C41.709 186.068 41.7349 186.094 41.7664 186.111C41.7979 186.128 41.8338 186.135 41.8695 186.132C41.6886 186.35 41.5208 186.578 41.3673 186.816C42.8309 180.36 43.945 173.696 46.8219 167.761C44.8874 172.399 43.6591 177.298 43.1782 182.296L43.1645 182.307ZM42.9474 186.216L42.9459 186.314C42.8879 186.358 42.8332 186.399 42.7752 186.443C42.8425 186.354 42.8997 186.274 42.9534 186.196L42.9474 186.216ZM43.3456 185.643C43.5554 185.345 43.7625 185.044 43.9808 184.751C45.2288 183.924 46.5709 183.25 47.9784 182.742C46.3541 183.711 44.8009 184.795 43.331 185.985L43.3456 185.643ZM75.0252 160.707C75.0072 160.711 74.9904 160.719 74.9757 160.73C74.961 160.742 74.9488 160.756 74.9398 160.772C70.497 167.794 64.4784 173.688 57.3627 177.985C56.2993 178.622 55.21 179.183 54.1104 179.709C52.9909 180.159 51.8946 180.639 50.8377 181.165C49.3645 181.785 47.8818 182.387 46.3993 183.03C45.7911 183.293 45.1972 183.588 44.6205 183.914C45.0571 183.328 45.5031 182.739 45.9731 182.154C50.4067 178.151 55.3747 174.799 60.0201 171.006C65.2135 166.745 69.5583 161.616 73.8089 156.463C74.4547 157.79 74.8681 159.219 75.0311 160.687L75.0252 160.707ZM73.572 156.107C68.691 162.01 63.7008 167.669 57.612 172.392C54.1616 175.068 50.6271 177.626 47.3181 180.447C49.5358 177.702 51.936 175.07 54.279 172.476C59.9403 166.103 65.9853 160.081 72.3802 154.444C72.8394 154.945 73.2412 155.496 73.5779 156.086L73.572 156.107ZM71.4553 153.575C61.5351 159.106 52.9051 166.686 46.1419 175.809C46.755 174.554 47.4202 173.318 48.1376 172.059C52.6095 164.116 57.772 156.342 65.9543 151.861C67.9375 151.73 69.8978 152.333 71.4613 153.554L71.4553 153.575ZM65.0649 151.934C58.4687 155.773 53.8401 161.726 49.9038 168.204C48.0571 171.264 46.1739 174.409 44.7426 177.706C44.4936 178.058 44.2515 178.42 44.0163 178.79C44.9455 173.326 46.7806 168.053 49.4461 163.189C53.11 157.67 58.448 152.663 65.0709 151.913L65.0649 151.934ZM41.9475 187.705C42.2684 187.42 42.592 187.138 42.9232 186.866C42.9226 187.327 42.9219 187.787 42.9297 188.252C42.1476 188.843 41.9929 188.901 41.2065 189.522C41.3704 188.879 41.6217 188.26 41.9534 187.684L41.9475 187.705ZM64.6616 177.355C59.3671 180.012 53.6923 181.705 48.519 184.65C46.7321 185.668 44.998 186.777 43.3234 187.971C43.3138 187.497 43.3102 187.023 43.3194 186.545C48.829 182.142 55.0816 179.922 61.8525 177.273C66.9697 175.269 71.6782 172.525 74.3392 167.582C72.7699 171.925 69.0949 175.113 64.6675 177.335L64.6616 177.355Z" fill="#5C0609" fill-opacity="0.6"/>
<path d="M35.7098 195.114C33.587 192.084 31.307 189.152 28.9587 186.271C29.0021 186.168 29.0149 186.054 28.9955 185.943C27.3275 175.924 28.0404 165.406 25.001 155.631C22.7782 148.429 17.1964 139.28 8.58477 139.584C-0.0268581 139.889 -1.44679 148.271 1.20157 154.901C4.76768 163.818 12.9442 169.733 19.1113 176.738C24.5265 182.883 29.0882 192.209 33.799 198.934C34.3001 199.625 36.1981 195.81 35.7098 195.114ZM13.6331 167.222C14.2005 168.637 14.864 170.011 15.6189 171.335C12.9864 168.738 10.3308 166.132 7.99373 163.323C9.84494 164.594 11.7552 165.88 13.6433 167.214L13.6331 167.222ZM21.7857 177.778C21.6828 177.642 21.5593 177.521 21.4487 177.396C19.6827 175.017 18.1878 172.447 16.9916 169.736C18.2031 170.693 19.3703 171.684 20.4709 172.736C20.8485 174.625 21.4219 176.469 22.1819 178.239L21.7857 177.778ZM19.5495 175.316C18.5953 174.308 17.612 173.312 16.6185 172.324C15.7934 171.067 15.076 169.742 14.4739 168.363C14.363 168.11 14.2589 167.852 14.1548 167.593C14.9002 168.132 15.6438 168.683 16.3704 169.247C17.2944 171.338 18.3564 173.366 19.5495 175.316ZM23.5248 179.803C23.5248 179.803 23.5068 179.779 23.4965 179.766C23.4245 179.67 23.355 179.578 23.2547 179.51L22.9769 179.185C21.9954 177.241 21.2585 175.183 20.783 173.057C21.0033 173.27 21.2176 173.483 21.4311 173.701C22.23 176.391 23.3742 178.966 24.8353 181.36L23.5248 179.803ZM20.6575 172.408C20.5537 171.866 20.4626 171.319 20.3878 170.766C20.3512 170.44 20.3239 170.113 20.2864 169.772C20.5804 170.829 20.8779 171.883 21.195 172.927C21.0209 172.754 20.8358 172.573 20.6472 172.394L20.6575 172.408ZM27.3808 184.055C24.7708 181.211 23.2005 177.812 21.9788 174.256C24.1684 176.52 25.9194 179.17 27.1437 182.072C27.2076 182.725 27.2852 183.388 27.373 184.044L27.3808 184.055ZM27.4242 184.354L27.4354 184.425L27.3969 184.374C27.4064 184.366 27.4133 184.355 27.4165 184.343L27.4242 184.354ZM26.7225 177.296C25.7336 174.191 24.5644 171.152 23.6482 168.008C22.1837 162.966 22.3369 157.275 22.1643 151.969C22.3886 152.458 22.6078 152.94 22.8064 153.416C25.8955 160.884 26.1227 169.167 26.7147 177.286L26.7225 177.296ZM21.7372 151.099C21.9473 156.291 21.792 161.823 22.9435 166.898C23.9166 171.026 25.6207 174.972 26.8436 179.062L27.005 180.866C25.6663 178.106 23.8698 175.594 21.6913 173.435C21.1478 171.743 20.6675 170.014 20.1958 168.289C20.1067 165.146 20.4169 161.963 20.0035 158.803C19.1434 152.438 15.8002 146.798 12.3772 141.465C16.5914 142.974 19.7037 147.065 21.7424 151.105L21.7372 151.099ZM9.62011 140.905C10.3558 140.954 11.0839 141.082 11.7918 141.287C16.5874 148.841 19.9294 155.857 19.8072 165.104C19.8 165.72 19.81 166.322 19.8259 166.926C19.2654 164.898 18.6818 162.883 17.959 160.947C15.2592 153.785 11.4343 147.102 6.62787 141.149C7.60991 140.92 8.62029 140.84 9.62527 140.912L9.62011 140.905ZM6.21751 141.245C11.6339 147.922 15.8004 155.522 18.5177 163.681C19.0215 165.222 19.4629 166.793 19.9052 168.358C19.9845 169.619 20.1372 170.874 20.3626 172.117C19.1824 171.023 17.9424 169.986 16.6572 168.988C15.3395 166.093 14.1397 163.121 12.6853 160.287C9.81684 154.765 6.26732 149.626 2.11941 144.988C2.46653 144.09 3.01813 143.285 3.73039 142.636C4.44265 141.988 5.29598 141.513 6.22266 141.251L6.21751 141.245ZM1.95783 145.399C6.9563 151.05 11.0728 157.422 14.1688 164.302C14.8066 165.715 15.4034 167.115 16.0412 168.528C15.3352 167.991 14.6189 167.462 13.8925 166.94C13.346 165.324 12.6918 163.747 11.9343 162.218C9.72535 158.151 5.99297 155.604 2.19749 153.137C2.17511 153.122 2.14973 153.112 2.12305 153.107C2.09636 153.102 2.06893 153.103 2.04262 153.11C1.30036 150.508 1.17261 147.683 1.96298 145.406L1.95783 145.399ZM2.18997 153.603C7.50078 157.082 11.0042 160.54 13.3622 166.565C11.283 165.092 9.17319 163.684 7.15489 162.276C5.49972 160.218 4.09019 157.974 2.9548 155.588C2.66088 154.945 2.40716 154.285 2.19512 153.61L2.18997 153.603Z" fill="#5C0609" fill-opacity="0.6"/>
<path d="M82.5662 120.347C84.4751 115.325 83.2288 111.424 77.76 110.002C69.818 107.934 62.9585 114.555 57.6639 119.513C49.9556 126.723 44.6663 135.551 39.994 144.919C39.9244 145.039 39.9031 145.182 39.9345 145.317C39.966 145.452 40.0478 145.57 40.1633 145.647C37.672 147.321 35.3201 147.048 33.4769 150.105C33.0397 150.826 34.177 154.135 34.6218 153.403C40.8871 143.062 51.5505 143.079 61.5836 138.918C69.9188 135.457 79.2269 129.136 82.5662 120.347ZM66.482 135.019C58.8152 137.758 51.1838 140.601 43.5876 143.547C48.1036 137.331 55.9606 135.403 63.0686 133.2C69.8894 131.086 74.873 127.84 79.9437 123.019C78.1813 125.542 76.1042 127.83 73.7629 129.829C71.509 131.79 69.0706 133.528 66.482 135.019ZM41.839 144.172C42.1574 143.884 42.4732 143.592 42.7968 143.31C42.8141 143.322 42.8339 143.331 42.8548 143.336C42.8757 143.341 42.8974 143.341 42.9185 143.337C42.9397 143.333 42.9598 143.325 42.9776 143.313C42.9955 143.301 43.0108 143.286 43.0225 143.268C43.1222 143.123 43.2237 142.987 43.3235 142.842C43.4232 142.697 43.5045 142.705 43.5967 142.636C43.4101 142.985 43.2296 143.336 43.0516 143.69C43.0141 143.718 42.9945 143.77 42.9672 143.812C42.5861 143.961 42.2058 144.104 41.8281 144.25C41.8344 144.225 41.8381 144.199 41.839 144.172ZM44.54 141.789C44.4477 141.859 44.3786 141.959 44.3019 142.049C44.3292 142.029 44.3419 141.982 44.3589 141.947C44.376 141.913 44.5007 141.83 44.557 141.776L44.54 141.789ZM80.6008 121.95C80.5761 121.946 80.5508 121.949 80.5273 121.957C80.5038 121.966 80.4827 121.98 80.4657 121.998C77.2234 125.17 73.9416 128.276 69.82 130.277C65.9769 132.142 61.7863 133.136 57.7349 134.421C54.557 135.42 51.4207 136.644 48.6696 138.386C58.802 130.349 70.012 123.774 81.9701 118.855C81.646 119.933 81.1919 120.968 80.6178 121.937L80.6008 121.95ZM82.099 118.394C68.5891 123.913 56.035 131.537 44.9042 140.979C44.9852 140.838 45.0601 140.695 45.1274 140.564C47.4178 138.213 49.6413 135.752 51.8957 133.31C55.1565 130.444 58.762 127.995 62.6283 126.02C69.2478 122.624 76.3557 120.379 82.2831 115.761C82.382 116.637 82.3255 117.524 82.1161 118.381L82.099 118.394ZM82.191 115.114C82.2039 115.174 82.2049 115.232 82.2179 115.292C75.5256 120.572 67.2801 122.789 59.9721 126.978C57.8539 128.192 55.8265 129.557 53.9058 131.064C61.3582 123.004 69.2172 115.44 80.2451 112.801C80.2747 112.793 80.3021 112.778 80.3251 112.758C80.3481 112.737 80.3662 112.712 80.3779 112.683C80.3895 112.655 80.3945 112.624 80.3924 112.593C80.3903 112.563 80.3813 112.533 80.3659 112.507C81.297 113.104 81.9606 114.038 82.2183 115.115L82.191 115.114ZM80.2802 112.443C80.2802 112.443 80.2348 112.418 80.1997 112.429C68.1999 115.293 59.9259 123.942 51.8893 132.748C50.0319 134.364 48.2868 136.104 46.6663 137.957C53.2496 127.256 62.1115 118.132 72.6197 111.237C72.6413 111.224 72.6596 111.206 72.6731 111.184C72.6867 111.163 72.6953 111.139 72.6981 111.114C72.7216 111.111 72.7447 111.106 72.7674 111.099C74.8913 110.757 78.1977 111.014 80.3075 112.444L80.2802 112.443ZM71.8749 111.302C60.8856 118.626 51.7322 128.383 45.1292 139.814C44.8263 140.187 44.5321 140.565 44.243 140.949C43.7455 141.448 43.2419 141.946 42.7366 142.435C47.1305 134.048 52.1853 126.259 59.2966 119.8C62.88 116.546 67.038 112.463 71.8894 111.286L71.8749 111.302ZM41.5495 144.755L41.7341 144.68L41.524 144.806L41.5495 144.755ZM52.8481 140.43C56.6335 138.996 60.4331 137.599 64.2471 136.237C61.98 137.387 59.623 138.35 57.1997 139.116C55.7449 139.563 54.2901 139.988 52.8626 140.413L52.8481 140.43Z" fill="#5C0609" fill-opacity="0.6"/>
<path d="M35.3334 154.877C34.5245 151.97 33.42 149.154 32.037 146.474C32.1324 146.353 32.1826 146.204 32.1789 146.051C32.1059 140.951 32.7381 135.864 34.0576 130.933C34.9267 127.51 35.6498 124.214 35.5264 120.663C35.2735 113.149 32.0884 102.869 24.5241 99.5462C17.828 96.6059 9.84449 103.146 9.98311 110.062C10.114 117.336 16.051 123.916 19.9264 129.613C25.3173 137.558 30.1924 147.782 32.7101 157.186C32.9404 158.023 35.5602 155.696 35.3334 154.877ZM31.3181 135.587C31.2524 135.273 31.2021 134.958 31.145 134.648C31.0782 132.118 30.6886 129.607 29.9856 127.177C29.2064 120.336 29.2062 113.427 29.9849 106.582C31.903 109.539 33.192 112.86 33.7719 116.338C33.7435 116.363 33.723 116.395 33.7131 116.431C32.599 120.548 31.8798 124.761 31.5652 129.012C31.3448 132.207 31.5795 135.422 31.2257 138.611L31.1443 139.298C31.0946 139.673 31.0304 140.043 30.9569 140.414C30.9265 140.196 30.8926 139.981 30.8502 139.761C31.0305 138.446 31.1292 137.12 31.1458 135.793C31.1718 135.797 31.1984 135.795 31.2234 135.786C31.2483 135.778 31.2707 135.763 31.2886 135.744C31.3064 135.724 31.3192 135.701 31.3257 135.675C31.3322 135.65 31.3323 135.623 31.3259 135.598L31.3181 135.587ZM29.8556 142.514C29.4115 139.725 29.0057 136.901 28.5051 134.101C29.397 135.881 30.0509 137.77 30.4498 139.721C30.3359 140.705 30.172 141.683 29.9586 142.65L29.8556 142.514ZM30.2084 143.088C30.2289 143.072 30.246 143.059 30.2631 143.046C30.4292 142.386 30.5569 141.717 30.676 141.043L30.724 141.483C30.6469 141.793 30.5954 142.116 30.4849 142.402C30.4729 142.44 30.4722 142.479 30.483 142.517C30.4938 142.554 30.5155 142.588 30.5454 142.613C30.5752 142.638 30.612 142.654 30.6508 142.658C30.6896 142.662 30.7288 142.654 30.7634 142.636C30.7645 142.758 30.7751 142.879 30.7736 142.998C30.7754 143.037 30.7891 143.075 30.813 143.107C30.8369 143.139 30.8698 143.162 30.9074 143.175C30.8971 143.53 30.8979 143.872 30.8927 144.256L30.2084 143.088ZM32.4086 132.088C32.1678 133.062 31.9613 134.031 31.7753 135.007C31.7983 133.453 31.7889 131.893 31.8624 130.328C32.0985 125.902 32.7836 121.51 33.9073 117.22C34.0219 118.011 34.1038 118.811 34.1529 119.619C34.4227 123.996 33.4504 127.893 32.4163 132.098L32.4086 132.088ZM29.7712 106.257C29.7323 106.258 29.6952 106.274 29.6672 106.301C29.6392 106.328 29.6221 106.365 29.6193 106.404C28.8918 112.698 28.8211 119.049 29.4084 125.355C28.1854 121.939 26.4984 118.762 25.8976 115.133C25.217 111.051 25.6922 106.283 26.1055 102.172C26.9086 102.804 27.643 103.519 28.2965 104.305C28.8351 104.947 29.3267 105.597 29.7789 106.267L29.7712 106.257ZM25.7654 101.921C25.7654 101.921 25.7654 101.921 25.7415 101.939C25.0863 108.421 24.8462 115.056 27.3079 121.19C28.318 123.656 29.1447 126.193 29.7813 128.781C29.9971 130.437 30.2719 132.087 30.5801 133.737C30.7168 135.355 30.7168 136.982 30.5799 138.601C30.0407 136.691 29.2848 134.85 28.3267 133.112C27.7684 129.895 26.9498 126.728 25.879 123.645C23.0758 115.88 19.7192 108.88 18.5529 100.612C21.2547 99.7424 23.6974 100.433 25.7732 101.931L25.7654 101.921ZM18.0513 100.793C18.0922 100.762 18.1504 100.761 18.1991 100.74C19.2246 107.991 21.6979 114.39 24.4886 121.137C25.87 124.599 26.9224 128.184 27.6319 131.845C26.5851 129.997 25.4443 128.189 24.4147 126.372C20.2491 119.027 16.6295 111.424 14.172 103.328C15.2914 102.241 16.613 101.385 18.0616 100.807L18.0513 100.793ZM13.9042 103.648C16.0617 110.519 18.9041 117.155 22.3888 123.456C24.0138 126.466 26.1367 129.518 27.8459 132.71C28.3849 135.433 28.8195 138.181 29.2584 140.921C25.8888 129.587 15.2824 122.174 11.3838 111.085C11.2993 110.292 11.3033 109.492 11.3956 108.7C11.6716 106.793 12.5506 105.023 13.9042 103.648ZM16.3794 121.993C14.566 119.259 12.5414 116.203 11.7121 112.918C15.9992 122.938 25.5034 130.114 28.7814 140.645C27.1341 137.967 25.3817 135.364 23.6961 132.828C21.264 129.197 18.7687 125.624 16.358 121.993L16.3794 121.993Z" fill="#5C0609" fill-opacity="0.6"/>
<path d="M48.4187 107.937C48.6768 105.907 47.2213 105.273 46.783 103.201C46.8302 103.124 46.8619 103.038 46.8765 102.949C48.6254 91.3594 56.0302 79.558 52.8823 67.5802C50.7447 59.4675 41.5552 51.8777 33.2038 57.2564C24.2247 63.0399 28.6968 75.1087 33.6547 81.8129C39.2449 89.361 47.1235 99.0648 45.8273 109.194C45.7034 110.053 48.3086 108.785 48.4187 107.937ZM44.3783 96.1414C43.2254 90.0564 43.0335 83.7804 40.912 77.9403C38.6986 71.8648 34.9283 66.5266 31.1874 61.3054C32.368 59.4863 34.1344 58.1234 36.1936 57.4429C41.1695 62.9883 44.5069 69.807 45.8352 77.1423L45.9438 77.8468C45.8213 78.9346 45.692 80.0275 45.5601 81.117C44.8454 86.8829 44.7787 92.7088 45.3612 98.4862C45.0575 97.6936 44.7247 96.9123 44.3783 96.1414ZM45.9103 100.008C45.0095 93.064 45.4436 86.3526 46.1689 79.4799C46.9754 86.3349 46.2694 93.4391 45.9999 100.304L45.9112 100.024L45.9103 100.008ZM52.221 71.697C52.8063 79.1043 50.1432 86.1675 47.9301 93.2653C47.6165 88.596 48.0577 83.9049 49.2368 79.372C50.218 75.6288 51.2798 71.9425 51.6193 68.117C51.9213 69.2883 52.1209 70.4838 52.2158 71.6901L52.221 71.697ZM51.3107 67.0339C51.0858 71.6503 49.6842 75.9946 48.5823 80.4657C47.4499 85.0668 47.2756 89.3881 47.5863 94.0601C47.587 94.0826 47.5925 94.1046 47.6022 94.1249C47.612 94.1452 47.6258 94.1632 47.6429 94.1778C47.2081 95.5764 46.811 96.9895 46.4601 98.3997C46.7845 91.6213 47.3505 84.6229 46.3357 77.9253L46.4404 76.9419C47.1331 70.7574 47.3536 64.5872 45.197 58.6934C48.1974 60.5413 50.1989 63.6307 51.3004 67.0202L51.3107 67.0339ZM42.5325 57.4747C43.2782 57.7068 43.9991 58.0116 44.6848 58.3848C46.986 64.271 46.761 70.3643 46.099 76.5042L45.9864 75.8723C44.5202 68.9818 41.2865 62.5949 36.6022 57.3375C38.5469 56.8008 40.6047 56.8438 42.5222 57.461L42.5325 57.4747ZM30.983 61.674C34.6758 66.8245 38.3877 72.0996 40.5702 78.0916C42.5298 83.4761 42.836 89.2215 43.7715 94.834C43.4991 94.2747 43.225 93.7273 42.9467 93.1885C42.6168 88.2785 41.2322 83.4999 38.887 79.1778C36.5418 74.8558 33.2911 71.0916 29.3561 68.1415C29.3509 67.2823 29.4205 66.424 29.5641 65.5764C29.7853 64.1953 30.263 62.8671 30.9727 61.6603L30.983 61.674ZM30.8186 74.6079C33.6125 77.8408 35.9942 81.408 37.909 85.2282C35.3011 81.7836 32.4803 78.3767 30.8083 74.5942L30.8186 74.6079ZM39.0672 86.7825C36.868 81.9507 33.94 77.4862 30.3851 73.5442C29.7834 71.974 29.4373 70.3172 29.3597 68.6364C33.0694 71.4676 36.1515 75.036 38.4126 79.1175C40.6737 83.199 42.065 87.7058 42.4992 92.3548C42.1995 91.7947 41.8989 91.2406 41.6017 90.7053C40.8334 89.3481 39.9862 88.0371 39.0646 86.7791L39.0672 86.7825Z" fill="#5C0609" fill-opacity="0.6"/>
<path d="M105.094 82.3191C104.77 72.5157 92.8377 70.5562 85.5063 73.436C74.1267 77.9028 65.7083 88.1425 57.5035 96.7332C57.4238 96.8133 57.3701 96.9154 57.3494 97.0263C54.3731 98.697 53.5443 98.2959 51.3298 100.975C50.783 101.629 49.9678 105.038 50.5146 104.384C54.8264 99.1733 60.9812 95.8229 67.6944 95.0319C73.6203 94.3538 79.6025 95.8805 85.5132 96.0485C93.8095 96.2495 105.441 92.6413 105.094 82.3191ZM99.3072 91.1487C99.0272 91.3602 98.7505 91.5693 98.4807 91.7732C98.4807 91.7732 98.4807 91.7732 98.4448 91.7682C91.376 92.9712 84.1795 93.2158 77.0503 92.4953C79.3726 92.1534 81.6985 91.8516 84.0312 91.6087C89.2629 91.0698 94.5064 90.8163 99.7632 90.7721C99.6146 90.8951 99.4626 91.0206 99.3106 91.1461L99.3072 91.1487ZM68.3311 93.6306C68.0283 93.656 67.7273 93.6908 67.4237 93.7222C68.2059 93.1312 69.0188 92.517 69.842 91.8951C70.5196 91.9824 71.1681 92.081 71.7551 92.1619C72.6489 92.2892 73.5424 92.4114 74.4356 92.5285C72.3984 92.862 70.3647 93.2285 68.3345 93.628L68.3311 93.6306ZM67.1121 91.6621C65.9104 92.5282 64.7532 93.4543 63.6448 94.4369C63.2704 94.5379 62.9011 94.6457 62.5233 94.7492C64.0478 93.7419 65.5594 92.7175 67.0351 91.6454L67.1121 91.6621ZM67.722 91.6883C68.2575 91.7224 68.7845 91.7737 69.3013 91.8328C68.4003 92.4867 67.5422 93.1618 66.6986 93.7992C65.9325 93.9071 65.1724 94.0586 64.421 94.2358C65.4967 93.3374 66.5905 92.4843 67.7254 91.6857L67.722 91.6883ZM75.2742 92.2962C74.0028 92.1331 72.2691 91.7629 70.4269 91.4906C75.3451 88.0583 81.2172 85.1147 86.9144 85.8026C91.9451 86.4107 96.4513 88.8813 101.592 88.7325C101.166 89.3269 100.687 89.8819 100.162 90.3907C91.9487 90.4369 83.7487 91.088 75.6284 92.339C75.518 92.3207 75.3974 92.3102 75.2776 92.2936L75.2742 92.2962ZM101.85 88.3501C95.6357 88.6467 90.0212 84.7662 83.806 85.3526C78.959 85.8042 74.0621 88.4338 69.882 91.4154C69.3755 91.3487 68.8706 91.2913 68.3668 91.2493C72.3738 88.5199 76.8348 86.5267 81.5394 85.3635C88.7066 83.6084 96.0898 84.0284 103.372 84.4924C103.411 84.4919 103.448 84.4788 103.478 84.4551C103.192 85.8443 102.64 87.166 101.853 88.3475L101.85 88.3501ZM103.526 84.178C103.513 84.1617 103.497 84.1482 103.478 84.1383C103.46 84.1284 103.439 84.1223 103.418 84.1204C96.0958 83.66 88.6398 83.2147 81.4376 84.9802C76.528 86.1969 71.8838 88.3107 67.7397 91.2147L67.6576 91.2125C68.3407 90.6964 69.0238 90.1803 69.6889 89.6403C73.1518 86.81 76.4325 83.5822 80.5527 81.7C82.9134 80.9544 85.3386 80.3367 87.7691 79.7899C92.9486 79.2316 98.3331 80.0809 103.421 80.9136C103.421 80.9136 103.445 80.8955 103.458 80.8852C103.684 81.9658 103.711 83.079 103.537 84.1702L103.526 84.178ZM71.6813 87.4769C70.1301 88.7827 68.547 90.0108 66.9306 91.1946C66.0564 91.1728 65.1822 91.2499 64.3249 91.4243C65.4624 90.2385 66.6076 89.0629 67.7717 87.9052C71.0324 85.5474 74.6285 83.6927 78.439 82.4033C76.0583 83.9015 73.8049 85.5933 71.7018 87.4614L71.6813 87.4769ZM103.385 80.518C99.1562 79.8282 94.7189 79.1248 90.3569 79.2313C94.1452 78.4506 97.908 77.8068 101.432 77.1027C101.467 77.0917 101.497 77.0689 101.518 77.0382C102.42 78.0217 103.068 79.2108 103.405 80.5025L103.385 80.518ZM101.262 76.771C97.0232 77.6086 92.4395 78.3802 87.8666 79.4006C85.7358 79.6003 83.6408 80.0853 81.6379 80.8426C81.2243 81.0053 80.821 81.1816 80.4254 81.3681C76.5493 82.5276 72.8436 84.1973 69.4061 86.3332C70.2528 85.5223 71.1123 84.7284 71.9848 83.9515C72.0063 83.9773 72.0362 83.9949 72.0693 84.0011C72.1023 84.0074 72.1366 84.0019 72.1662 83.9857C80.3883 80.0905 88.644 76.2823 97.5994 74.4015C97.5994 74.4015 97.6301 74.3783 97.6438 74.368C98.5211 74.7344 99.3506 75.2054 100.114 75.7706C100.522 76.0651 100.908 76.3886 101.27 76.7385L101.262 76.771ZM83.1479 76.0097C87.4016 73.7644 92.5589 72.4951 97.0761 74.128C88.5305 76.0043 80.5959 79.5912 72.7181 83.3172C75.8973 80.4791 79.3945 78.0183 83.1393 75.9841L83.1479 76.0097ZM63.7746 92.038C64.5968 91.8138 65.4444 91.6969 66.2962 91.69C64.59 92.9256 62.8503 94.1169 61.085 95.2955C60.8722 95.376 60.6714 95.4581 60.4569 95.5506C61.5627 94.3584 62.6703 93.1756 63.7796 92.0022L63.7746 92.038ZM70.8661 93.5773C71.2927 93.4744 71.6449 93.4009 71.7834 93.3712C73.0744 93.1342 74.3715 92.9194 75.6703 92.714C77.449 92.9379 79.2302 93.1224 81.0301 93.218C86.6209 93.49 92.2263 93.1736 97.7539 92.2741C89.9033 97.0871 79.6205 93.6248 70.8712 93.5414L70.8661 93.5773Z" fill="#5C0609" fill-opacity="0.6"/>
<path d="M70.7359 74.2741C70.9197 71.9254 69.3887 71.9584 69.0605 69.7558C69.1614 69.7644 69.2629 69.7455 69.354 69.7011C69.4452 69.6567 69.5227 69.5885 69.5783 69.5037C74.8633 62.2039 77.1936 53.1876 75.676 44.2694C74.6974 38.4862 70.784 26.4822 63.4726 26.0935C53.9166 25.5815 55.4288 39.7475 57.3553 45.2373C61.1626 56.0641 68.9479 64.1316 68.0044 76.3753C67.9199 77.2364 70.6813 75.1179 70.7359 74.2741ZM68.6864 67.7268C68.9409 67.0316 69.1701 66.3359 69.3738 65.6398L69.3884 66.0568C69.3852 66.5354 69.3675 67.0304 69.3301 67.5348C69.1596 67.792 68.9839 68.0425 68.8049 68.2954L68.6864 67.7268ZM67.0036 62.1547C67.1073 61.0918 67.2666 60.0457 67.4362 59.0133C68.4814 60.621 69.1235 62.4574 69.3084 64.3674L69.3146 64.4323C69.0916 65.3018 68.8292 66.1688 68.5343 67.0284C68.1339 65.3711 67.6225 63.7429 67.0036 62.1547ZM67.5534 58.2879C67.7105 57.3667 67.8573 56.4532 67.9716 55.5321C68.4579 57.2648 68.8042 59.034 69.0072 60.8228C68.8732 60.5043 68.7224 60.1932 68.5552 59.8908C68.2469 59.3478 67.9096 58.8161 67.5586 58.2948L67.5534 58.2879ZM74.5205 45.4527C75.1166 49.8712 74.7651 54.3684 73.4894 58.6456C73.0041 49.6805 70.7942 40.6272 69.3239 31.8284C69.971 32.8056 70.5438 33.8336 71.0385 34.7441C72.8331 38.0744 74.0125 41.7017 74.5205 45.4527ZM66.8277 29.0003C67.6608 29.6797 68.3888 30.4782 68.9884 31.3702C68.9475 31.3792 68.9119 31.4041 68.8892 31.4392C68.8665 31.4744 68.8587 31.5171 68.8674 31.558C70.4208 40.7863 72.7899 50.2918 73.1624 59.6899C72.5349 61.573 71.7371 63.3955 70.7788 65.1347C75.2782 52.2858 69.8485 38.8643 63.0313 27.6469C64.4169 27.6427 65.7594 28.1213 66.8277 29.0003ZM62.6191 27.6907C69.7152 39.3128 75.4003 53.3493 69.802 66.6753C69.857 65.8343 69.8543 64.9908 69.7938 64.1505C71.2849 58.0703 70.9939 51.6942 68.9556 45.784C66.9173 39.8737 63.2177 34.6792 58.299 30.8209C59.2845 28.9795 60.8678 27.8795 62.6191 27.6907ZM57.8919 31.6101C57.9574 31.4482 58.0366 31.2975 58.1099 31.1458C62.8146 34.8514 66.3871 39.7987 68.425 45.4305C70.4629 51.0624 70.8851 57.155 69.6442 63.0223C69.632 62.9351 69.6044 62.8489 69.5889 62.7644C69.4155 59.9819 68.9064 57.2315 68.0729 54.5727C68.3318 52.3974 68.129 50.1931 67.4776 48.1038C65.6219 42.5017 61.3281 38.2387 57.1495 34.2632C57.3055 33.356 57.5543 32.467 57.8919 31.6101ZM57.0265 34.7253C61.6165 39.0963 66.4275 43.9799 67.666 50.455C67.8861 51.6376 67.9555 52.8438 67.8724 54.0446C67.7889 53.8134 67.7242 53.5786 67.6314 53.3492C65.6356 48.2648 61.7525 44.4674 57.5147 41.1947C57.497 41.181 57.4766 41.171 57.4548 41.1654C57.433 41.1598 57.4104 41.1586 57.3881 41.162C56.8683 39.054 56.7513 36.8659 57.0435 34.7124L57.0265 34.7253ZM57.515 41.6708C61.949 45.1322 65.9302 49.1874 67.7019 54.6711L67.7907 54.9732C67.6851 55.9839 67.5155 56.995 67.3287 57.9976C65.4537 55.2673 63.0702 52.7233 60.9521 50.2678C59.4907 47.5366 58.3434 44.6483 57.532 41.6579L57.515 41.6708ZM61.7937 51.815C63.5844 53.9294 65.3682 56.0703 66.9659 58.3198C67.0585 58.4425 67.1204 58.5669 67.1959 58.6811C67.0236 59.6246 66.8409 60.5546 66.7181 61.5141C65.956 59.6567 65.091 57.8433 64.1272 56.0823C63.4228 54.731 62.6139 53.2982 61.8108 51.802L61.7937 51.815Z" fill="#5C0609" fill-opacity="0.6"/>
<path d="M88.3829 56.9335C89.2692 55.1028 87.7779 54.8971 88.3509 52.95C88.4321 52.9097 88.5051 52.8546 88.5661 52.7874C92.2318 48.5764 95.5418 44.0693 98.462 39.3125C100.366 36.1512 102.039 32.7415 102.055 28.9782C102.077 23.6807 98.0471 15.1515 91.6826 15.519C84.4971 15.9502 84.2332 24.5556 85.7816 29.6515C87.5385 35.4353 88.5336 40.9492 88.12 46.452C87.6468 47.7364 87.4561 49.1069 87.561 50.47C87.0093 53.1191 86.1319 55.6907 84.9488 58.1261C84.5733 58.8861 88.0125 57.7003 88.3829 56.9335ZM93.4348 37.9846C93.6352 37.7101 93.8528 37.4441 94.0617 37.1739C93.7425 38.6091 93.3346 40.0235 92.8404 41.4088L92.7629 41.5476C92.8438 40.625 92.8665 39.7036 92.8662 38.7942C93.0477 38.5019 93.2524 38.2402 93.4348 37.9846ZM100.706 29.3291C100.702 29.4659 100.692 29.6018 100.682 29.7378C100.652 29.7405 100.624 29.7514 100.601 29.7692C100.577 29.7869 100.559 29.8109 100.548 29.8384C98.637 35.3117 95.0318 39.8923 92.2221 44.8938C92.3346 44.3326 92.4632 43.7431 92.5364 43.1795C92.7542 42.6511 92.9626 42.1245 93.1538 41.5893C94.4992 39.2327 95.6007 36.7455 96.4414 34.1667C97.8413 32.5258 99.2695 30.9224 100.706 29.3291ZM96.772 33.2053C97.908 29.3862 98.4707 25.4213 98.4418 21.4401C99.8833 23.6117 100.669 26.1529 100.706 28.7616C99.3852 30.2303 98.061 31.7017 96.772 33.2053ZM89.5706 46.8595C90.4479 45.7715 91.2685 44.639 92.029 43.4665C91.2744 45.2225 90.378 46.9145 89.3486 48.5256C89.4354 47.973 89.5077 47.4154 89.5706 46.8595ZM93.8421 39.539C94.1443 38.5188 94.4021 37.5107 94.6033 36.4704C94.9948 35.966 95.3922 35.4624 95.8008 34.9664C95.2439 36.5297 94.5897 38.0569 93.8421 39.539ZM92.2881 42.3183C91.4791 43.6545 90.5926 44.9424 89.6333 46.1755C89.6833 45.6026 89.7299 45.0323 89.7629 44.4723C90.2088 43.4719 90.6607 42.4296 91.0424 41.3653C91.5137 40.64 91.9989 39.9471 92.4738 39.2833C92.4725 40.2986 92.4113 41.3132 92.2907 42.3217L92.2881 42.3183ZM89.1703 49.4897C90.1926 47.974 91.098 46.383 91.8787 44.7305C91.7456 45.2644 91.6074 45.7916 91.464 46.3119C91.1088 46.9923 90.7674 47.6837 90.4551 48.3852C89.9842 48.9763 89.5168 49.5649 89.0383 50.1458L89.1703 49.4897ZM95.233 41.8913C94.1205 43.5505 92.9531 45.1655 91.7412 46.7499L91.838 46.4307C94.5769 41.1509 98.4095 36.4521 100.58 30.8741L100.571 30.9614C99.9236 34.9978 97.4324 38.6029 95.2193 41.9016L95.233 41.8913ZM98.0685 20.8821C98.1604 25.3155 97.51 29.735 96.1441 33.9579C95.6741 34.5217 95.2135 35.0837 94.7477 35.6603C95.8208 29.5155 95.2592 23.2009 93.1194 17.3496C93.1039 17.3291 93.0936 17.3156 93.0808 17.2985C94.5369 17.6303 95.859 18.3908 96.8765 19.4819C97.3 19.9255 97.6936 20.3968 98.0548 20.8924L98.0685 20.8821ZM92.866 17.2628C92.8256 17.2817 92.7939 17.3152 92.7773 17.3566C92.7607 17.3979 92.7605 17.444 92.7766 17.4854C94.9759 23.4866 95.4932 29.978 94.2727 36.2601C93.7916 36.8804 93.3243 37.5116 92.8656 38.1471C92.6384 31.7962 90.3389 25.5074 87.423 19.695C87.9824 18.7949 88.7991 18.0827 89.7672 17.6509C90.7353 17.219 91.8101 17.0874 92.8523 17.2731L92.866 17.2628ZM89.7958 42.3713C89.6865 39.6939 89.281 37.0375 88.5867 34.4508C87.6122 30.4837 85.4183 26.3089 86.3935 22.153C86.5611 21.4283 86.8308 20.7309 87.1946 20.0816C90.1073 25.9393 92.3812 32.2795 92.4887 38.6781C92.1409 39.1763 91.7981 39.6814 91.4802 40.1838C91.8942 38.9678 92.1223 37.6968 92.1569 36.4138C92.1623 33.0549 89.1824 30.0411 87.0152 27.826C86.8472 27.6533 86.5269 27.8899 86.7112 28.0556C89.5488 30.9522 92.315 34.0524 91.3975 38.3842C91.1132 39.6564 90.7335 40.9056 90.2614 42.1212C90.1063 42.3775 89.953 42.6432 89.7893 42.9167C89.7736 42.7467 89.7894 42.5688 89.7822 42.3817L89.7958 42.3713Z" fill="#5C0609" fill-opacity="0.6"/>
<path d="M131.341 60.7877C132.201 57.6656 131.2 54.4731 129.054 52.1296C125.987 48.7803 122.063 47.9677 117.689 47.9383C106.488 47.8403 97.4876 55.3571 88.4766 61.0202C88.4524 61.0355 88.4295 61.0527 88.4082 61.0718C86.0854 61.1787 85.9178 60.0693 83.6071 60.2206C82.7536 60.2769 80.7621 62.8463 81.6114 62.7986C93.9237 61.9879 105.631 61.8109 117.379 65.9695C122.912 67.9317 129.486 67.5931 131.341 60.7877ZM127.754 52.6461C121.304 51.7354 114.945 53.602 108.685 55.0091C105.111 55.8101 100.449 56.2232 96.8049 57.9544C95.9059 58.213 95.0224 58.5232 94.1589 58.8834C94.5133 58.6424 94.8472 58.4168 95.1974 58.1843C98.6056 56.5457 102.476 55.7459 105.989 54.4238C110.099 52.8758 114.105 51.0693 118.108 49.2594C121.667 49.3046 125.262 50.1359 127.747 52.6513L127.754 52.6461ZM117.176 49.2468C113.02 51.1241 108.848 52.9809 104.564 54.5323C102.01 55.4558 99.33 56.1269 96.8303 57.0791C102.365 53.4328 108.165 50.0672 114.713 49.3954C115.515 49.3137 116.34 49.2628 117.176 49.2468ZM92.3858 60.0517C93.2898 59.6363 94.205 59.2498 95.1314 58.9137C95.0222 58.9963 94.9094 59.0815 94.7899 59.1718C94.0263 59.3743 93.3268 59.7684 92.7576 60.3166C92.7098 60.3527 92.6654 60.3863 92.621 60.4199C92.5942 60.4393 92.5741 60.4665 92.5631 60.4977C92.5522 60.5289 92.551 60.5627 92.5598 60.5945C92.5313 60.6341 92.5052 60.6753 92.4814 60.7179C92.2643 60.807 92.0498 60.8995 91.8388 60.9894C91.5599 60.9967 91.2786 61.0007 90.9963 61.0106C91.4532 60.6708 91.9178 60.3625 92.3858 60.0517ZM92.9821 60.8908L92.9992 60.8778C92.9928 60.8811 92.987 60.8855 92.9821 60.8908ZM93.7888 60.5381C94.6895 60.168 95.6141 59.8011 96.5559 59.4427C97.3499 59.4122 98.1447 59.4625 98.9281 59.5928C98.2131 59.9961 97.5203 60.4374 96.8526 60.9148C95.7178 60.8946 94.5822 60.8947 93.4458 60.915C93.5422 60.794 93.6573 60.6695 93.7785 60.5459L93.7888 60.5381ZM99.527 59.6968C101.306 60.0864 103.04 60.6547 104.704 61.3931C102.319 61.1192 99.9182 60.9744 97.5215 60.9338C98.1642 60.4888 98.8302 60.0784 99.5168 59.7045L99.527 59.6968ZM107.633 61.791C107.105 61.7029 106.579 61.6456 106.052 61.573C104.124 60.6578 102.108 59.9382 100.035 59.4251C101.086 58.886 102.179 58.4325 103.303 58.0692C103.638 58.1428 103.966 58.2369 104.312 58.3395C107.701 59.4231 110.884 61.2505 113.819 63.3243C111.795 62.6619 109.724 62.1519 107.623 61.7987L107.633 61.791ZM99.4603 59.3031C98.8325 59.1807 98.1966 59.1032 97.5575 59.0713C97.831 58.9717 98.1045 58.8721 98.3976 58.763C100.072 58.2951 101.53 57.9376 101.714 57.9111C101.897 57.8845 101.946 57.8851 102.058 57.8701C102.17 57.855 102.383 57.9027 102.542 57.9275C101.478 58.3099 100.444 58.7723 99.4501 59.3108L99.4603 59.3031ZM99.624 57.9433C99.0752 58.0691 98.5221 58.2033 97.9784 58.3573C97.4348 58.5112 96.7303 58.6368 95.9882 58.7908C96.2376 58.6451 96.4897 58.5029 96.746 58.3735C97.7931 58.0721 98.8696 57.8849 99.9565 57.8152C99.848 57.8704 99.7292 57.9121 99.6138 57.9511L99.624 57.9433ZM117.9 64.7414C116.937 64.3982 115.969 64.0601 114.989 63.7298C111.688 61.2637 107.896 58.9222 103.973 57.8625C104.148 57.8104 104.329 57.7651 104.503 57.7189C106.693 57.7322 108.868 58.0732 110.955 58.7305C116.058 60.2948 120.945 62.8207 125.621 65.3605C125.837 65.4757 125.981 65.1263 125.771 65.0119C119.833 61.7612 113.01 57.8788 106.096 57.3557C113.744 55.9325 121.81 58.4696 128.807 62.4828C129.016 62.6032 129.166 62.2486 128.953 62.1368C121.4 57.8212 112.696 55.2265 104.546 57.3068C103.818 57.3169 103.091 57.3643 102.368 57.4489C111.76 54.6335 122.093 53.611 129.971 58.9387C130.171 59.0762 130.392 58.7863 130.202 58.6411C121.929 53.0452 111.046 54.3276 101.29 57.3857C100.416 57.3455 99.5408 57.3955 98.6771 57.5351C102.834 55.9997 107.907 55.5487 111.51 54.7364C117.012 53.4962 122.436 52.1539 128.09 53.0402C128.09 53.0402 128.113 53.0222 128.127 53.0119C128.458 53.3854 128.759 53.784 129.028 54.2041C130.025 55.7237 130.45 57.5486 130.227 59.3548C130.005 61.161 129.149 62.8315 127.811 64.0696C124.764 66.8322 121.353 65.9743 117.889 64.7491L117.9 64.7414Z" fill="#5C0609" fill-opacity="0.6"/>
<path d="M109.431 41.4537C114.683 35.2814 119.31 28.4891 123.844 21.7784C127.043 17.0502 130.949 7.7477 122.763 5.43509C115.997 3.53785 110.954 10.398 110.7 16.4538C110.414 22.856 112.947 29.3693 112.081 35.7435C112.072 35.8283 112.079 35.914 112.101 35.9964C110.896 37.5697 106.586 41.3939 105.305 42.9018C104.753 43.5702 108.876 42.1034 109.431 41.4537ZM119.139 26.2805C117.945 27.9743 116.755 29.6869 115.542 31.3688C115.775 30.6642 115.888 29.9257 115.876 29.1842C116.003 28.9759 116.13 28.7677 116.255 28.556C117.81 26.6129 119.188 24.5347 120.373 22.3464C121.839 20.6231 123.41 18.9814 124.987 17.3405C124.735 17.9081 124.447 18.4595 124.126 18.9916C122.583 21.4793 120.815 23.869 119.139 26.2805ZM113.513 31.9862L113.499 31.676C113.6 31.5679 113.706 31.4605 113.797 31.3601C113.826 31.371 113.857 31.3736 113.888 31.3676C113.918 31.3616 113.947 31.3471 113.969 31.3259C113.952 31.3585 113.936 31.3919 113.922 31.4261C113.788 31.5969 113.645 31.7847 113.505 31.976L113.513 31.9862ZM112.274 16.5488C113.909 18.8187 115.978 21.9266 115.654 24.8785C115.589 25.4168 115.477 25.9486 115.321 26.4682C114.696 24.8993 113.7 23.5057 112.418 22.4062C112.222 20.4605 112.174 18.5025 112.274 16.5488ZM115.325 27.7442C115.377 27.9865 115.417 28.2314 115.444 28.4778C115.303 28.7238 115.156 28.9689 115.023 29.2192C114.763 29.5862 114.536 29.924 114.283 30.2705C114.138 30.4276 113.99 30.5934 113.859 30.7401C114.371 29.8253 114.83 28.8819 115.234 27.9147C115.27 27.8496 115.299 27.7956 115.332 27.739L115.325 27.7442ZM117.811 25.5604C118.144 25.1059 118.485 24.6555 118.832 24.2059C118.386 24.9357 117.915 25.6479 117.421 26.3426C117.561 26.0813 117.679 25.832 117.818 25.5553L117.811 25.5604ZM125.347 16.4105C123.892 17.9004 122.451 19.4014 121.073 20.9508C123.029 16.9511 124.332 12.6659 124.934 8.25789C126.633 10.2163 126.415 13.5276 125.354 16.4053L125.347 16.4105ZM124.601 7.90993C123.957 12.8906 122.408 17.7143 120.032 22.1438C119.499 22.766 118.978 23.4053 118.475 24.053C120.747 18.5169 121.619 12.5099 121.014 6.56403C122.333 6.57764 123.604 7.05193 124.608 7.90476L124.601 7.90993ZM120.523 6.53906L120.635 6.54531C121.222 12.2567 120.432 18.029 118.332 23.3801C118.603 22.5095 118.808 21.6196 118.944 20.7182C119.605 16.1681 118.71 11.3332 118.256 6.79097C119.001 6.61319 119.765 6.52689 120.53 6.53389L120.523 6.53906ZM117.874 6.8817C118.296 11.0411 119.036 15.4 118.692 19.5606C118.448 22.129 117.68 24.6216 116.435 26.8842C116.199 27.2392 115.968 27.6009 115.732 27.9499C115.689 27.7076 115.633 27.4677 115.565 27.2311C116.579 25.1647 117.323 22.9543 117.361 20.7319C117.424 17.0086 115.494 12.9709 114.217 9.54807C115.087 8.25331 116.39 7.3106 117.891 6.8902L117.874 6.8817ZM113.981 9.96714C115.181 13.1596 116.784 16.8014 116.935 20.1758C116.971 21.9327 116.648 23.6793 115.985 25.3086C116.049 24.9122 116.08 24.5112 116.077 24.1099C116.029 21.305 114.126 18.4672 112.544 16.2808C112.531 16.2605 112.514 16.2432 112.494 16.2302C112.473 16.2172 112.45 16.2087 112.426 16.2054C112.403 16.2021 112.378 16.204 112.355 16.2111C112.332 16.2181 112.311 16.2301 112.293 16.2461C112.459 13.9531 112.938 11.7029 113.988 9.96198L113.981 9.96714ZM112.474 22.9691C113.69 24.0844 114.606 25.4876 115.138 27.0502C115.053 27.2857 114.964 27.5297 114.89 27.7728C114.417 28.6657 113.913 29.533 113.392 30.3492C113.168 27.9931 112.769 25.6249 112.527 23.3731L112.474 22.9691ZM113.535 33.3502C113.755 32.756 113.994 32.1705 114.252 31.5938C114.676 31.0114 115.088 30.4274 115.464 29.811C115.336 31.2522 114.719 32.6077 113.715 33.6528C113.688 33.6801 113.672 33.7168 113.671 33.7554C113.671 33.7939 113.685 33.8312 113.711 33.8596L113.526 34.1118C113.544 33.8519 113.54 33.5981 113.542 33.3451L113.535 33.3502Z" fill="#5C0609" fill-opacity="0.6"/>
<path d="M156.468 43.1573C154.003 36.6137 145.395 34.8929 139.34 35.2298C128.094 35.8396 125.512 34.5957 120.942 35.598C120.114 35.7798 117.362 38.5649 118.215 38.3804C120.88 37.8371 123.57 37.4299 126.275 37.1603C126.347 37.2603 126.449 37.3351 126.566 37.3743C135.12 40.2962 139.029 50.4046 147.897 52.5062C153.87 53.9218 158.735 49.1762 156.468 43.1573ZM144.662 45.0356C143.66 44.0222 142.589 43.0793 141.456 42.2135C140.561 41.5255 139.647 40.9051 138.685 40.2782C139.659 40.3025 140.64 40.2944 141.621 40.2375L141.94 40.2967C147.411 41.3532 153.684 42.6605 155.391 48.7761C155.192 49.1496 154.939 49.492 154.64 49.7925C152.197 46.7855 148.417 46.3346 144.911 45.1096L144.662 45.0356ZM131.317 38.2736L131.582 38.3253C132.052 38.6831 132.517 39.0219 132.977 39.3416C132.9 39.3249 132.821 39.3202 132.747 39.3069C132.282 38.9467 131.808 38.6037 131.317 38.2736ZM131.584 36.7236C132.29 37.0894 132.998 37.4587 133.702 37.8365C132.316 37.5508 130.933 37.2045 129.541 36.86C130.22 36.8071 130.901 36.7617 131.584 36.7236ZM129.609 37.2631C130.949 37.6156 132.298 37.9817 133.681 38.2639L130.363 37.6782C130.115 37.5341 129.862 37.3986 129.609 37.2631ZM132.455 38.4946L136.18 39.2065C136.494 39.387 136.804 39.5642 137.124 39.7456C136.028 39.7071 134.934 39.6134 133.848 39.4648C133.373 39.1551 132.912 38.8291 132.455 38.4946ZM137.25 39.415L139.134 39.7786C138.706 39.7806 138.278 39.7887 137.848 39.7814L137.25 39.415ZM137.954 40.2689C139.817 41.4029 141.572 42.7072 143.194 44.1649C143.375 44.3333 143.549 44.5068 143.719 44.6829C140.512 43.4479 137.448 41.8694 134.582 39.9749C135.703 40.1234 136.827 40.2213 137.954 40.2689ZM155.613 48.2605C154.24 44.0005 150.445 41.918 146.227 40.8085C145.273 40.5609 144.307 40.3331 143.336 40.1139C146.905 39.7881 150.571 39.3294 153.559 41.3525C155.262 43.3999 156.396 46.0798 155.613 48.2605ZM152.686 40.4388C150.828 39.5418 148.733 39.3323 146.527 39.4369C144.793 39.5214 143.11 39.6372 141.439 39.7119C139.63 39.3343 137.806 38.9944 135.984 38.6698C136.868 38.7923 137.759 38.85 138.652 38.8425C142.241 38.8063 145.652 37.754 149.235 38.2358C149.625 38.3963 150.02 38.5637 150.392 38.7584C151.237 39.2005 152.01 39.767 152.686 40.4388ZM147.847 37.7331C145.364 37.6349 142.939 38.097 140.429 38.3399C138.58 38.4938 136.72 38.4004 134.897 38.0623C134.042 37.5904 133.181 37.133 132.319 36.6816L133.205 36.6329C137.973 36.4022 143.202 36.2231 147.847 37.7331ZM137.353 43.4786C138.93 44.094 140.43 44.8886 141.825 45.8467C143.565 47.0999 144.846 48.7595 146.038 50.5075C144.38 49.6647 142.837 48.6132 141.447 47.3785C140.018 46.1256 138.682 44.791 137.353 43.4786ZM146.694 50.7932C143.985 46.8098 140.98 44.65 136.675 42.8084C135.593 41.7529 134.491 40.7129 133.346 39.78C133.459 39.8017 133.573 39.8174 133.686 39.8331C136.071 41.4781 138.603 42.9006 141.249 44.0829C142.185 44.4844 143.144 44.8316 144.121 45.1228C145.967 47.2173 147.422 49.9812 149.652 51.555C148.631 51.459 147.633 51.2019 146.694 50.7932ZM152.767 51.0203C152.016 51.3583 151.204 51.5402 150.381 51.5549C148.287 50.3172 147.25 47.9496 145.709 46.1596C145.473 45.889 145.228 45.6295 144.984 45.37C148.455 46.413 152.201 47.4086 154.33 50.0427C153.865 50.4488 153.343 50.784 152.78 51.0374L152.767 51.0203Z" fill="#5C0609" fill-opacity="0.6"/>
<path d="M177.828 40.1124C179.93 35.0408 174.335 31.4345 170.418 29.9423C164.344 27.634 158.211 27.5055 151.794 27.7253C151.685 27.7299 151.579 27.7638 151.487 27.8234C149.632 27.0153 147.635 26.5018 145.645 26.8225C144.804 26.9599 142.507 28.7975 143.351 28.6575C147.155 28.0469 153.445 30.1592 156.368 32.146C159.938 34.5697 162.731 37.6494 165.987 40.396C169.158 43.067 175.68 45.315 177.828 40.1124ZM167.814 40.1872L167.112 39.6478C165.621 37.8311 164.037 36.0939 162.364 34.4435C163.48 34.9757 164.595 35.5079 165.707 36.0273L166.722 36.4694C168.401 38.1431 169.944 39.9476 171.336 41.8659C171.345 41.8786 171.357 41.8894 171.37 41.8976C171.384 41.9057 171.399 41.9111 171.415 41.9134C170.108 41.5955 168.883 41.0056 167.821 40.182L167.814 40.1872ZM156.026 30.3656L156.06 30.3398C156.622 30.4935 157.186 30.6506 157.749 30.7923C158.604 31.4981 159.442 32.226 160.263 32.9758C159.542 32.6263 158.83 32.2657 158.122 31.9178C157.461 31.3894 156.77 30.8759 156.046 30.3774L156.026 30.3656ZM156.588 28.9355C156.599 28.9618 156.617 28.9851 156.639 29.0037C157.054 29.2256 157.451 29.4604 157.871 29.7105C157.694 29.7319 157.512 29.7618 157.335 29.7832L156.96 29.6764C156.647 29.4258 156.33 29.1838 156.01 28.9383L156.588 28.9355ZM176.762 38.815C174.997 36.571 172.912 34.5985 170.573 32.9603C173.053 33.5432 175.219 34.678 176.711 37.4195C176.809 37.8817 176.833 38.3568 176.782 38.8268L176.762 38.815ZM176.656 39.307C176.439 40.0654 175.953 40.7196 175.289 41.1477C172.798 36.8922 168.342 34.0044 163.524 31.967C164.018 32.0381 164.51 32.1212 165.011 32.1812C166.611 32.3743 168.18 32.5052 169.662 32.7767C172.348 34.553 174.721 36.7608 176.686 39.3111L176.656 39.307ZM160.923 30.9462L160.188 30.6831C159.811 30.4327 159.459 30.2012 159.088 29.973C161.75 29.7602 164.392 29.9628 166.908 31.1763C167.425 31.4276 167.947 31.7132 168.468 32.0201C165.97 31.6176 163.446 31.3306 160.943 30.9581L160.923 30.9462ZM157.746 30.2915L158.381 30.4858L157.837 30.362L157.746 30.2915ZM158.766 30.2216L158.253 30.0745C158.321 30.0656 158.389 30.0627 158.46 30.0572C158.575 30.1097 158.686 30.1647 158.79 30.2309L158.766 30.2216ZM155.402 28.943L155.997 29.4033C155.429 29.2488 154.87 29.0985 154.322 28.9618L155.402 28.943ZM156.428 29.9175L156.103 29.9703C155.856 29.9057 155.608 29.8471 155.358 29.7791C155.328 29.7703 155.297 29.7688 155.267 29.7747C155.237 29.7807 155.209 29.7939 155.185 29.8132C154.964 29.6698 154.739 29.535 154.514 29.4002C155.157 29.5703 155.803 29.7459 156.451 29.9268L156.428 29.9175ZM161.273 33.93C162.759 35.3493 164.183 36.8304 165.537 38.3871C163.453 36.6382 161.518 34.7724 159.453 33.0199C160.084 33.3357 160.687 33.6447 161.296 33.9392L161.273 33.93ZM161.392 33.5191C160.482 32.6551 159.544 31.817 158.58 31.0045C159.283 31.1687 159.988 31.3268 160.697 31.4704C162.489 32.6985 164.186 34.0606 165.771 35.545C164.332 34.8827 162.87 34.2111 161.415 33.5284L161.392 33.5191ZM161.58 31.6379L161.8 31.6804C167.147 33.7298 172.283 36.7358 174.967 41.3535C174.872 41.4258 174.735 41.4649 174.614 41.5185C173.472 39.5027 171.703 38.2975 169.516 37.2696C168.639 36.8619 167.755 36.4593 166.872 36.0568C165.235 34.4517 163.475 32.9784 161.606 31.6506L161.58 31.6379ZM167.179 30.228C169.875 31.021 173.012 32.0331 174.979 34.1048C175.512 34.6712 175.949 35.321 176.272 36.0285C174.961 34.1748 172.988 32.895 170.758 32.4517C170.313 32.3599 169.87 32.2774 169.427 32.1949C168.657 31.7016 167.863 31.2479 167.047 30.8355C164.335 29.4819 161.429 29.3498 158.518 29.6442C158.117 29.4119 157.713 29.1822 157.302 28.9577C160.646 28.9302 163.977 29.3608 167.202 30.2373L167.179 30.228ZM173.452 41.9044C172.818 42.0315 172.165 42.0318 171.532 41.9052C171.564 41.9024 171.596 41.891 171.623 41.872C171.649 41.8531 171.671 41.8274 171.684 41.7975C171.698 41.7676 171.703 41.7347 171.7 41.7021C171.696 41.6695 171.684 41.6384 171.665 41.6122C170.432 39.927 169.083 38.3308 167.626 36.8351C170.237 37.955 172.799 39.1657 174.256 41.6766C174.001 41.7702 173.74 41.8493 173.475 41.9137L173.452 41.9044Z" fill="#5C0609" fill-opacity="0.6"/>
<path d="M142.175 23.1674C144.976 20.8958 148.426 18.6587 150.606 15.7277C152.578 13.0549 155.068 6.24556 151.318 3.88847C147.209 1.33226 141.239 5.53796 139.93 9.45876C138.193 14.6722 138.942 20.4788 136.811 25.6898C136.811 25.6898 136.805 25.7317 136.799 25.7523C135.109 27.0664 133.389 28.3824 131.645 29.6463C130.962 30.1624 133.271 31.0026 133.959 30.4933C137.272 28.097 138.984 25.7605 142.175 23.1674ZM139.085 23.4097C139.369 22.8385 139.672 22.2658 139.993 21.6916C140.464 21.3355 140.935 20.9794 141.407 20.6233C141.203 21.187 140.953 21.7333 140.661 22.2568C140.153 22.6587 139.627 23.043 139.085 23.4097ZM139.235 22.3012L139.247 22.2602L139.268 22.2447C139.268 22.2447 139.244 22.2841 139.235 22.3012ZM142.139 20.9745C141.895 21.2064 141.642 21.4247 141.388 21.643C141.605 21.1725 141.791 20.6885 141.946 20.1942C142.407 19.8458 142.868 19.4974 143.289 19.1313C142.951 19.773 142.567 20.389 142.139 20.9745ZM143.989 18.5596C144.391 18.2243 144.793 17.883 145.183 17.5401C144.635 18.2855 144.046 18.9999 143.42 19.6802C143.626 19.31 143.816 18.9365 143.989 18.5596ZM142.124 19.578C142.319 18.8363 142.467 18.083 142.567 17.3228C143.484 15.8167 144.392 14.3064 145.229 12.7647C144.993 14.6852 144.471 16.5604 143.68 18.3277C143.172 18.749 142.652 19.1686 142.124 19.578ZM141.619 19.9599C141.23 20.2541 140.84 20.5483 140.451 20.8424C140.962 19.9212 141.508 19.0322 142.053 18.1339C141.953 18.7585 141.814 19.3763 141.637 19.9837L141.619 19.9599ZM151.015 12.2719C149.746 15.3711 147.157 17.3272 144.658 19.4025C143.898 20.0361 143.132 20.6628 142.366 21.2896C142.384 21.2781 142.401 21.2652 142.417 21.2509C143.96 19.8084 145.311 18.1744 146.438 16.3888C148.721 14.171 150.653 11.6574 151.815 8.5373C151.79 9.82283 151.52 11.0924 151.021 12.2787L151.015 12.2719ZM151.763 7.77945C151.734 7.7816 151.707 7.79199 151.684 7.80938C151.661 7.82678 151.643 7.85044 151.633 7.87752C150.69 10.5467 149.18 12.9816 147.208 15.015C148.888 11.9382 149.903 8.54437 150.187 5.05377C150.645 5.35456 151.027 5.75807 151.301 6.23239C151.576 6.70671 151.736 7.23877 151.768 7.78627L151.763 7.77945ZM149.094 4.6163C149.348 4.67907 149.594 4.76719 149.83 4.87938C149.529 8.8837 148.251 12.7559 146.107 16.1571C145.534 16.7128 144.937 17.2499 144.325 17.7759C145.064 15.8797 145.527 13.8884 145.7 11.8625C146.921 9.58318 147.821 7.14744 148.376 4.62406C148.383 4.58557 148.374 4.546 148.352 4.51389C148.604 4.52589 148.854 4.56244 149.1 4.62308L149.094 4.6163ZM148.044 4.51111C148.023 4.52659 148.006 4.53949 148.001 4.57541C147.532 6.76148 146.79 8.88073 145.792 10.8834C145.897 8.95554 145.85 7.02283 145.653 5.10298C146.4 4.73603 147.218 4.53636 148.049 4.51793L148.044 4.51111ZM145.279 5.30477C145.496 7.45287 145.515 9.61687 145.335 11.7694C144.517 13.3562 143.603 14.9025 142.677 16.4531C142.954 13.568 142.775 10.5467 142.816 7.86706C142.816 7.833 142.808 7.79939 142.793 7.76922C142.777 7.73904 142.754 7.71323 142.726 7.6942C142.698 7.67517 142.665 7.66348 142.631 7.66018C142.597 7.65687 142.563 7.66206 142.531 7.67527C143.29 6.7192 144.225 5.91682 145.285 5.31159L145.279 5.30477ZM140.44 15.0126C140.652 13.4885 140.691 11.7944 141.083 10.3104C141.364 9.3805 141.826 8.5149 142.443 7.76376L142.419 7.78181C142.373 10.6897 142.614 14.0552 142.193 17.1768C141.337 18.5784 140.483 19.9833 139.687 21.4145L139.345 21.6726C139.848 19.4838 140.145 17.2209 140.435 15.0058L140.44 15.0126ZM138.746 24.0891C139.105 23.8549 139.46 23.6138 139.806 23.3626C139.434 23.6439 139.076 23.9516 138.712 24.2431L138.746 24.0891Z" fill="#5C0609" fill-opacity="0.6"/>
<path d="M158.609 22.1806C163.73 20.6499 168.459 17.2802 172.24 13.5782C174.606 11.2557 178.558 7.02811 177.747 3.26968C176.64 -1.82321 170.261 -0.112111 167.785 2.64681C165.431 5.27609 164.368 8.92559 163.003 12.1031C162.07 14.3993 160.921 16.6022 159.571 18.682C159.448 18.7749 159.307 18.844 159.175 18.9172C159.042 18.9905 159.094 19.1441 159.204 19.2111C158.04 20.8235 153.931 22.6006 152.217 23.8106C151.515 24.3028 155.048 25.0371 155.746 24.5474C156.726 23.8549 157.634 23.0663 158.458 22.1933C158.508 22.195 158.559 22.1907 158.609 22.1806ZM175.415 2.52706C172.221 8.23037 167.772 13.1361 162.405 16.8726C164.52 14.2132 166.28 11.2901 167.639 8.17738C169.676 5.80998 171.942 3.64977 174.404 1.72856C174.78 1.92152 175.113 2.18853 175.383 2.51357L175.415 2.52706ZM161.581 18.0193L161.713 17.8024C161.924 17.6424 162.154 17.5063 162.368 17.3557C162.086 17.5793 161.823 17.7993 161.56 18.0194L161.581 18.0193ZM175.659 2.85668C175.932 3.29856 176.11 3.79288 176.181 4.30799C174.522 6.04646 172.834 7.74832 171.116 9.41357C172.816 7.36701 174.329 5.17261 175.637 2.85678L175.659 2.85668ZM162.861 15.6507C163.166 15.0276 163.464 14.3943 163.754 13.7507C163.838 13.564 163.914 13.373 163.999 13.1803C164.698 12.1171 165.385 11.0309 166.163 10.0092C166.336 9.78278 166.513 9.5631 166.685 9.34262C165.607 11.5625 164.319 13.6749 162.839 15.6509L162.861 15.6507ZM160.272 20.0359C160.299 20.0487 160.329 20.0537 160.359 20.0502C160.388 20.0467 160.416 20.035 160.44 20.0162C165.4 16.0436 170.36 12.0699 175.319 8.09499C174.321 9.91945 172.632 11.6396 170.99 13.0885C167.722 15.0816 164.57 17.2592 161.55 19.6109C161.079 19.8328 160.607 20.0394 160.128 20.2357C160.139 20.1792 160.188 20.1158 160.237 20.0463L160.272 20.0359ZM163.481 18.6016C165.24 17.294 167.04 16.0428 168.881 14.8482C168.676 15.003 168.481 15.1501 168.293 15.2921C166.757 16.5206 165.132 17.6337 163.432 18.6223L163.481 18.6016ZM175.732 7.28536L160.864 19.1929L160.984 19.0111C166.346 14.5689 171.448 9.8214 176.263 4.79222C176.274 5.1211 176.253 5.45035 176.201 5.77541C176.091 6.3045 175.917 6.81847 175.683 7.3061L175.732 7.28536ZM171.257 1.66082C172.14 1.26728 173.139 1.21977 174.054 1.52769C171.935 3.19224 169.96 5.03185 168.149 7.02704C168.71 5.63973 169.218 4.18089 169.679 2.66073C170.135 2.25708 170.651 1.92676 171.208 1.6816L171.257 1.66082ZM166.888 6.52973C167.466 5.30872 168.218 4.17788 169.121 3.17283C168.621 4.79185 168.031 6.38228 167.355 7.93687C167.154 8.17459 166.953 8.41231 166.754 8.65343C166.044 9.53206 165.396 10.4497 164.774 11.38C165.385 9.7677 166.041 8.12182 166.839 6.55046L166.888 6.52973Z" fill="#5C0609" fill-opacity="0.6"/>
<path d="M182.809 19.6494C187.428 19.081 204.078 12.5212 196.82 5.52727C194.022 2.82542 190.62 5.35292 188.782 7.78484C185.501 12.1203 183.535 19.4382 177.607 21.0437C176.782 21.2657 177.278 22.4906 178.095 22.2798C179.761 21.7836 181.272 20.87 182.486 19.6262C182.59 19.6605 182.701 19.6685 182.809 19.6494ZM196.06 11.1685C192.955 13.5142 189.788 15.72 186.119 17.0147C186.459 16.6015 186.776 16.1706 187.07 15.7237C187.651 15.2209 188.242 14.7318 188.827 14.2358C188.827 14.2358 188.873 14.239 188.896 14.2209C191.124 12.4671 193.682 11.179 196.417 10.4334C196.308 10.6869 196.188 10.9328 196.06 11.1685ZM185.679 16.957C185.588 17.0574 185.495 17.1544 185.402 17.2514L185.309 17.2844L185.679 16.957ZM184.448 18.0475C184.602 17.9313 184.734 17.794 184.877 17.6642C184.891 17.6894 184.908 17.7124 184.929 17.7324C184.819 17.8149 184.732 17.9188 184.61 18.0211L184.448 18.0475ZM185.368 17.8448C185.467 17.7699 185.537 17.6636 185.62 17.5743C189.295 16.4027 192.433 14.321 195.512 12.048C195.364 12.2556 195.205 12.4547 195.034 12.6443C192.555 15.3144 188.961 16.9975 185.364 17.8473L185.368 17.8448ZM196.604 9.99232C194.815 10.4555 193.092 11.1473 191.479 12.0504C193.267 10.6033 195.077 9.19288 196.925 7.81817C196.989 8.56099 196.876 9.30887 196.594 10.0001L196.604 9.99232ZM196.835 7.41518C193.813 9.65025 190.883 11.9926 188.019 14.4234C188.091 14.3692 188.139 14.2904 188.198 14.2192C190.48 11.4945 191.843 8.22216 194.531 5.82803C194.705 5.83025 194.88 5.84914 195.051 5.88447C195.459 5.95607 195.839 6.13703 196.151 6.40797C196.464 6.67891 196.696 7.0297 196.825 7.42293L196.835 7.41518ZM193.937 5.85909C192.07 7.64927 190.874 9.82169 189.417 11.9492C189.087 12.4346 188.735 12.8927 188.372 13.3491C189.238 11.5125 189.907 9.55115 190.617 7.69903C191.496 6.85292 192.713 6.03509 193.927 5.86684L193.937 5.85909ZM187.852 11.9226C188.438 10.7624 189.105 9.64497 189.849 8.57879L189.915 8.4964C189.204 10.6089 188.326 12.6623 187.29 14.6372C186.359 15.6583 185.368 16.6232 184.323 17.5267C185.636 15.7527 186.812 13.8818 187.842 11.9303L187.852 11.9226Z" fill="#5C0609" fill-opacity="0.6"/>
<path d="M192.853 39.7031C194.663 37.2063 193.493 33.6274 191.758 31.4657C188.172 26.989 181.804 26.3642 176.672 24.8052C175.545 23.8885 174.35 23.0578 173.099 22.32C172.374 21.8936 171.56 22.947 172.285 23.3734C173.529 24.1053 174.715 24.932 175.832 25.846C175.864 25.8753 175.898 25.9015 175.934 25.9242C177.861 27.5248 179.588 29.3508 181.079 31.3634C182.932 33.8159 184.365 36.6928 186.591 38.8367C188.381 40.5879 190.986 42.2745 192.853 39.7031ZM188.454 39.0294C186.769 35.947 184.229 33.4943 182.218 30.6262C182.202 30.6058 182.195 30.5956 182.182 30.5786L182.169 30.5615C181.997 30.3333 181.827 30.1085 181.654 29.8803C184.852 32.6922 187.811 35.6787 189.69 39.5508C189.251 39.4508 188.832 39.2743 188.454 39.0294ZM180.177 28.1601C179.766 27.7005 179.342 27.2607 178.906 26.8252C179.066 26.945 179.22 27.0639 179.382 27.1776C179.388 27.2049 179.4 27.2306 179.416 27.2529C179.433 27.2753 179.455 27.2937 179.479 27.3071L179.827 27.4831C181.688 28.7528 183.671 29.8014 185.46 31.1679C188.199 33.2655 190.184 36.1924 191.121 39.5131C190.803 39.638 190.459 39.6847 190.119 39.6496C187.893 34.921 184.107 31.4787 180.165 28.1431L180.177 28.1601ZM182.268 27.6885C185.855 30.4626 189.753 32.1993 192.321 35.9099C192.358 36.2561 192.37 36.6045 192.357 36.9525C189.487 32.3365 184.829 29.6376 180.032 27.1574L179.829 27.0165C180.642 27.2262 181.451 27.4385 182.255 27.6714L182.268 27.6885ZM192.311 37.5869C192.255 38.2449 191.951 38.8577 191.459 39.3004C190.679 36.5636 189.2 34.0782 187.168 32.087C186.614 31.5684 186.028 31.0859 185.412 30.6425C188.147 32.466 190.578 34.6047 192.298 37.5699L192.311 37.5869ZM192.02 34.5106L192.074 34.6889C189.665 31.8758 186.39 30.2189 183.317 27.9979C184.663 28.411 185.967 28.9483 187.212 29.603C189.259 30.6786 191.192 32.236 192.007 34.4935L192.02 34.5106ZM184.13 33.7033C185.433 35.1981 186.63 36.7825 187.712 38.445C186.359 37.2575 185.158 35.3983 184.117 33.6863L184.13 33.7033Z" fill="#5C0609" fill-opacity="0.6"/>
</svg>
