<svg width="243" height="226" viewBox="0 0 243 226" fill="none" xmlns="http://www.w3.org/2000/svg">
<path d="M240.759 188.539C239.978 188.884 239.783 188.979 239.293 189.196C163.583 222.63 74.7118 188.069 41.1872 112.154C29.1433 84.9818 25.4429 54.848 30.5581 25.5949C31.597 19.6515 33.1404 4.80002 33.1404 4.80002C21.7393 40.3673 23.804 78.9193 38.9412 113.113C73.0088 190.257 163.329 225.386 240.274 191.406C240.763 191.19 241.25 190.972 241.736 190.751C243.874 189.781 241.751 187.615 240.759 188.539Z" fill="#5C0609" fill-opacity="0.6"/>
<path d="M139.032 153.73C135.771 153.87 132.525 154.732 130.733 157.629C129.179 160.122 128.823 163.152 129.094 166.028C129.721 172.733 133.589 178.32 138.265 182.938C144.872 189.445 162.383 196.949 162.598 196.821C163.474 198.573 163.113 200.398 164.136 202.08C164.583 202.819 167.1 202.176 166.652 201.437C163.357 196.076 160.854 190.266 159.222 184.189C157.718 178.512 157.518 172.573 155.89 166.942C153.608 159.133 147.483 153.358 139.032 153.73ZM147.17 157.025C147.145 157.041 147.123 157.063 147.108 157.089C147.092 157.115 147.083 157.144 147.081 157.174C147.078 157.204 147.082 157.234 147.093 157.262C147.104 157.291 147.122 157.316 147.144 157.336C153.046 162.245 153.689 169.631 154.511 176.723C154.069 175.28 153.577 173.859 153.012 172.452C150.406 166.025 146.583 160.162 141.756 155.186C142.218 155.248 142.686 155.327 143.148 155.432C144.558 155.751 145.912 156.283 147.163 157.009L147.17 157.025ZM152.253 189.471C152.543 189.655 152.838 189.836 153.138 190.016C152.879 189.915 152.625 189.807 152.368 189.7C152.375 189.674 152.376 189.646 152.369 189.62C152.362 189.593 152.349 189.569 152.33 189.549L152.253 189.471ZM158.595 192.852C158.425 192.617 158.268 192.374 158.124 192.124C158.457 192.496 158.784 192.867 159.121 193.228C158.964 193.096 158.775 192.974 158.595 192.852ZM157.581 191.929C157.581 191.929 157.572 191.909 157.567 191.897L157.581 191.929ZM157.145 191.924C156.996 191.831 156.84 191.741 156.691 191.657L157.041 191.764C157.066 191.8 157.106 191.857 157.14 191.913L157.145 191.924ZM157.358 191.456L157.262 191.428C157.046 191.088 156.832 190.752 156.625 190.409C156.82 190.64 157.014 190.878 157.201 191.09C157.252 191.217 157.303 191.331 157.353 191.444L157.358 191.456ZM156.716 191.271C156.182 191.119 155.674 190.95 155.158 190.776L155.063 190.719C153.596 189.887 152.186 188.955 150.845 187.931C142.894 178.952 137.069 168.292 133.808 156.749C133.942 156.652 134.076 156.565 134.218 156.474C138.078 163.683 142.356 170.66 147.03 177.369C149.634 181.151 152.272 185.012 155.185 188.639C155.651 189.514 156.165 190.392 156.708 191.252L156.716 191.271ZM154.968 191.107C155.884 191.639 156.786 192.148 157.67 192.722C157.806 192.924 157.93 193.131 158.07 193.332C158.092 193.36 158.122 193.381 158.156 193.392C158.19 193.403 158.227 193.404 158.261 193.395C158.296 193.386 158.327 193.367 158.351 193.34C158.374 193.313 158.39 193.28 158.395 193.244C158.566 193.47 158.75 193.686 158.946 193.89C152.997 190.986 146.766 188.375 141.648 184.214C145.719 187.16 150.207 189.478 154.962 191.092L154.968 191.107ZM158.724 192.214L158.819 192.238C158.848 192.305 158.876 192.367 158.905 192.434C158.835 192.348 158.769 192.274 158.706 192.204L158.724 192.214ZM158.257 191.695C158.015 191.423 157.77 191.152 157.534 190.873C157.016 189.469 156.667 188.008 156.495 186.521C157.066 188.324 157.765 190.084 158.587 191.788L158.257 191.695ZM141.243 155.145C141.243 155.164 141.247 155.182 141.255 155.199C141.262 155.216 141.273 155.231 141.287 155.243C147.104 161.177 151.462 168.386 154.014 176.296C154.391 177.478 154.688 178.666 154.947 179.857C155.129 181.05 155.345 182.227 155.615 183.377C155.882 184.953 156.127 186.534 156.414 188.124C156.53 188.777 156.682 189.422 156.867 190.058C156.396 189.499 155.925 188.93 155.463 188.338C152.583 183.106 150.458 177.502 147.83 172.111C144.873 166.079 140.876 160.675 136.833 155.357C138.273 155.032 139.759 154.957 141.225 155.135L141.243 155.145ZM136.432 155.506C141.06 161.609 145.425 167.763 148.628 174.772C150.442 178.744 152.122 182.771 154.11 186.638C151.946 183.85 149.934 180.911 147.945 178.036C143.039 171.065 138.563 163.801 134.541 156.285C135.134 155.953 135.762 155.688 136.414 155.495L136.432 155.506ZM133.483 156.986C136.594 167.91 141.995 178.047 149.325 186.72C148.244 185.836 147.194 184.905 146.133 183.918C139.426 177.746 133.041 170.939 130.555 161.948C130.881 159.987 131.917 158.217 133.464 156.975L133.483 156.986ZM130.422 162.83C132.647 170.131 137.381 176 142.785 181.316C145.34 183.815 147.971 186.369 150.852 188.517C151.137 188.84 151.434 189.159 151.74 189.472C146.635 187.316 141.922 184.322 137.798 180.612C133.266 175.782 129.615 169.438 130.403 162.82L130.422 162.83ZM159.944 193.529C159.74 193.151 159.54 192.771 159.351 192.387C159.799 192.493 160.248 192.599 160.702 192.698C161.098 193.595 161.119 193.759 161.543 194.666C160.954 194.359 160.41 193.973 159.926 193.518L159.944 193.529ZM155.074 169.048C156.447 174.81 156.795 180.722 158.476 186.432C159.058 188.405 159.74 190.347 160.518 192.25C160.054 192.151 159.593 192.046 159.13 191.928C156.106 185.556 155.378 178.961 154.351 171.763C153.572 166.323 151.98 161.111 147.778 157.388C151.646 159.911 153.908 164.219 155.055 169.037L155.074 169.048Z" fill="#5C0609" fill-opacity="0.6"/>
<path d="M165.727 201.298C162.292 202.67 158.915 204.218 155.572 205.844C155.482 205.778 155.374 205.739 155.262 205.733C145.127 205.061 135.052 201.957 124.841 202.676C117.32 203.189 107.136 206.526 105.46 214.978C103.783 223.431 111.617 226.733 118.677 225.675C128.174 224.246 135.805 217.643 144.037 213.245C151.259 209.382 161.382 207.078 169.007 204.033C169.795 203.704 166.517 200.982 165.727 201.298ZM133.519 216.397C135.026 216.169 136.515 215.838 137.977 215.406C134.846 217.374 131.701 219.362 128.431 220.993C130.093 219.482 131.782 217.917 133.514 216.385L133.519 216.397ZM145.662 210.88C145.506 210.949 145.36 211.041 145.213 211.12C142.492 212.294 139.649 213.161 136.735 213.704C137.945 212.744 139.177 211.835 140.453 211.004C142.378 211.07 144.305 210.934 146.201 210.6L145.662 210.88ZM142.753 212.492C141.553 213.19 140.358 213.919 139.169 214.66C137.756 215.175 136.302 215.57 134.822 215.84C134.55 215.89 134.275 215.932 133.999 215.974C134.695 215.372 135.402 214.774 136.117 214.196C138.364 213.776 140.581 213.207 142.753 212.492ZM148.032 209.651C148.032 209.651 148.004 209.663 147.989 209.67C147.879 209.718 147.774 209.765 147.684 209.847L147.304 210.042C145.187 210.552 143.015 210.798 140.836 210.774C141.095 210.608 141.351 210.449 141.612 210.291C144.414 210.13 147.182 209.606 149.847 208.732L148.032 209.651ZM140.176 210.747C139.624 210.724 139.071 210.688 138.516 210.634C138.19 210.595 137.866 210.546 137.525 210.505C138.621 210.461 139.715 210.413 140.805 210.343C140.596 210.473 140.377 210.612 140.16 210.754L140.176 210.747ZM153.053 206.872C149.687 208.761 146.019 209.51 142.278 209.885C144.983 208.272 147.964 207.175 151.069 206.648C151.719 206.736 152.383 206.812 153.042 206.877L153.053 206.872ZM153.354 206.898L153.427 206.903L153.368 206.929C153.363 206.918 153.354 206.909 153.343 206.903L153.354 206.898ZM146.324 205.964C143.075 206.215 139.849 206.657 136.578 206.828C131.335 207.099 125.831 205.645 120.626 204.598C121.153 204.491 121.672 204.388 122.181 204.304C130.159 203.009 138.273 204.685 146.312 205.969L146.324 205.964ZM119.681 204.814C124.783 205.799 130.133 207.218 135.336 207.26C139.578 207.258 143.809 206.504 148.07 206.25L149.863 206.507C146.871 207.178 144.013 208.351 141.413 209.977C139.641 210.118 137.848 210.189 136.061 210.253C132.981 209.62 129.954 208.589 126.783 208.267C120.39 207.646 114.135 209.608 108.159 211.718C110.593 207.961 115.289 205.869 119.689 204.811L119.681 204.814ZM106.982 214.273C107.198 213.568 107.49 212.889 107.851 212.247C116.304 209.31 123.898 207.664 132.872 209.902C133.469 210.05 134.058 210.178 134.649 210.301C132.547 210.382 130.452 210.488 128.401 210.748C120.812 211.735 113.43 213.927 106.534 217.242C106.536 216.233 106.69 215.232 106.99 214.27L106.982 214.273ZM106.533 217.663C114.274 213.921 122.626 211.606 131.191 210.831C132.806 210.693 134.437 210.624 136.062 210.552C137.307 210.764 138.564 210.903 139.825 210.968C138.49 211.866 137.196 212.835 135.93 213.858C132.811 214.477 129.642 214.964 126.551 215.73C120.519 217.257 114.703 219.535 109.238 222.51C108.444 221.966 107.786 221.245 107.318 220.403C106.85 219.561 106.584 218.622 106.541 217.66L106.533 217.663ZM109.601 222.761C116.247 219.19 123.393 216.644 130.799 215.206C132.32 214.909 133.82 214.649 135.341 214.352C134.657 214.916 133.978 215.492 133.304 216.08C131.606 216.241 129.92 216.517 128.259 216.904C123.794 218.122 120.459 221.172 117.188 224.301C117.168 224.319 117.153 224.342 117.142 224.367C117.131 224.391 117.126 224.418 117.126 224.446C114.424 224.572 111.645 224.049 109.609 222.758L109.601 222.761ZM117.64 224.415C122.243 220.043 126.412 217.425 132.817 216.51C130.906 218.196 129.053 219.927 127.22 221.57C124.837 222.709 122.33 223.567 119.748 224.125C119.054 224.264 118.353 224.36 117.648 224.412L117.64 224.415Z" fill="#5C0609" fill-opacity="0.6"/>
<path d="M103.685 138.557C99.2339 135.549 95.1513 135.868 92.5139 140.865C88.6807 148.122 93.5547 156.316 97.1677 162.606C102.419 171.761 109.801 178.933 117.849 185.627C117.95 185.722 118.084 185.776 118.222 185.776C118.361 185.776 118.495 185.724 118.596 185.629C119.655 188.437 118.851 190.664 121.404 193.159C122.005 193.75 125.487 193.401 124.876 192.8C116.245 184.332 118.706 173.956 116.954 163.237C115.495 154.33 111.475 143.822 103.685 138.557ZM114.282 157.575C115.191 165.666 116.209 173.746 117.337 181.815C112.321 175.995 112.244 167.905 111.728 160.481C111.233 153.357 109.215 147.763 105.684 141.722C107.736 144.016 109.488 146.562 110.897 149.299C112.29 151.942 113.423 154.714 114.282 157.575ZM117.545 183.66C117.337 183.284 117.125 182.91 116.924 182.53C116.941 182.516 116.954 182.499 116.963 182.48C116.973 182.46 116.978 182.439 116.979 182.418C116.98 182.396 116.977 182.375 116.969 182.355C116.962 182.335 116.95 182.316 116.935 182.301C116.817 182.17 116.708 182.041 116.59 181.91C116.472 181.78 116.498 181.703 116.452 181.597C116.749 181.859 117.049 182.115 117.353 182.369C117.372 182.412 117.418 182.443 117.453 182.479C117.51 182.884 117.562 183.287 117.618 183.689C117.595 183.677 117.57 183.667 117.545 183.66ZM115.844 180.485C115.891 180.591 115.972 180.681 116.043 180.776C116.029 180.745 115.986 180.722 115.956 180.697C115.927 180.673 115.874 180.532 115.835 180.465L115.844 180.485ZM104.795 140.838C104.786 140.861 104.782 140.886 104.785 140.911C104.788 140.936 104.797 140.96 104.811 140.98C107.156 144.863 109.427 148.769 110.43 153.24C111.365 157.408 111.373 161.715 111.695 165.953C111.939 169.275 112.412 172.608 113.477 175.685C107.976 163.981 104.145 151.563 102.096 138.796C103.071 139.358 103.974 140.037 104.786 140.818L104.795 140.838ZM101.677 138.565C103.954 152.98 108.498 166.947 115.139 179.945C115.02 179.834 114.898 179.728 114.786 179.632C113.022 176.864 111.136 174.136 109.276 171.382C107.233 167.551 105.675 163.481 104.639 159.265C102.85 152.043 102.293 144.61 99.1562 137.782C100.031 137.887 100.882 138.145 101.668 138.545L101.677 138.565ZM98.5049 137.724C98.5661 137.725 98.6229 137.737 98.684 137.738C102.291 145.462 102.56 153.996 104.963 162.07C105.659 164.41 106.523 166.696 107.55 168.911C101.412 159.81 95.8495 150.427 95.8078 139.088C95.8066 139.057 95.7984 139.027 95.7838 139C95.7692 138.973 95.7486 138.949 95.7236 138.932C95.6985 138.914 95.6698 138.902 95.6395 138.897C95.6092 138.892 95.5781 138.894 95.5487 138.903C96.3439 138.133 97.4053 137.701 98.5119 137.697L98.5049 137.724ZM95.4671 138.972C95.4671 138.972 95.4328 139.01 95.4349 139.047C95.474 151.384 101.997 161.419 108.727 171.26C109.874 173.438 111.168 175.535 112.601 177.537C103.693 168.677 96.8422 157.96 92.5382 146.152C92.5302 146.128 92.5169 146.106 92.4992 146.088C92.4815 146.07 92.4599 146.056 92.436 146.047C92.4385 146.024 92.4389 146 92.4375 145.976C92.5913 143.831 93.5995 140.671 95.4741 138.945L95.4671 138.972ZM92.431 146.892C97.0416 159.267 104.443 170.412 114.056 179.459C114.35 179.839 114.65 180.212 114.958 180.581C115.33 181.18 115.699 181.784 116.059 182.388C108.902 176.189 102.478 169.485 97.8203 161.082C95.4747 156.849 92.4528 151.866 92.4184 146.874L92.431 146.892ZM118.046 184.075L118.015 183.878L118.09 184.112L118.046 184.075ZM116.424 172.086C115.896 168.073 115.407 164.054 114.955 160.03C115.555 162.5 115.952 165.015 116.143 167.55C116.244 169.068 116.324 170.581 116.411 172.068L116.424 172.086Z" fill="#5C0609" fill-opacity="0.6"/>
<path d="M126.474 192.445C123.459 192.567 120.465 192.997 117.539 193.729C117.444 193.608 117.31 193.525 117.16 193.494C112.179 192.396 107.372 190.615 102.875 188.201C99.7421 186.571 96.6989 185.112 93.2144 184.418C85.8423 182.943 75.1058 183.688 70.1386 190.289C65.7423 196.134 70.2792 205.403 77.0425 206.853C84.1534 208.392 91.9186 204.121 98.3524 201.654C107.321 198.227 118.389 195.824 128.12 195.528C128.988 195.495 127.323 192.412 126.474 192.445ZM106.778 191.934C106.457 191.926 106.138 191.903 105.824 191.887C103.345 191.373 100.812 191.177 98.2855 191.304C91.4482 190.495 84.7229 188.912 78.2386 186.586C81.5563 185.396 85.0839 184.903 88.6027 185.135C88.6199 185.168 88.6466 185.196 88.6793 185.214C92.4316 187.241 96.3675 188.907 100.434 190.187C103.493 191.134 106.677 191.642 109.699 192.717L110.35 192.954C110.703 193.088 111.048 193.235 111.393 193.392C111.174 193.371 110.957 193.355 110.733 193.346C109.494 192.869 108.226 192.469 106.938 192.149C106.948 192.124 106.952 192.098 106.949 192.072C106.947 192.046 106.938 192.02 106.923 191.999C106.908 191.977 106.888 191.959 106.865 191.947C106.842 191.935 106.816 191.928 106.789 191.929L106.778 191.934ZM113.185 194.945C110.368 194.738 107.527 194.486 104.686 194.332C106.623 193.871 108.612 193.668 110.603 193.726C111.534 194.063 112.448 194.446 113.341 194.876L113.185 194.945ZM113.824 194.733C113.814 194.709 113.805 194.69 113.796 194.67C113.191 194.357 112.569 194.079 111.941 193.809L112.381 193.863C112.664 194.009 112.967 194.133 113.22 194.307C113.254 194.327 113.293 194.337 113.331 194.335C113.37 194.333 113.408 194.319 113.439 194.296C113.47 194.273 113.494 194.24 113.507 194.204C113.52 194.167 113.522 194.127 113.512 194.089C113.631 194.116 113.751 194.133 113.866 194.162C113.905 194.169 113.945 194.165 113.981 194.149C114.018 194.133 114.048 194.106 114.069 194.072C114.413 194.164 114.746 194.241 115.118 194.334L113.824 194.733ZM103.621 190.071C104.514 190.528 105.41 190.951 106.317 191.356C104.81 190.978 103.289 190.629 101.783 190.199C97.529 188.955 93.411 187.282 89.4925 185.205C90.2886 185.275 91.0857 185.379 91.8837 185.516C96.2055 186.256 99.7761 188.095 103.633 190.066L103.621 190.071ZM77.8728 186.719C77.8654 186.758 77.8723 186.797 77.8923 186.831C77.9122 186.864 77.9438 186.889 77.981 186.901C83.9412 189.051 90.1073 190.575 96.3797 191.448C92.7749 191.856 89.2956 192.77 85.6258 192.524C81.4964 192.251 76.964 190.696 73.0568 189.352C73.8563 188.715 74.7205 188.164 75.635 187.708C76.3832 187.33 77.1291 187.001 77.8845 186.714L77.8728 186.719ZM72.7342 189.625C72.7342 189.625 72.7342 189.625 72.7463 189.653C78.9063 191.776 85.3092 193.529 91.8442 192.539C94.4759 192.12 97.1352 191.897 99.8004 191.871C101.462 192.04 103.13 192.15 104.808 192.228C106.414 192.466 107.998 192.839 109.542 193.343C107.559 193.43 105.593 193.744 103.683 194.279C100.423 194.085 97.1534 194.156 93.9063 194.492C85.7055 195.442 78.1236 197.105 69.8077 196.346C69.5804 193.517 70.8125 191.297 72.7459 189.62L72.7342 189.625ZM69.869 196.876C69.8482 196.829 69.8604 196.772 69.8514 196.72C77.1448 197.383 83.9396 196.441 91.1466 195.271C94.8331 194.719 98.5639 194.516 102.29 194.665C100.252 195.26 98.2306 195.956 96.2258 196.542C88.1211 198.914 79.8911 200.695 71.4476 201.233C70.6466 199.894 70.1155 198.411 69.8846 196.869L69.869 196.876ZM71.6978 201.567C78.8808 201.041 85.9915 199.795 92.9233 197.846C96.2256 196.954 99.6821 195.587 103.181 194.655C105.955 194.754 108.73 194.961 111.498 195.161C99.693 195.844 90.0472 204.47 78.3594 205.724C77.5685 205.625 76.7909 205.437 76.0409 205.166C74.2479 204.46 72.726 203.199 71.6978 201.567ZM90.122 203.361C87.0453 204.499 83.6067 205.77 80.2193 205.824C90.9552 203.947 100.117 196.34 111.119 195.562C108.136 196.552 105.2 197.661 102.345 198.721C98.2533 200.256 94.2041 201.867 90.1172 203.381L90.122 203.361Z" fill="#5C0609" fill-opacity="0.6"/>
<path d="M83.781 168.953C81.8639 168.237 80.9133 169.508 78.7966 169.46C78.732 169.396 78.6559 169.346 78.5722 169.311C67.6917 164.953 57.9009 155.042 45.5204 155.361C37.1338 155.583 27.6404 162.789 30.9625 172.151C34.5348 182.216 47.3072 180.629 54.969 177.339C63.5972 173.627 74.848 168.181 84.4108 171.764C85.2183 172.081 84.5816 169.255 83.781 168.953ZM71.3733 170.183C65.1861 169.911 59.0331 168.66 52.8623 169.387C46.4412 170.15 40.3812 172.596 34.4418 175.041C32.9415 173.475 32.0196 171.444 31.829 169.283C38.367 165.711 45.769 164.024 53.2135 164.412L53.9242 164.468C54.9549 164.836 55.9892 165.212 57.0195 165.59C62.4682 167.607 68.1239 169.007 73.881 169.764C73.0399 169.878 72.2032 170.023 71.3733 170.183ZM75.4884 169.578C68.5225 168.864 62.089 166.903 55.5654 164.623C62.4228 165.408 69.1762 167.723 75.7972 169.559L75.5036 169.581L75.4884 169.578ZM49.3762 156.948C56.7206 158.076 62.9857 162.286 69.3876 166.067C64.7707 165.302 60.3054 163.798 56.1632 161.612C52.7445 159.799 49.3996 157.921 45.7536 156.714C46.9629 156.688 48.1724 156.768 49.3683 156.952L49.3762 156.948ZM44.6286 156.766C49.0707 158.043 52.9783 160.402 57.0779 162.499C61.2972 164.656 65.4636 165.816 70.0825 166.584C70.1045 166.588 70.1273 166.588 70.1492 166.583C70.1712 166.578 70.1919 166.569 70.21 166.556C71.4718 167.299 72.7563 168.01 74.0486 168.674C67.5248 166.805 60.8423 164.651 54.0903 164.104L53.1571 163.777C47.2959 161.686 41.3404 160.057 35.1092 160.806C37.5954 158.309 41.0612 157.069 44.613 156.773L44.6286 156.766ZM33.3124 163.12C33.7092 162.448 34.1711 161.816 34.6914 161.234C40.9483 160.343 46.828 161.958 52.6529 164.009L52.0119 163.974C44.9688 163.822 38.0109 165.507 31.82 168.862C31.7433 166.846 32.2565 164.852 33.2967 163.127L33.3124 163.12ZM34.7537 175.325C40.6133 172.91 46.5986 170.506 52.9312 169.754C58.6215 169.081 64.2842 170.099 69.9618 170.474C69.3549 170.611 68.7592 170.753 68.171 170.9C63.3161 170.096 58.3473 170.349 53.6029 171.642C48.8585 172.934 44.4496 175.236 40.6764 178.39C39.8388 178.199 39.0194 177.934 38.2273 177.6C36.9335 177.068 35.7501 176.299 34.738 175.332L34.7537 175.325ZM47.3059 178.448C51.0929 176.47 55.111 174.969 59.2683 173.98C55.3177 175.729 51.3552 177.694 47.2902 178.455L47.3059 178.448ZM61.0465 173.209C55.8394 174.242 50.8228 176.07 46.1712 178.627C44.5049 178.853 42.8128 178.81 41.159 178.5C44.7649 175.538 48.9444 173.355 53.4355 172.09C57.9265 170.824 62.6321 170.502 67.2569 171.145C66.6431 171.308 66.0348 171.474 65.4457 171.64C63.9486 172.077 62.4784 172.602 61.0426 173.21L61.0465 173.209Z" fill="#5C0609" fill-opacity="0.6"/>
<path d="M71.8303 107.915C62.2133 105.985 57.572 117.151 58.6954 124.947C60.4361 137.047 68.4745 147.588 74.9568 157.543C75.0164 157.639 75.1035 157.714 75.2067 157.76C76.1511 161.04 75.5707 161.755 77.6711 164.524C78.1823 165.206 81.3139 166.781 80.8026 166.099C76.7185 160.708 74.8675 153.949 75.6357 147.233C76.3333 141.31 79.1901 135.836 80.7079 130.121C82.8045 122.092 81.9572 109.943 71.8303 107.915ZM79.099 115.572C79.2408 115.893 79.3809 116.21 79.5175 116.519C79.5175 116.519 79.5175 116.519 79.5044 116.553C79.0558 123.709 77.645 130.771 75.3102 137.545C75.5095 135.206 75.7486 132.873 76.0467 130.547C76.7208 125.331 77.6755 120.169 78.8369 115.042C78.9225 115.214 79.0099 115.391 79.0972 115.568L79.099 115.572ZM74.4175 146.292C74.3729 146.593 74.3378 146.894 74.2988 147.197C73.9027 146.3 73.4911 145.368 73.0744 144.424C73.3146 143.784 73.5592 143.176 73.7724 142.623C74.1012 141.782 74.4248 140.94 74.7434 140.098C74.6012 142.157 74.492 144.221 74.4158 146.289L74.4175 146.292ZM72.2221 147.028C72.7898 148.396 73.4262 149.735 74.1287 151.039C74.1412 151.426 74.1615 151.81 74.1757 152.202C73.5444 150.487 72.8936 148.781 72.1882 147.099L72.2221 147.028ZM72.3873 146.44C72.5433 145.927 72.7139 145.426 72.8898 144.936C73.3199 145.963 73.7804 146.953 74.2076 147.92C74.1371 148.691 74.1105 149.465 74.1107 150.237C73.4827 148.984 72.9029 147.724 72.3856 146.436L72.3873 146.44ZM74.7095 139.228C74.2594 140.428 73.5018 142.031 72.8147 143.762C70.6006 138.188 69.0807 131.798 71.0556 126.41C72.8003 121.652 76.2376 117.832 77.2705 112.795C77.7514 113.345 78.182 113.938 78.557 114.566C76.7201 122.571 75.4751 130.702 74.8323 138.893C74.7892 138.997 74.7513 139.112 74.7077 139.224L74.7095 139.228ZM76.9574 112.455C75.8224 118.572 70.7587 123.148 69.9054 129.332C69.2344 134.154 70.6721 139.523 72.6166 144.275C72.4356 144.753 72.264 145.231 72.1077 145.712C70.3691 141.186 69.451 136.387 69.3967 131.541C69.3305 124.163 71.4309 117.072 73.5512 110.09C73.5595 110.052 73.5553 110.013 73.5392 109.978C74.8258 110.575 75.9859 111.415 76.9557 112.452L76.9574 112.455ZM73.2805 109.868C73.2616 109.877 73.2447 109.89 73.2308 109.905C73.2169 109.921 73.2063 109.939 73.1997 109.959C71.0737 116.982 68.932 124.137 69.0003 131.553C69.0597 136.61 70.0532 141.615 71.9304 146.314L71.9095 146.394C71.5636 145.611 71.2177 144.828 70.8445 144.056C68.8829 140.037 66.4927 136.104 65.6045 131.662C65.4197 129.194 65.3741 126.691 65.3988 124.2C66.042 119.031 68.1024 113.984 70.0787 109.222C70.0787 109.222 70.0666 109.195 70.0596 109.179C71.1633 109.207 72.2529 109.436 73.2753 109.856L73.2805 109.868ZM69.1951 141.621C70.1107 143.43 70.9435 145.253 71.7255 147.098C71.5039 147.943 71.3786 148.812 71.352 149.687C70.4584 148.308 69.5765 146.923 68.7162 145.525C67.1683 141.811 66.1868 137.886 65.8049 133.881C66.7178 136.542 67.8482 139.123 69.1848 141.598L69.1951 141.621ZM69.6854 109.167C68.045 113.125 66.3437 117.283 65.4479 121.553C65.556 117.687 65.7915 113.877 65.9135 110.285C65.9109 110.248 65.8956 110.214 65.8703 110.187C67.0344 109.534 68.3403 109.176 69.675 109.143L69.6854 109.167ZM65.5517 110.375C65.3958 114.693 65.0967 119.331 65.0421 124.016C64.7483 126.136 64.7404 128.286 65.0186 130.41C65.0822 130.849 65.1614 131.282 65.2524 131.71C65.4929 135.749 66.2691 139.739 67.5606 143.574C66.9652 142.564 66.3894 141.545 65.8331 140.518C65.8632 140.503 65.8871 140.478 65.9007 140.447C65.9144 140.417 65.9169 140.382 65.9079 140.349C64.0002 131.454 62.1849 122.545 62.4061 113.397C62.4061 113.397 62.3905 113.362 62.3836 113.346C62.9413 112.576 63.5898 111.876 64.315 111.262C64.6951 110.933 65.0984 110.631 65.5218 110.36L65.5517 110.375ZM60.6603 127.832C59.4494 123.177 59.3955 117.866 62.0199 113.844C61.8883 122.592 63.5618 131.137 65.3837 139.659C63.3495 135.914 61.7554 131.946 60.6334 127.835L60.6603 127.832ZM71.8233 150.363C71.7935 149.511 71.8738 148.659 72.0623 147.829C72.8741 149.772 73.6351 151.739 74.3779 153.727C74.4075 153.953 74.4414 154.167 74.4823 154.397C73.5752 153.047 72.6776 151.698 71.7896 150.35L71.8233 150.363ZM74.9465 143.813C74.9441 143.374 74.9533 143.014 74.9561 142.872C75.0212 141.561 75.1093 140.25 75.2069 138.938C75.8324 137.258 76.4201 135.567 76.9256 133.837C78.4713 128.457 79.4477 122.928 79.8386 117.341C82.7248 126.086 76.9986 135.302 74.9127 143.799L74.9465 143.813Z" fill="#5C0609" fill-opacity="0.6"/>
<path d="M56.1269 139.517C53.8828 138.799 53.5642 140.297 51.3449 140.112C51.3765 140.016 51.3813 139.913 51.359 139.814C51.3367 139.715 51.2881 139.624 51.2182 139.55C45.3236 132.733 37.0811 128.399 28.0524 127.833C22.1988 127.461 9.61743 128.519 7.56392 135.547C4.87603 144.732 19.0117 146.506 24.7968 145.888C36.2079 144.663 45.8446 138.933 57.5464 142.657C58.3653 142.936 56.9358 139.763 56.1269 139.517ZM49.2843 140.011C48.6658 139.604 48.0412 139.222 47.4102 138.864L47.8195 138.945C48.2847 139.058 48.7624 139.189 49.2449 139.341C49.4562 139.566 49.6597 139.794 49.8649 140.026L49.2843 140.011ZM43.4748 140.373C42.4639 140.028 41.4822 139.634 40.5161 139.232C42.3205 138.583 44.2552 138.379 46.1568 138.636L46.2214 138.645C47.0166 139.061 47.8005 139.515 48.5696 139.999C46.8646 140.009 45.1626 140.134 43.4748 140.373ZM39.8369 138.952C38.9761 138.588 38.1206 138.235 37.2502 137.913C39.0482 137.837 40.8497 137.905 42.6374 138.117C42.2967 138.175 41.9593 138.25 41.6266 138.344C41.0275 138.519 40.4326 138.726 39.8447 138.948L39.8369 138.952ZM28.9395 129.229C33.377 129.661 37.674 131.034 41.5451 133.255C32.7074 131.674 23.3885 131.75 14.4869 131.166C15.5864 130.76 16.7183 130.438 17.7179 130.165C21.3708 129.181 25.1718 128.864 28.9395 129.229ZM11.1621 132.947C12.0143 132.292 12.9584 131.766 13.9641 131.387C13.9635 131.429 13.9794 131.469 14.0085 131.5C14.0376 131.53 14.0773 131.547 14.1191 131.548C23.4578 132.15 33.2533 132.022 42.4867 133.813C44.176 134.855 45.7671 136.049 47.2405 137.381C35.7643 130.057 21.4558 132.267 8.97484 136.333C9.28826 134.983 10.0617 133.786 11.1621 132.947ZM8.92309 136.744C21.8618 132.5 36.8275 130.182 48.5163 138.685C47.7104 138.438 46.8886 138.248 46.0569 138.114C40.48 135.269 34.2069 134.092 27.9868 134.722C21.7668 135.352 15.8628 137.763 10.9802 141.666C9.41349 140.285 8.7056 138.492 8.92309 136.744ZM11.6551 142.243C11.5125 142.143 11.3839 142.031 11.2531 141.925C15.938 138.194 21.5723 135.85 27.5212 135.157C33.4701 134.464 39.4975 135.449 44.9243 138.001C44.8367 137.993 44.7465 138 44.6606 137.996C41.9125 137.527 39.1185 137.392 36.3395 137.595C34.2814 136.844 32.0893 136.537 29.9063 136.692C24.0281 137.215 18.8947 140.418 14.0675 143.574C13.2202 143.214 12.4118 142.768 11.6551 142.243ZM14.4891 143.8C19.7955 140.333 25.6515 136.769 32.2381 137.047C33.4397 137.104 34.6297 137.313 35.7795 137.669C35.5353 137.697 35.292 137.706 35.0474 137.744C29.641 138.522 25.0549 141.432 20.8983 144.807C20.8809 144.821 20.8665 144.838 20.856 144.858C20.8456 144.878 20.8392 144.9 20.8374 144.922C18.6664 144.945 16.5097 144.558 14.4805 143.78L14.4891 143.8ZM21.3617 144.916C25.7471 141.393 30.6065 138.446 36.3502 137.978L36.6647 137.961C37.6243 138.295 38.5696 138.692 39.5028 139.104C36.4156 140.303 33.3931 142.04 30.5176 143.54C27.5242 144.336 24.4499 144.791 21.3531 144.896L21.3617 144.916ZM32.2164 143.075C34.6849 141.816 37.1776 140.57 39.7333 139.531C39.8739 139.469 40.0093 139.437 40.1377 139.39C41.0166 139.774 41.88 140.164 42.7859 140.504C40.8032 140.82 38.8399 141.247 36.9049 141.781C35.4282 142.157 33.8481 142.616 32.2078 143.055L32.2164 143.075Z" fill="#5C0609" fill-opacity="0.6"/>
<path d="M43.291 118.366C41.7121 117.084 41.1702 118.488 39.4061 117.484C39.3855 117.396 39.3486 117.312 39.2972 117.238C36.0381 112.705 32.4093 108.45 28.4481 104.517C25.8071 101.94 22.8714 99.5302 19.212 98.652C14.0604 97.4172 4.83483 99.3855 3.73425 105.665C2.50766 112.758 10.8237 114.987 16.1388 114.647C22.1712 114.262 27.7665 114.557 33.0281 116.22C34.1699 116.975 35.4602 117.475 36.8112 117.685C39.2634 118.829 41.5655 120.272 43.6651 121.982C44.3188 122.521 43.9525 118.902 43.291 118.366ZM26.0037 109.107C25.7825 108.849 25.5734 108.576 25.3582 108.311C26.6821 108.95 27.9654 109.671 29.2006 110.47L29.318 110.577C28.4385 110.287 27.5467 110.054 26.6615 109.846C26.4185 109.602 26.2107 109.343 26.0037 109.107ZM19.2444 100.046C19.3766 100.081 19.5067 100.122 19.6367 100.163C19.6326 100.192 19.6368 100.222 19.6487 100.249C19.6606 100.276 19.6798 100.299 19.7041 100.316C24.5938 103.43 28.2265 107.989 32.4512 111.87C31.9307 111.632 31.3864 111.372 30.8546 111.171C30.3901 110.838 29.9252 110.515 29.4482 110.206C27.4625 108.357 25.2939 106.714 22.9762 105.305C21.6997 103.567 20.4662 101.809 19.2444 100.046ZM22.1162 104.763C18.659 102.782 14.9285 101.326 11.0466 100.442C13.4907 99.5366 16.1444 99.3539 18.692 99.9158C19.8191 101.538 20.9479 103.164 22.1162 104.763ZM33.7572 114.902C32.8991 113.798 31.9847 112.74 31.0177 111.731C32.5541 112.868 33.9956 114.128 35.328 115.499C34.8101 115.288 34.2838 115.09 33.7572 114.902ZM27.6101 109.066C26.6863 108.538 25.7641 108.057 24.7976 107.622C24.3962 107.126 23.9971 106.623 23.6079 106.112C25.002 107.012 26.3387 107.999 27.6101 109.066ZM29.9594 111.216C31.0747 112.309 32.1252 113.467 33.1057 114.684C32.5595 114.504 32.0151 114.328 31.4775 114.167C30.6059 113.504 29.6948 112.825 28.7464 112.21C28.1483 111.585 27.585 110.954 27.0476 110.34C28.0357 110.574 29.0092 110.866 29.9633 111.214L29.9594 111.216ZM36.2256 115.894C34.9845 114.551 33.6433 113.306 32.2136 112.167C32.7029 112.419 33.1843 112.674 33.658 112.933C34.2388 113.435 34.8336 113.925 35.4449 114.39C35.9124 114.984 36.3782 115.574 36.8341 116.173L36.2256 115.894ZM30.2184 108.251C31.5786 109.715 32.8832 111.221 34.1478 112.764L33.8592 112.596C29.3474 108.72 25.6518 103.913 20.7195 100.523L20.8023 100.552C24.5831 102.106 27.5215 105.357 30.2254 108.267L30.2184 108.251ZM10.4179 100.678C14.7544 101.604 18.9073 103.25 22.7049 105.547C23.146 106.134 23.5875 106.711 24.0421 107.296C18.3066 104.844 12.0313 103.943 5.84537 104.686C5.82193 104.696 5.80635 104.703 5.78682 104.712C6.4434 103.37 7.48658 102.258 8.78177 101.517C9.31066 101.207 9.85955 100.931 10.4248 100.693L10.4179 100.678ZM5.70287 104.913C5.71202 104.956 5.73737 104.995 5.77382 105.02C5.81027 105.046 5.85506 105.057 5.8991 105.051C12.2445 104.285 18.6817 105.269 24.5171 107.896C25.0106 108.506 25.518 109.106 26.0315 109.698C19.7975 108.464 13.1491 109.261 6.82325 110.768C6.07523 110.017 5.56914 109.059 5.3706 108.018C5.17206 106.977 5.29022 105.9 5.70977 104.928L5.70287 104.913ZM29.44 113.654C26.8087 113.147 24.1301 112.933 21.4531 113.016C17.3683 113.056 12.8019 114.235 8.97992 112.333C8.31294 112.004 7.69586 111.582 7.14721 111.079C13.5164 109.586 20.209 108.825 26.462 110.187C26.8673 110.639 27.2804 111.089 27.6965 111.513C26.6078 110.832 25.4229 110.318 24.1819 109.991C20.9136 109.216 17.2972 111.426 14.6444 113.028C14.4378 113.152 14.5948 113.518 14.7983 113.376C18.268 111.278 21.9196 109.296 25.9258 111.181C27.0991 111.75 28.228 112.405 29.3032 113.143C29.5171 113.353 29.7407 113.563 29.9693 113.785C29.8002 113.762 29.6307 113.705 29.4469 113.67L29.44 113.654Z" fill="#5C0609" fill-opacity="0.6"/>
<path d="M56.8854 77.4338C54.0435 75.881 50.7065 76.1239 47.9336 77.6759C43.9708 79.8939 42.2805 83.5277 41.25 87.778C38.5879 98.6592 43.8427 109.142 47.2904 119.211C47.2998 119.238 47.3113 119.264 47.325 119.289C46.8969 121.575 45.7786 121.484 45.3964 123.768C45.2556 124.611 47.3004 127.139 47.4486 126.301C49.4805 114.13 51.9906 102.694 58.7303 92.2115C61.9081 87.2751 63.0848 80.7983 56.8854 77.4338ZM48.1386 79.0595C45.7741 85.1296 46.1342 91.7468 46.0694 98.163C46.0302 101.826 45.3642 106.458 46.2144 110.402C46.2602 111.336 46.3597 112.267 46.5124 113.19C46.359 112.79 46.216 112.413 46.0699 112.019C45.2558 108.326 45.364 104.376 44.8821 100.653C44.3169 96.2977 43.4763 91.9846 42.6317 87.6732C43.4912 84.2191 45.1242 80.9102 48.142 79.0674L48.1386 79.0595ZM42.4059 88.5779C43.281 93.0536 44.1326 97.5396 44.6611 102.065C44.9749 104.763 45.0141 107.525 45.3682 110.176C43.087 103.954 41.1398 97.5369 41.9862 91.0094C42.0905 90.2099 42.23 89.3949 42.4059 88.5779ZM47.2435 115.184C47.0462 114.209 46.8797 113.229 46.7648 112.251C46.8201 112.376 46.8772 112.505 46.9377 112.642C46.9599 113.432 47.1833 114.203 47.5865 114.883C47.6107 114.937 47.6332 114.988 47.6557 115.039C47.6685 115.07 47.6903 115.096 47.7181 115.113C47.746 115.131 47.7786 115.14 47.8116 115.139C47.8437 115.176 47.8778 115.211 47.9138 115.243C47.9508 115.475 47.9917 115.705 48.0309 115.931C47.9741 116.204 47.9135 116.479 47.8585 116.756C47.6324 116.234 47.4388 115.711 47.2435 115.184ZM48.1968 114.796L48.1881 114.776C48.1898 114.783 48.1928 114.79 48.1968 114.796ZM48.0384 113.93C47.8844 112.968 47.7392 111.984 47.6061 110.985C47.7583 110.205 47.9894 109.443 48.2957 108.711C48.5245 109.499 48.7953 110.274 49.107 111.034C48.8274 112.134 48.5672 113.239 48.3266 114.35C48.2309 114.228 48.1362 114.088 48.0436 113.941L48.0384 113.93ZM48.5342 108.151C49.321 106.509 50.2716 104.951 51.3715 103.501C50.5583 105.76 49.8674 108.063 49.2787 110.387C48.9928 109.659 48.746 108.917 48.5394 108.163L48.5342 108.151ZM52.43 100.74C52.2233 101.234 52.047 101.733 51.8555 102.23C50.5229 103.897 49.3606 105.694 48.3862 107.594C48.1022 106.448 47.9113 105.28 47.8151 104.103C47.9634 103.794 48.1303 103.496 48.3094 103.183C50.1406 100.132 52.6487 97.4523 55.3399 95.0706C54.2313 96.8889 53.2604 98.7881 52.4352 100.752L52.43 100.74ZM48.1357 108.126C47.8727 108.709 47.6516 109.31 47.474 109.925C47.4398 109.636 47.4054 109.347 47.3664 109.037C47.2946 107.3 47.2806 105.799 47.2969 105.614C47.3132 105.429 47.325 105.381 47.336 105.269C47.347 105.156 47.4422 104.96 47.5027 104.812C47.6311 105.935 47.8444 107.047 48.1409 108.138L48.1357 108.126ZM46.8496 107.655C46.8462 108.218 46.8502 108.787 46.8755 109.352C46.9007 109.916 46.8615 110.631 46.8414 111.388C46.7568 111.112 46.6761 110.834 46.6088 110.555C46.5554 109.467 46.6198 108.376 46.8011 107.302C46.83 107.42 46.8432 107.546 46.8548 107.667L46.8496 107.655ZM57.6542 91.4233C57.0996 92.2812 56.5486 93.147 56.0027 94.0245C52.8458 96.6727 49.6978 99.8271 47.7674 103.403C47.7568 103.221 47.754 103.035 47.7491 102.854C48.2637 100.726 49.0939 98.6872 50.2119 96.8063C52.904 92.1967 56.4823 88.0193 60.026 84.049C60.1876 83.8653 59.8805 83.6453 59.721 83.8233C55.1962 88.8586 49.8537 94.6107 47.7605 101.221C48.1276 93.4496 52.4452 86.18 57.9548 80.2887C58.1198 80.1129 57.8092 79.885 57.6515 80.067C51.7202 86.43 47.2001 94.3085 47.3577 102.718C47.2007 103.429 47.0803 104.148 46.9969 104.871C46.4084 95.0839 47.7808 84.791 54.7717 78.3438C54.9514 78.1801 54.7198 77.8987 54.5349 78.0506C47.1922 84.8216 45.947 95.7088 46.6885 105.906C46.4492 106.747 46.2973 107.611 46.2353 108.483C45.6931 104.085 46.4165 99.044 46.4514 95.3503C46.5047 89.7113 46.4408 84.1239 48.5991 78.8234C48.5991 78.8234 48.587 78.796 48.58 78.7804C49.0194 78.5441 49.4764 78.3423 49.9469 78.1767C51.6545 77.5543 53.5283 77.5588 55.2354 78.1895C56.9425 78.8201 58.3725 80.036 59.2713 81.6213C61.2621 85.2205 59.6455 88.3445 57.6594 91.4351L57.6542 91.4233Z" fill="#5C0609" fill-opacity="0.6"/>
<path d="M33.0457 94.3306C28.2409 87.8044 22.6895 81.7437 17.1961 75.7931C13.3266 71.5962 5.16654 65.6627 1.03996 73.1006C-2.35717 79.2523 3.16497 85.7331 9.00167 87.3672C15.1678 89.1133 22.0884 88.1395 28.0946 90.4429C28.175 90.4712 28.26 90.4845 28.3452 90.4819C29.6007 92.0146 32.3355 97.087 33.5098 98.6789C34.0341 99.3693 33.5508 95.02 33.0457 94.3306ZM20.5004 81.4048C21.8756 82.9548 23.2699 84.5058 24.6291 86.0722C23.9967 85.6837 23.3037 85.4044 22.5793 85.2459C22.4056 85.0746 22.232 84.9033 22.0545 84.7337C20.5195 82.7743 18.8124 80.9565 16.9537 79.3022C15.6122 77.4799 14.3741 75.5746 13.1382 73.6636C13.6328 74.0394 14.1037 74.4457 14.5481 74.88C16.616 76.9524 18.5371 79.2207 20.5004 81.4048ZM24.7653 88.1881L24.4601 88.131C24.3779 88.0082 24.2978 87.8798 24.2208 87.7687C24.2381 87.7429 24.2479 87.7128 24.249 87.6817C24.2501 87.6506 24.2425 87.6198 24.2271 87.5928C24.2548 87.6174 24.2837 87.6405 24.3137 87.6622C24.4493 87.8316 24.5995 88.0133 24.7536 88.1933L24.7653 88.1881ZM9.45476 85.8568C12.0387 84.7859 15.5381 83.4839 18.3374 84.4753C18.8463 84.6625 19.3384 84.8929 19.8083 85.1641C18.1379 85.413 16.5532 86.0631 15.1893 87.0587C13.2505 86.804 11.3334 86.4023 9.45476 85.8568ZM21.0512 85.4528C21.2991 85.4575 21.5466 85.4748 21.7927 85.5044C21.9998 85.6984 22.2046 85.8981 22.4177 86.0847C22.7157 86.4211 22.9923 86.7201 23.2716 87.046C23.3915 87.2224 23.5188 87.4049 23.6317 87.5656C22.8584 86.8578 22.0453 86.1951 21.1964 85.5806C21.1413 85.53 21.0954 85.4895 21.0478 85.445L21.0512 85.4528ZM19.4953 82.5319C19.129 82.104 18.7688 81.6688 18.4107 81.2279C19.0188 81.8298 19.6043 82.451 20.1671 83.0916C19.9449 82.8949 19.7292 82.7234 19.4919 82.5241L19.4953 82.5319ZM12.3153 73.1003C13.4322 74.858 14.5631 76.6049 15.7555 78.3011C12.3105 75.4805 8.43794 73.2299 4.28493 71.6348C6.5807 70.4291 9.75383 71.4004 12.3119 73.0926L12.3153 73.1003ZM3.87001 71.8788C8.57052 73.6472 12.9111 76.2596 16.6783 79.5876C17.1618 80.2492 17.6649 80.9021 18.1801 81.5404C13.3118 78.0605 7.66438 75.8353 1.73809 75.0619C2.05351 73.7812 2.80649 72.6523 3.86655 71.871L3.87001 71.8788ZM1.60127 75.5341L1.63303 75.4265C7.32691 76.164 12.7647 78.2554 17.4922 81.5259C16.7069 81.0623 15.8876 80.6591 15.0415 80.3198C10.7639 78.6336 5.85248 78.3972 1.32708 77.7985C1.3247 77.0327 1.41564 76.2696 1.59781 75.5263L1.60127 75.5341ZM1.32784 78.1912C5.47342 78.733 9.88569 79.0121 13.8568 80.3002C16.3011 81.1258 18.5514 82.4447 20.4684 84.1753C20.7599 84.4865 21.0591 84.7942 21.3449 85.1032C21.099 85.0902 20.8527 85.0897 20.6068 85.1016C18.8277 83.641 16.8466 82.41 14.692 81.864C11.0821 80.9499 6.70985 81.9027 3.08547 82.3614C2.0243 81.2188 1.40521 79.7344 1.34003 78.1765L1.32784 78.1912ZM3.43932 82.6872C6.82168 82.2511 10.734 81.5248 14.0533 82.1508C15.7716 82.5184 17.3976 83.2335 18.8316 84.2523C18.4605 84.099 18.0773 83.9771 17.6859 83.8878C14.9447 83.2921 11.7464 84.4938 9.25572 85.5329C9.23294 85.5409 9.21218 85.5536 9.19486 85.5704C9.17752 85.5872 9.16406 85.6076 9.15536 85.6301C9.14667 85.6527 9.14297 85.6768 9.14452 85.7009C9.14607 85.725 9.15281 85.7486 9.16431 85.7698C6.97044 85.0821 4.88975 84.101 3.43586 82.6793L3.43932 82.6872ZM15.7499 87.1341C17.1143 86.2054 18.6901 85.6349 20.3331 85.4751C20.5428 85.6118 20.7599 85.7546 20.9795 85.8822C21.7402 86.5478 22.4691 87.2367 23.1442 87.9306C20.7993 87.609 18.4027 87.4554 16.1553 87.175L15.7499 87.1341ZM26.0981 88.4793C25.5701 88.1291 25.0549 87.7623 24.5527 87.3788C24.0829 86.8329 23.6087 86.2982 23.0951 85.7903C24.4686 86.2454 25.6466 87.1567 26.4339 88.3731C26.4542 88.406 26.4864 88.4297 26.5237 88.4394C26.561 88.4491 26.6006 88.4439 26.6341 88.4251L26.8372 88.663C26.5884 88.5857 26.3404 88.5314 26.0946 88.4715L26.0981 88.4793Z" fill="#5C0609" fill-opacity="0.6"/>
<path d="M45.4812 48.9356C38.5468 49.8359 34.8996 57.8202 33.8402 63.7913C31.857 74.8781 30.0547 77.106 29.9832 81.7844C29.9703 82.6325 32.0509 85.9487 32.0669 85.076C32.1484 82.358 32.3684 79.6462 32.7259 76.9512C32.8397 76.9041 32.9357 76.8223 33.0007 76.7175C37.8049 69.0599 48.5399 67.5716 52.6176 59.4206C55.3642 53.9305 51.8594 48.1078 45.4812 48.9356ZM44.6044 60.8581C43.3884 61.6013 42.2252 62.4277 41.123 63.3314C40.2482 64.0454 39.4349 64.7929 38.6042 65.5856C38.851 64.6437 39.0678 63.6869 39.2374 62.7182L39.3679 62.4219C41.6499 57.3382 44.3596 51.5321 50.7037 51.2715C51.0216 51.551 51.297 51.8756 51.5211 52.2349C48.0343 53.9244 46.7292 57.5004 44.7335 60.6326L44.6044 60.8581ZM34.9647 72.2983L35.0757 72.0528C35.5318 71.6767 35.9682 71.3014 36.3847 70.9272C36.3508 70.9983 36.3282 71.0738 36.2982 71.1432C35.841 71.5136 35.3985 71.8962 34.9647 72.2983ZM33.5171 71.6835C34.0349 71.0805 34.5566 70.4757 35.0856 69.8771C34.4902 71.1602 33.8362 72.427 33.1817 73.7034C33.2859 73.0304 33.3977 72.3571 33.5171 71.6835ZM33.5898 73.7291C34.2398 72.5061 34.9055 71.2763 35.497 69.9949L34.1666 73.0907C33.9694 73.2994 33.7796 73.5143 33.5898 73.7291ZM35.4407 71.2412L36.9871 67.7785C37.2346 67.5148 37.4783 67.2527 37.728 66.9833C37.4394 68.0414 37.0977 69.0842 36.7042 70.1076C36.2938 70.4994 35.8709 70.8733 35.4407 71.2412ZM37.4351 66.7851L38.2207 65.0343C38.1247 65.4511 38.0344 65.87 37.9289 66.2863L37.4351 66.7851ZM38.4276 66.2954C39.9585 64.7412 41.6299 63.3326 43.4206 62.0875C43.6259 61.9501 43.8347 61.8204 44.0452 61.6947C42.1081 64.5339 39.8697 67.1542 37.369 69.5098C37.7702 68.4528 38.1231 67.3814 38.4276 66.2954ZM50.2527 50.9372C45.7915 51.2975 42.8949 54.514 40.8484 58.366C40.3888 59.2381 39.9457 60.1264 39.5099 61.0208C40.0105 57.4725 40.404 53.7983 43.058 51.3534C45.4409 50.1654 48.3094 49.6755 50.2527 50.9372ZM41.9686 51.9936C40.6697 53.5968 39.9857 55.5882 39.582 57.76C39.267 59.4668 38.9941 61.1316 38.6839 62.7754C37.9019 64.4498 37.1532 66.1468 36.4197 67.8465C36.7414 67.0143 37.0019 66.1595 37.1991 65.2889C37.9862 61.7872 37.7435 58.2256 39.0335 54.8481C39.279 54.5058 39.5323 54.1599 39.8072 53.8419C40.4311 53.1208 41.1597 52.4978 41.9686 51.9936ZM38.226 56.0845C37.5614 58.4792 37.4557 60.9452 37.117 63.4439C36.8433 65.2788 36.3261 67.0684 35.5793 68.7652C34.9239 69.4898 34.2815 70.2228 33.6448 70.9579L33.8003 70.0843C34.668 65.3912 35.692 60.2594 38.226 56.0845ZM41.4142 67.6158C42.3746 66.2219 43.4918 64.9434 44.744 63.8055C46.3626 62.3981 48.2715 61.5317 50.2462 60.772C49.0459 62.1928 47.6689 63.4536 46.1485 64.5236C44.6014 65.628 42.9963 66.6223 41.4142 67.6158ZM50.6745 60.1991C46.1763 61.9235 43.3854 64.354 40.6065 68.1222C39.3312 68.9334 38.0664 69.768 36.896 70.6686C36.9429 70.5637 36.9843 70.4565 37.0256 70.3493C39.1733 68.405 41.138 66.267 42.895 63.9622C43.5005 63.1424 44.0582 62.2883 44.5655 61.4041C47.0271 60.0877 50.0509 59.3046 52.0938 57.4946C51.7665 58.4659 51.2875 59.3787 50.6745 60.1991ZM52.2871 54.3393C52.444 55.148 52.435 55.9799 52.2608 56.7844C50.5762 58.5391 48.0339 59.0067 45.9386 60.0958C45.6209 60.2641 45.3123 60.4425 45.0038 60.6209C46.8143 57.4816 48.6417 54.0633 51.6937 52.5939C51.9824 53.1395 52.189 53.7248 52.3067 54.3307L52.2871 54.3393Z" fill="#5C0609" fill-opacity="0.6"/>
<path d="M47.4114 27.446C42.9563 24.2377 38.164 28.8576 35.814 32.3288C32.1755 37.7121 30.6452 43.6525 29.3889 49.9492C29.3683 50.0565 29.377 50.1675 29.4141 50.2704C28.2023 51.8912 27.2448 53.7179 27.1011 55.7281C27.0423 56.5777 28.3046 59.2351 28.3617 58.3816C28.6389 54.5389 32.1363 48.8997 34.7399 46.5099C37.9171 43.5906 41.5548 41.577 44.9743 39.0374C48.301 36.5622 51.9834 30.729 47.4114 27.446ZM45.1898 37.2108L44.5038 37.7711C42.3939 38.8054 40.3399 39.9499 38.3501 41.1999C39.1238 40.2358 39.8975 39.2718 40.6577 38.309L41.3207 37.4219C43.3344 36.1713 45.4444 35.0831 47.6307 34.1674C47.6452 34.1612 47.6584 34.1522 47.6695 34.1409C47.6805 34.1296 47.6892 34.1162 47.695 34.1015C47.0861 35.301 46.2313 36.3578 45.1863 37.2029L45.1898 37.2108ZM32.9285 46.4347L32.9112 46.3955C33.1895 45.8842 33.4716 45.3712 33.7386 44.8556C34.6216 44.1848 35.5221 43.536 36.44 42.9091C35.9348 43.53 35.4205 44.1409 34.9196 44.7505C34.254 45.2722 33.5956 45.8281 32.9446 46.4182L32.9285 46.4347ZM31.6651 45.5606C31.6934 45.5551 31.7202 45.5433 31.7433 45.5261C32.0543 45.1735 32.3739 44.8405 32.7135 44.4893C32.6937 44.6665 32.6813 44.8498 32.6616 45.027L32.4716 45.3682C32.156 45.6153 31.8478 45.8684 31.5356 46.1233L31.6651 45.5606ZM45.9043 28.1865C43.3157 29.3901 40.9178 30.9677 38.7874 32.8689C39.9228 30.5892 41.5238 28.7404 44.5342 27.9164C45.0066 27.9268 45.4745 28.0124 45.9203 28.17L45.9043 28.1865ZM46.3589 28.4022C47.0474 28.7876 47.5729 29.4104 47.8374 30.1545C43.1245 31.6041 39.2923 35.2805 36.2053 39.503C36.3877 39.0388 36.5813 38.5789 36.7545 38.1047C37.3091 36.5916 37.796 35.0944 38.3998 33.7139C40.7443 31.5063 43.4371 29.7021 46.3697 28.374L46.3589 28.4022ZM34.6158 41.8008L34.1912 42.4562C33.8612 42.7658 33.5551 43.0554 33.2481 43.3641C33.6506 40.7248 34.4533 38.199 36.2109 36.0283C36.5741 35.5825 36.9715 35.1402 37.3897 34.7029C36.4255 37.0426 35.5679 39.4336 34.6319 41.7843L34.6158 41.8008ZM33.2505 44.7435L33.5852 44.1698L33.3399 44.6713L33.2505 44.7435ZM33.4162 43.7344L33.1553 44.2006C33.1624 44.132 33.175 44.0655 33.186 43.9952C33.2633 43.8955 33.3424 43.7998 33.4305 43.714L33.4162 43.7344ZM31.4008 46.7162L31.9851 46.2429C31.7047 46.7598 31.4303 47.2694 31.1716 47.7721L31.4008 46.7162ZM32.5844 45.9408L32.5614 46.2692C32.4419 46.4951 32.328 46.7233 32.2045 46.9509C32.1892 46.9775 32.1806 47.0074 32.1795 47.0381C32.1784 47.0688 32.1848 47.0992 32.1982 47.1269C32.008 47.3091 31.8251 47.4975 31.6423 47.6859C31.9554 47.0984 32.2742 46.5099 32.5988 45.9205L32.5844 45.9408ZM37.6003 42.1441C39.3222 41.0233 41.0904 39.9757 42.9157 39.0152C40.7361 40.6423 38.4764 42.0988 36.2976 43.7068C36.7493 43.1657 37.1885 42.6488 37.6146 42.1237L37.6003 42.1441ZM37.2276 41.9343C36.178 42.6224 35.1474 43.3427 34.1356 44.0953C34.4566 43.4482 34.7719 42.7988 35.0742 42.1412C36.6802 40.6781 38.3948 39.339 40.203 38.1354C39.2286 39.3847 38.2398 40.6543 37.2419 41.9139L37.2276 41.9343ZM35.4395 41.32L35.5313 41.1157C38.7513 36.3805 42.8541 32.0698 47.964 30.5151C48.0124 30.6248 48.0192 30.7669 48.0437 30.8964C45.8199 31.5462 44.2415 32.992 42.7397 34.886C42.1419 35.646 41.5476 36.4138 40.9533 37.1817C39.0161 38.4067 37.1785 39.7831 35.4578 41.2979L35.4395 41.32ZM35.3499 35.5475C36.7397 33.104 38.4435 30.2832 40.9109 28.8426C41.5843 28.4537 42.3169 28.1776 43.0795 28.0253C40.9747 28.8769 39.2769 30.5041 38.3346 32.5728C38.1432 32.9849 37.9614 33.3975 37.7796 33.81C37.1231 34.4459 36.4995 35.1149 35.9112 35.8144C33.9721 38.1448 33.1776 40.9431 32.7972 43.844C32.4793 44.1809 32.1631 44.5218 31.8504 44.8705C32.5899 41.609 33.7722 38.4653 35.3642 35.5271L35.3499 35.5475ZM48.1531 32.1163C48.1315 32.7626 47.9822 33.398 47.7138 33.9856C47.7187 33.9532 47.7147 33.92 47.7024 33.8895C47.6901 33.8591 47.67 33.8325 47.644 33.8125C47.618 33.7924 47.5871 33.7797 47.5546 33.7757C47.5221 33.7716 47.4891 33.7763 47.4591 33.7893C45.5364 34.6027 43.6734 35.5505 41.8838 36.6257C43.5722 34.3405 45.3377 32.1242 48.1156 31.2812C48.1481 31.5516 48.1654 31.8236 48.1674 32.096L48.1531 32.1163Z" fill="#5C0609" fill-opacity="0.6"/>
<path d="M22.7482 58.268C21.1789 55.0208 19.7917 51.1503 17.4381 48.3571C15.2884 45.8247 9.23069 41.8407 6.07711 44.9508C2.6473 48.3654 5.37321 55.1403 8.88991 57.3123C13.5666 60.1981 19.3904 60.7991 23.9745 64.0674C23.9745 64.0674 24.014 64.0827 24.0326 64.0932C24.9246 66.0391 25.8114 68.0154 26.6421 70.0024C26.988 70.7855 28.3348 68.7308 27.9968 67.9441C26.4234 64.1699 24.5412 61.9687 22.7482 58.268ZM22.2761 61.331C21.7852 60.9239 21.297 60.4984 20.8116 60.0544C20.573 59.514 20.3343 58.9736 20.0957 58.4332C20.5977 58.7608 21.0723 59.1287 21.5149 59.5333C21.7896 60.1202 22.0434 60.7194 22.2761 61.331ZM21.2315 60.9313L21.1943 60.9103L21.1839 60.8868C21.1839 60.8868 21.2168 60.9191 21.2315 60.9313ZM20.6053 57.8011C20.7753 58.091 20.9297 58.3879 21.0841 58.6847C20.6758 58.3658 20.2474 58.0735 19.8016 57.8097C19.5682 57.281 19.3347 56.7524 19.0748 56.2588C19.622 56.7346 20.1336 57.2501 20.6053 57.8011ZM18.6787 55.4463C18.4443 54.9789 18.2042 54.5094 17.9598 54.0511C18.5598 54.755 19.1204 55.4916 19.639 56.2577C19.326 55.9716 19.0059 55.7012 18.6787 55.4463ZM19.2427 57.495C18.5654 57.1351 17.8661 56.8188 17.1489 56.5478C15.8929 55.3101 14.6309 54.0798 13.3219 52.9124C15.1374 53.5815 16.8431 54.5192 18.3821 55.6943C18.6758 56.2853 18.9651 56.8875 19.2427 57.495ZM19.4986 58.0745C19.6958 58.521 19.8929 58.9674 20.0901 59.4138C19.3104 58.7052 18.5703 57.9698 17.8206 57.2339C18.4058 57.474 18.9753 57.7507 19.5259 58.0625L19.4986 58.0745ZM14.1681 47.1665C16.8941 49.112 18.205 52.0803 19.6525 54.9883C20.0949 55.8739 20.5295 56.7629 20.9641 57.652C20.9571 57.6317 20.9485 57.612 20.9382 57.5932C19.8875 55.7612 18.6065 54.0716 17.1266 52.5659C15.4911 49.8346 13.487 47.3784 10.7162 45.5321C11.9616 45.8518 13.1356 46.4052 14.1759 47.163L14.1681 47.1665ZM9.96652 45.4093C9.96202 45.4377 9.96583 45.4669 9.97749 45.4933C9.98915 45.5197 10.0082 45.5422 10.0322 45.5581C12.4143 47.0878 14.4385 49.1154 15.9658 51.5015C13.3559 49.1608 10.2849 47.3951 6.95215 46.3192C7.34994 45.9421 7.83014 45.6631 8.35475 45.5045C8.87935 45.346 9.43391 45.3122 9.97434 45.4058L9.96652 45.4093ZM6.27603 47.2823C6.39519 47.05 6.53741 46.8304 6.70059 46.6268C10.5294 47.8373 14.0057 49.9687 16.8253 52.8347C17.235 53.5194 17.6209 54.2241 17.9929 54.9396C16.3163 53.7865 14.484 52.8795 12.5518 52.2463C10.6127 50.5363 8.44806 49.1018 6.11897 47.9835C6.08301 47.9682 6.0425 47.9676 6.00617 47.9818C6.07566 47.739 6.16864 47.5035 6.2838 47.2789L6.27603 47.2823ZM5.93292 48.2809C5.9433 48.3044 5.95193 48.324 5.98574 48.3371C8.00608 49.295 9.89893 50.5029 11.6198 51.9326C9.76718 51.3891 7.87519 50.9917 5.9612 50.7439C5.77517 49.9327 5.76819 49.0909 5.94074 48.2774L5.93292 48.2809ZM6.07209 51.1536C8.21272 51.4347 10.3234 51.9124 12.3774 52.5807C13.7345 53.741 15.0304 54.9844 16.3275 56.2413C13.5828 55.3101 10.6007 54.7926 8.00175 54.1387C7.96872 54.1303 7.93418 54.1304 7.9012 54.1388C7.86822 54.1472 7.83783 54.1637 7.81284 54.1868C7.78785 54.2099 7.76901 54.2389 7.75803 54.2712C7.74704 54.3034 7.74424 54.3379 7.7499 54.3716C6.99306 53.4141 6.42617 52.3206 6.07991 51.1501L6.07209 51.1536ZM14.4129 58.0882C12.9778 57.5334 11.3378 57.1064 9.98316 56.385C9.14218 55.899 8.40549 55.2509 7.81569 54.4782L7.82779 54.5056C10.6478 55.2164 13.979 55.7529 16.9212 56.8776C18.0892 58.0324 19.2612 59.1855 20.4718 60.2888L20.6447 60.6804C18.6295 59.6891 16.4948 58.8816 14.4051 58.0917L14.4129 58.0882ZM22.8596 61.8175C22.714 61.4138 22.5606 61.0136 22.3955 60.6185C22.584 61.0454 22.8016 61.4641 23.0018 61.8857L22.8596 61.8175Z" fill="#5C0609" fill-opacity="0.6"/>
<path d="M25.5531 42.0452C25.2364 36.7098 23.0399 31.3343 20.3027 26.8058C18.5841 23.9709 15.3745 19.1549 11.5302 19.0837C6.31929 18.9936 6.52318 25.5954 8.6414 28.6377C10.6614 31.5315 13.9703 33.4021 16.7503 35.4595C18.7717 36.8935 20.6528 38.5167 22.368 40.307C22.4303 40.448 22.4652 40.6011 22.5062 40.7468C22.5472 40.8924 22.7085 40.8773 22.7988 40.786C24.1017 42.2884 24.8902 46.6947 25.675 48.6411C25.9936 49.4364 27.5176 46.1661 27.2008 45.3748C26.7513 44.262 26.1919 43.1969 25.5308 42.1954C25.544 42.1464 25.5515 42.096 25.5531 42.0452ZM10.2731 21.1831C15.0928 25.5989 18.8487 31.0536 21.2561 37.1339C19.1521 34.4655 16.7099 32.083 13.9914 30.0469C12.1536 27.5221 10.5701 24.8214 9.26415 21.9843C9.53818 21.6623 9.8744 21.3993 10.2527 21.2108L10.2731 21.1831ZM22.1835 38.1985L22.0025 38.021C21.8953 37.7782 21.8154 37.5234 21.7177 37.281C21.8708 37.6065 22.0248 37.9129 22.1787 38.2193L22.1835 38.1985ZM10.6498 21.0214C11.1425 20.8565 11.6645 20.7966 12.1821 20.8455C13.4943 22.8586 14.764 24.8919 15.9914 26.9455C14.3888 24.8219 12.5994 22.8462 10.6449 21.0423L10.6498 21.0214ZM20.1712 36.4103C19.6346 35.9703 19.0863 35.5355 18.5263 35.1058C18.3638 34.981 18.1953 34.8635 18.0272 34.7365C17.1525 33.8125 16.2526 32.895 15.4364 31.903C15.2555 31.6834 15.0823 31.4603 14.907 31.243C16.8208 32.8008 18.582 34.5381 20.1663 36.4312L20.1712 36.4103ZM23.8465 39.9349C23.8651 39.9117 23.8769 39.8836 23.8803 39.8539C23.8837 39.8243 23.8787 39.7942 23.8658 39.7673C21.1354 34.0284 18.4038 28.2902 15.6708 22.5525C17.218 23.9423 18.5054 25.9803 19.5397 27.9102C20.731 31.5479 22.1285 35.1149 23.7256 38.5938C23.8337 39.1029 23.9267 39.6094 24.008 40.121C23.9555 40.0974 23.9049 40.0355 23.8486 39.9714L23.8465 39.9349ZM23.1855 36.4831C22.3157 34.4712 21.5103 32.4325 20.7692 30.3669C20.873 30.6018 20.9716 30.825 21.0667 31.0404C21.9105 32.817 22.6218 34.6537 23.1945 36.5352L23.1855 36.4831ZM14.9774 21.9649L23.1615 39.1658L23.0121 39.0072C19.9167 32.7699 16.4643 26.7165 12.6722 20.8771C12.9948 20.9418 13.3105 21.0374 13.615 21.1627C14.1048 21.391 14.5653 21.6779 14.9864 22.0171L14.9774 21.9649ZM8.47718 25.032C8.2965 24.082 8.479 23.0993 8.98837 22.2792C10.1231 24.7232 11.4612 27.0674 12.9885 29.2871C11.7667 28.4227 10.4629 27.5946 9.08884 26.7975C8.80044 26.261 8.59716 25.683 8.48625 25.0841L8.47718 25.032ZM12.2155 30.4006C11.1593 29.5586 10.2309 28.5671 9.45961 27.4574C10.9209 28.3157 12.3339 29.2539 13.6923 30.2678C13.8776 30.5183 14.0628 30.7687 14.252 31.0174C14.9447 31.9095 15.6894 32.7506 16.4524 33.5695C15.023 32.605 13.5712 31.5895 12.2245 30.4528L12.2155 30.4006Z" fill="#5C0609" fill-opacity="0.6"/>
<path d="M28.6341 17.9088C29.1391 13.2822 26.5687 -4.42756 18.0977 1.03541C14.8267 3.13976 16.5075 7.03036 18.4536 9.37648C21.922 13.5633 28.5948 17.154 28.7993 23.2923C28.8263 24.1461 30.1324 23.9437 30.1145 23.0999C30.0129 21.3654 29.47 19.6848 28.5374 18.2182C28.5947 18.1247 28.6279 18.0184 28.6341 17.9088ZM23.4148 3.0675C24.9867 6.6271 26.4082 10.2157 26.8279 14.083C26.5035 13.6577 26.1568 13.2501 25.7892 12.8617C25.4327 12.1814 25.092 11.4943 24.7434 10.8106C24.7434 10.8106 24.7569 10.7672 24.7447 10.7397C23.548 8.16922 22.8802 5.3845 22.781 2.55185C23.0029 2.71595 23.2147 2.88913 23.4148 3.0675ZM26.6708 14.4986C26.7478 14.6097 26.8209 14.7224 26.894 14.8352L26.9048 14.9335L26.6708 14.4986ZM27.4502 15.9467C27.3724 15.7705 27.269 15.6103 27.1755 15.4409C27.2032 15.4335 27.2295 15.4218 27.2537 15.4064C27.309 15.5318 27.3899 15.6411 27.4617 15.7825L27.4502 15.9467ZM27.4637 15.0048C27.4135 14.8913 27.326 14.7989 27.2581 14.6979C26.9598 10.8519 25.6523 7.32057 24.1454 3.80246C24.3136 3.99392 24.4709 4.19475 24.6164 4.40402C26.6475 7.42861 27.4622 11.3132 27.4654 15.0088L27.4637 15.0048ZM22.3946 2.26855C22.4355 4.11623 22.7142 5.95139 23.2237 7.72859C22.2247 5.65676 21.2666 3.57163 20.3518 1.45795C21.0896 1.56558 21.7916 1.84745 22.3998 2.28031L22.3946 2.26855ZM19.9389 1.45307C21.4221 4.9068 23.0308 8.29575 24.7409 11.6399C24.7046 11.5577 24.6388 11.4931 24.5829 11.4195C22.4536 8.57403 19.5808 6.49676 17.866 3.33246C17.9082 3.16279 17.9665 2.99758 18.0402 2.83907C18.2033 2.45855 18.4666 2.12977 18.8019 1.88774C19.1372 1.64571 19.532 1.49954 19.9441 1.46483L19.9389 1.45307ZM17.7603 3.91734C19.0751 6.14446 20.9155 7.80726 22.6528 9.71213C23.0495 10.1453 23.4149 10.5923 23.7759 11.0506C22.1865 9.78704 20.4308 8.68584 18.7904 7.57114C18.1683 6.52156 17.651 5.14954 17.7655 3.9291L17.7603 3.91734ZM22.2682 11.2297C21.2731 10.3938 20.3383 9.48834 19.4709 8.52008L19.4059 8.43646C21.2992 9.61324 23.0968 10.9381 24.7819 12.3986C25.5625 13.5388 26.2747 14.7244 26.9147 15.9492C25.4886 14.2647 23.937 12.6909 22.2734 11.2415L22.2682 11.2297Z" fill="#5C0609" fill-opacity="0.6"/>
<path d="M50.4555 12.7273C48.4399 10.3931 44.6882 10.7115 42.1865 11.9052C37.0072 14.3702 34.9399 20.4261 32.2465 25.0644C31.0959 25.9513 30.0136 26.9236 29.0087 27.9731C28.4276 28.5806 29.2666 29.614 29.8477 29.0064C30.8452 27.9628 31.9216 26.9978 33.0673 26.1199C33.103 26.096 33.1363 26.0688 33.1667 26.0386C35.1662 24.5297 37.3395 23.2667 39.6401 22.2767C42.4519 21.0349 45.5806 20.2991 48.1775 18.6235C50.2922 17.2825 52.5308 15.1334 50.4555 12.7273ZM48.7919 16.8547C45.4054 17.7887 42.436 19.6989 39.1834 20.9996C39.16 21.0099 39.1483 21.0151 39.1288 21.0237L39.1092 21.0323C38.8476 21.1479 38.5898 21.2617 38.3281 21.3773C41.7978 18.9091 45.383 16.7128 49.5827 15.7708C49.3846 16.1758 49.1169 16.5428 48.7919 16.8547ZM36.3153 22.4206C35.7737 22.7159 35.2486 23.0274 34.7247 23.3523C34.878 23.2238 35.029 23.101 35.1767 22.9702C35.2046 22.9706 35.2324 22.9648 35.258 22.9535C35.2836 22.9422 35.3064 22.9256 35.3251 22.9047L35.5761 22.6066C37.2383 21.0864 38.7134 19.3962 40.4535 17.9679C43.1228 15.7826 46.4268 14.5204 49.8738 14.3693C49.9224 14.708 49.8891 15.0532 49.777 15.3761C44.6643 16.4593 40.4459 19.3564 36.2958 22.4292L36.3153 22.4206ZM36.3352 20.2779C39.8575 17.4215 42.4411 14.0249 46.6413 12.376C46.9867 12.4195 47.3286 12.4874 47.6645 12.5793C42.5136 14.3158 38.8195 18.2309 35.3059 22.3329L35.1222 22.4982C35.5126 21.7549 35.9048 21.0155 36.3157 20.2865L36.3352 20.2779ZM48.2714 12.7699C48.8992 12.9747 49.426 13.4115 49.7442 13.9913C46.9015 14.1239 44.1433 14.9937 41.7396 16.5155C41.1078 16.9358 40.5037 17.3964 39.931 17.8944C42.3327 15.6499 44.9716 13.7732 48.2519 12.7785L48.2714 12.7699ZM45.2103 12.3481L45.3963 12.3362C42.1059 14.0373 39.7429 16.845 36.8768 19.3274C37.5873 18.1121 38.4091 16.9658 39.3318 15.9034C40.8477 14.1577 42.8065 12.6329 45.1908 12.3568L45.2103 12.3481ZM42.6167 19.8438C44.3703 18.9172 46.1869 18.115 48.053 17.443C46.587 18.4882 44.5022 19.231 42.5971 19.8524L42.6167 19.8438Z" fill="#5C0609" fill-opacity="0.6"/>
</svg>
