<svg width="226" height="238" viewBox="0 0 226 238" fill="none" xmlns="http://www.w3.org/2000/svg">
<path d="M1.73427 217.984C2.55657 218.214 2.76287 218.28 3.27926 218.425C82.9847 240.716 166.016 193.83 188.367 113.909C196.412 85.2966 195.775 54.943 186.539 26.7189C184.663 20.9846 181.017 6.50516 181.017 6.50516C197.375 40.0821 200.831 78.5344 190.727 114.538C168.014 195.753 83.6284 243.407 2.62377 220.753C2.10874 220.609 1.5951 220.462 1.08279 220.313C-1.17196 219.657 0.620412 217.211 1.73427 217.984Z" fill="#5C0609" fill-opacity="0.6"/>
<path d="M97.4549 169.019C100.703 168.692 104.038 169.082 106.225 171.694C108.119 173.94 108.904 176.888 109.046 179.773C109.381 186.499 106.35 192.581 102.381 197.818C96.7694 205.201 80.5081 215.127 80.2777 215.031C79.6604 216.89 80.2778 218.645 79.5054 220.456C79.1679 221.25 76.5857 220.973 76.9232 220.178C79.4197 214.402 81.068 208.294 81.8168 202.046C82.4951 196.213 81.8463 190.306 82.6543 184.5C83.7987 176.446 89.0373 169.856 97.4549 169.019ZM89.8701 173.441C89.8975 173.453 89.9216 173.472 89.9407 173.495C89.9597 173.519 89.9731 173.546 89.9799 173.576C89.9867 173.605 89.9866 173.636 89.9798 173.665C89.9729 173.694 89.9593 173.722 89.9402 173.745C84.7993 179.446 85.2162 186.848 85.4147 193.985C85.6455 192.493 85.9298 191.017 86.2886 189.544C87.9515 182.811 90.8982 176.462 94.9663 170.848C94.5182 170.976 94.0655 171.12 93.6235 171.29C92.2735 171.807 91.0095 172.527 89.8747 173.424L89.8701 173.441ZM89.4679 206.28C89.2074 206.503 88.9414 206.725 88.67 206.946C88.9121 206.809 89.1473 206.666 89.3865 206.524C89.3756 206.499 89.3715 206.471 89.3744 206.444C89.3774 206.417 89.3873 206.391 89.4033 206.368L89.4679 206.28ZM83.6731 210.531C83.8074 210.275 83.9283 210.012 84.0352 209.743C83.7592 210.159 83.4885 210.573 83.2066 210.978C83.3425 210.825 83.5125 210.677 83.6731 210.531ZM84.5454 209.473C84.5454 209.473 84.5511 209.452 84.5546 209.44L84.5454 209.473ZM84.9762 209.406C85.1099 209.293 85.2519 209.181 85.3875 209.077L85.0557 209.233C85.0359 209.272 85.0051 209.334 84.9796 209.394L84.9762 209.406ZM84.6984 208.973L84.7896 208.932C84.9544 208.565 85.1181 208.201 85.2746 207.832C85.114 208.089 84.9563 208.352 84.8015 208.588C84.7687 208.722 84.7353 208.841 84.7018 208.961L84.6984 208.973ZM85.307 208.699C85.8139 208.472 86.2931 208.232 86.7787 207.986L86.8646 207.916C88.1984 206.883 89.4604 205.76 90.642 204.554C97.2307 194.534 101.475 183.152 103.056 171.261C102.909 171.185 102.764 171.117 102.611 171.048C99.8193 178.734 96.5805 186.249 92.911 193.556C90.8735 197.672 88.8129 201.869 86.447 205.875C86.1108 206.808 85.7276 207.75 85.3128 208.678L85.307 208.699ZM87.0137 208.287C86.1828 208.944 85.363 209.577 84.5704 210.271C84.4647 210.49 84.3713 210.713 84.2616 210.931C84.2435 210.962 84.2167 210.987 84.1846 211.003C84.1525 211.019 84.1165 211.025 84.081 211.021C84.0454 211.017 84.0119 211.002 83.9845 210.979C83.9572 210.956 83.9372 210.925 83.927 210.891C83.7903 211.139 83.6389 211.379 83.4736 211.609C88.9479 207.886 94.7425 204.412 99.2148 199.564C95.6056 203.061 91.4944 205.995 87.0183 208.271L87.0137 208.287ZM83.4542 209.919L83.364 209.956C83.3444 210.026 83.326 210.092 83.3064 210.162C83.364 210.067 83.4181 209.984 83.4711 209.906L83.4542 209.919ZM83.8426 209.338C84.0429 209.034 84.2473 208.731 84.4405 208.421C84.7534 206.957 84.8905 205.461 84.8487 203.965C84.5405 205.832 84.0995 207.674 83.5289 209.477L83.8426 209.338ZM95.4679 170.735C95.4705 170.753 95.4692 170.772 95.4642 170.789C95.4593 170.807 95.4507 170.824 95.439 170.838C90.5275 177.541 87.2424 185.298 85.8451 193.492C85.6405 194.715 85.5168 195.933 85.4295 197.149C85.4201 198.356 85.3738 199.552 85.271 200.728C85.2319 202.326 85.2145 203.926 85.1573 205.541C85.1352 206.203 85.0777 206.864 84.9851 207.52C85.3716 206.899 85.7562 206.268 86.129 205.617C88.2332 200.027 89.5367 194.177 91.3688 188.467C93.4357 182.075 96.6205 176.156 99.8632 170.315C98.3916 170.199 96.9107 170.337 95.4848 170.722L95.4679 170.735ZM100.281 170.405C96.5718 177.107 93.1293 183.82 90.9593 191.215C89.7299 195.405 88.6413 199.63 87.2255 203.741C88.9702 200.673 90.5423 197.477 92.1002 194.347C95.9614 186.748 99.3558 178.92 102.264 170.906C101.63 170.662 100.971 170.49 100.298 170.392L100.281 170.405ZM103.412 171.45C101.891 182.705 97.991 193.509 91.973 203.14C92.9171 202.11 93.824 201.039 94.7335 199.911C100.491 192.845 105.84 185.197 107.018 175.943C106.415 174.049 105.137 172.445 103.428 171.436L103.412 171.45ZM107.275 176.797C106.115 184.34 102.266 190.825 97.6754 196.858C95.5031 199.695 93.2638 202.598 90.7188 205.136C90.482 205.497 90.2343 205.854 89.9756 206.208C94.7214 203.346 98.9581 199.709 102.511 195.45C106.308 190.022 109.016 183.223 107.292 176.784L107.275 176.797ZM82.4344 211.394C82.5826 210.991 82.7266 210.586 82.8584 210.179C82.4298 210.348 82.0013 210.517 81.5657 210.679C81.3017 211.624 81.3042 211.789 81.0139 212.748C81.553 212.36 82.0366 211.9 82.4513 211.381L82.4344 211.394ZM83.762 186.468C83.2248 192.367 83.7246 198.268 82.8747 204.16C82.5803 206.196 82.1827 208.215 81.6836 210.21C82.1286 210.046 82.5706 209.876 83.012 209.693C85.096 202.954 84.8759 196.323 84.8656 189.053C84.8598 183.557 85.6923 178.171 89.3198 173.887C85.8517 176.936 84.2276 181.522 83.7789 186.455L83.762 186.468Z" fill="#5C0609" fill-opacity="0.6"/>
<path d="M77.8188 219.909C81.4151 220.777 84.9782 221.826 88.5183 222.959C88.5987 222.88 88.6999 222.827 88.8097 222.805C98.745 220.694 108.274 216.184 118.483 215.439C126 214.874 136.557 216.724 139.422 224.851C142.287 232.978 135.004 237.364 127.865 237.323C118.262 237.265 109.767 231.817 100.992 228.638C93.2923 225.845 82.9443 225.009 74.9625 223.084C74.1356 222.87 76.9925 219.709 77.8188 219.909ZM111.852 230.258C110.328 230.247 108.806 230.132 107.298 229.913C110.677 231.414 114.074 232.933 117.543 234.081C115.683 232.823 113.788 231.515 111.855 230.245L111.852 230.258ZM99.0456 226.53C99.2101 226.576 99.3676 226.646 99.5245 226.704C102.385 227.477 105.323 227.929 108.284 228.051C106.95 227.273 105.601 226.549 104.22 225.91C102.323 226.249 100.397 226.39 98.4722 226.329L99.0456 226.53ZM102.155 227.71C103.442 228.23 104.729 228.781 106.012 229.345C107.484 229.653 108.979 229.836 110.482 229.893C110.759 229.903 111.037 229.906 111.316 229.908C110.542 229.411 109.757 228.921 108.966 228.451C106.682 228.355 104.407 228.108 102.155 227.71ZM96.525 225.651C96.525 225.651 96.5538 225.659 96.5702 225.664C96.6854 225.696 96.7964 225.727 96.897 225.795L97.3013 225.935C99.4693 226.138 101.654 226.071 103.807 225.736C103.528 225.609 103.251 225.488 102.97 225.369C100.174 225.609 97.3597 225.485 94.5968 225.001L96.525 225.651ZM104.457 225.616C104.999 225.514 105.541 225.399 106.084 225.267C106.4 225.182 106.715 225.087 107.046 224.998C105.955 225.11 104.865 225.219 103.777 225.306C104.002 225.404 104.238 225.51 104.473 225.621L104.457 225.616ZM91.1581 223.617C94.7593 225.006 98.4973 225.225 102.253 225.062C99.3456 223.852 96.239 223.191 93.0901 223.113C92.4592 223.292 91.8131 223.462 91.1704 223.62L91.1581 223.617ZM90.864 223.686L90.7931 223.702L90.8547 223.719C90.8587 223.707 90.8662 223.697 90.8763 223.689L90.864 223.686ZM97.6891 221.758C100.941 221.543 104.197 221.52 107.458 221.224C112.686 220.743 117.928 218.52 122.929 216.74C122.392 216.71 121.864 216.682 121.348 216.671C113.267 216.527 105.475 219.344 97.7015 221.762L97.6891 221.758ZM123.896 216.819C118.986 218.522 113.894 220.69 108.75 221.474C104.551 222.077 100.256 221.934 96.0019 222.291L94.2634 222.801C97.3213 223.038 100.317 223.791 103.122 225.029C104.896 224.917 106.681 224.731 108.46 224.54C111.418 223.473 114.266 222.021 117.359 221.25C123.598 219.723 130.069 220.773 136.284 222.009C133.339 218.638 128.394 217.237 123.887 216.817L123.896 216.819ZM137.814 224.37C137.499 223.703 137.114 223.072 136.665 222.488C127.88 220.787 120.128 220.242 111.566 223.737C110.995 223.969 110.431 224.18 109.864 224.385C111.955 224.166 114.044 223.972 116.111 223.937C123.764 223.831 131.383 224.948 138.681 227.244C138.535 226.247 138.24 225.277 137.806 224.368L137.814 224.37ZM138.742 227.661C130.547 225.061 121.949 223.962 113.361 224.417C111.743 224.511 110.12 224.675 108.501 224.836C107.298 225.223 106.074 225.54 104.835 225.784C106.285 226.483 107.704 227.257 109.103 228.089C112.279 228.257 115.484 228.287 118.654 228.604C124.842 229.255 130.923 230.679 136.756 232.844C137.465 232.193 138.013 231.385 138.356 230.485C138.699 229.585 138.829 228.617 138.734 227.659L138.742 227.661ZM136.433 233.145C129.346 230.559 121.909 229.058 114.373 228.692C112.826 228.614 111.304 228.571 109.756 228.494C110.514 228.955 111.268 229.428 112.019 229.913C113.723 229.831 115.431 229.863 117.13 230.009C121.723 230.578 125.459 233.121 129.143 235.751C129.165 235.767 129.184 235.787 129.198 235.81C129.212 235.833 129.221 235.859 129.225 235.886C131.918 235.625 134.594 234.711 136.424 233.143L136.433 233.145ZM128.712 235.929C123.532 232.258 119.033 230.261 112.562 230.27C114.694 231.666 116.776 233.115 118.824 234.479C121.345 235.267 123.949 235.758 126.585 235.943C127.291 235.981 127.998 235.976 128.704 235.927L128.712 235.929Z" fill="#5C0609" fill-opacity="0.6"/>
<path d="M130.276 148.958C134.252 145.345 138.338 145.079 141.662 149.649C146.491 156.285 142.836 165.091 140.157 171.831C136.265 181.642 129.983 189.793 122.972 197.567C122.885 197.676 122.761 197.748 122.623 197.768C122.486 197.788 122.346 197.755 122.232 197.676C121.585 200.607 122.699 202.696 120.528 205.529C120.017 206.2 116.521 206.351 117.04 205.669C124.374 196.057 120.458 186.138 120.663 175.278C120.837 166.255 123.317 155.28 130.276 148.958ZM122.501 169.294C122.755 177.431 122.899 185.573 122.935 193.721C127.069 187.245 125.991 179.227 125.442 171.805C124.916 164.684 126.115 158.859 128.748 152.376C127.044 154.939 125.674 157.709 124.67 160.619C123.669 163.434 122.942 166.339 122.501 169.294ZM122.992 195.577C123.144 195.175 123.301 194.774 123.445 194.37C123.427 194.359 123.411 194.343 123.399 194.326C123.387 194.308 123.379 194.288 123.375 194.267C123.371 194.246 123.371 194.224 123.376 194.203C123.38 194.182 123.389 194.162 123.402 194.145C123.5 193.999 123.589 193.855 123.687 193.709C123.786 193.563 123.748 193.49 123.78 193.379C123.522 193.681 123.262 193.977 122.998 194.272C122.985 194.317 122.944 194.354 122.915 194.395C122.916 194.804 122.922 195.211 122.924 195.616C122.945 195.6 122.968 195.587 122.992 195.577ZM124.223 192.192C124.191 192.303 124.123 192.404 124.068 192.508C124.077 192.475 124.116 192.446 124.142 192.418C124.167 192.39 124.199 192.243 124.228 192.171L124.223 192.192ZM129.503 151.374C129.515 151.395 129.522 151.42 129.523 151.445C129.523 151.47 129.518 151.495 129.507 151.517C127.74 155.695 126.05 159.885 125.694 164.453C125.363 168.712 125.97 172.976 126.256 177.216C126.488 180.539 126.495 183.906 125.881 187.104C129.656 174.734 131.676 161.896 131.882 148.968C130.998 149.663 130.2 150.464 129.509 151.353L129.503 151.374ZM132.265 148.679C132.067 163.272 129.562 177.744 124.844 191.556C124.946 191.429 125.051 191.308 125.148 191.197C126.499 188.206 127.977 185.236 129.425 182.245C130.901 178.162 131.862 173.911 132.286 169.59C133.026 162.187 132.517 154.75 134.648 147.545C133.796 147.773 132.991 148.15 132.27 148.658L132.265 148.679ZM135.284 147.394C135.223 147.404 135.169 147.424 135.109 147.434C132.64 155.594 133.592 164.079 132.365 172.413C132.01 174.828 131.481 177.214 130.781 179.553C135.557 169.669 139.724 159.589 138.148 148.36C138.145 148.329 138.149 148.298 138.159 148.269C138.17 148.24 138.187 148.214 138.209 148.193C138.231 148.172 138.258 148.156 138.287 148.147C138.317 148.137 138.348 148.135 138.378 148.139C137.481 147.491 136.369 147.215 135.273 147.369L135.284 147.394ZM138.469 148.196C138.469 148.196 138.508 148.229 138.511 148.266C140.233 160.482 135.208 171.345 129.951 182.045C129.126 184.365 128.144 186.626 127.012 188.811C134.565 178.771 139.817 167.187 142.392 154.885C142.396 154.86 142.406 154.837 142.421 154.816C142.436 154.796 142.456 154.779 142.478 154.767C142.472 154.744 142.468 154.721 142.467 154.697C142.008 152.595 140.56 149.612 138.458 148.171L138.469 148.196ZM142.604 155.602C139.806 168.508 134.07 180.596 125.846 190.921C125.609 191.339 125.365 191.751 125.113 192.161C124.831 192.806 124.551 193.457 124.281 194.106C130.481 186.95 135.882 179.397 139.294 170.416C141.011 165.892 143.292 160.529 142.613 155.583L142.604 155.602ZM122.556 196.059L122.558 195.86L122.517 196.102L122.556 196.059ZM122.45 183.962C122.4 179.914 122.311 175.867 122.184 171.819C121.943 174.35 121.909 176.896 122.081 179.431C122.198 180.948 122.334 182.458 122.46 183.942L122.45 183.962Z" fill="#5C0609" fill-opacity="0.6"/>
<path d="M115.407 205.546C118.409 205.236 121.433 205.235 124.434 205.542C124.511 205.409 124.632 205.308 124.776 205.255C129.549 203.458 134.053 201.01 138.16 197.979C141.028 195.918 143.832 194.04 147.182 192.856C154.268 190.344 165.001 189.55 170.859 195.375C176.044 200.533 172.876 210.355 166.389 212.754C159.57 215.293 151.275 212.173 144.555 210.649C135.189 208.536 123.891 207.737 114.218 208.832C113.354 208.924 114.563 205.635 115.407 205.546ZM134.829 202.23C135.146 202.177 135.458 202.108 135.767 202.048C138.147 201.185 140.626 200.63 143.145 200.395C149.797 198.619 156.228 196.093 162.314 192.866C158.86 192.161 155.298 192.176 151.849 192.908C151.836 192.943 151.814 192.974 151.784 192.997C148.359 195.539 144.701 197.749 140.859 199.596C137.966 200.969 134.888 201.927 132.049 203.422L131.439 203.749C131.109 203.932 130.788 204.127 130.469 204.331C130.683 204.28 130.896 204.233 131.116 204.192C132.274 203.543 133.472 202.967 134.702 202.466C134.688 202.443 134.68 202.417 134.679 202.391C134.678 202.365 134.683 202.339 134.695 202.315C134.706 202.291 134.724 202.271 134.745 202.255C134.766 202.24 134.791 202.23 134.817 202.227L134.829 202.23ZM128.917 206.124C131.676 205.518 134.452 204.863 137.242 204.305C135.259 204.126 133.261 204.208 131.299 204.55C130.425 205.016 129.575 205.526 128.753 206.078L128.917 206.124ZM128.254 206.006C128.261 205.981 128.267 205.96 128.273 205.94C128.827 205.543 129.403 205.18 129.986 204.823L129.559 204.939C129.299 205.124 129.018 205.29 128.791 205.498C128.761 205.522 128.724 205.538 128.685 205.541C128.646 205.545 128.607 205.537 128.573 205.518C128.539 205.5 128.511 205.471 128.493 205.437C128.475 205.402 128.467 205.363 128.472 205.324C128.358 205.368 128.242 205.402 128.132 205.447C128.094 205.459 128.053 205.461 128.015 205.45C127.977 205.439 127.943 205.417 127.918 205.387C127.591 205.526 127.272 205.651 126.917 205.796L128.254 206.006ZM137.688 199.936C136.869 200.516 136.043 201.063 135.203 201.592C136.64 201.003 138.096 200.441 139.525 199.801C143.559 197.963 147.396 195.719 150.978 193.105C150.2 193.287 149.426 193.503 148.655 193.753C144.483 195.102 141.212 197.432 137.675 199.932L137.688 199.936ZM162.695 192.945C162.708 192.982 162.706 193.022 162.691 193.058C162.676 193.094 162.649 193.124 162.614 193.141C157.021 196.119 151.135 198.507 145.052 200.266C148.678 200.156 152.252 200.564 155.849 199.797C159.897 198.937 164.162 196.752 167.837 194.864C166.955 194.347 166.021 193.925 165.051 193.604C164.256 193.338 163.471 193.118 162.682 192.942L162.695 192.945ZM168.195 195.088C168.195 195.088 168.195 195.088 168.187 195.117C162.393 198.097 156.306 200.747 149.696 200.698C147.032 200.66 144.368 200.818 141.726 201.172C140.106 201.577 138.47 201.924 136.821 202.241C135.265 202.705 133.751 203.3 132.294 204.019C134.269 203.823 136.26 203.853 138.227 204.11C141.426 203.453 144.672 203.057 147.934 202.926C156.186 202.696 163.928 203.261 172.051 201.323C171.872 198.49 170.336 196.469 168.183 195.085L168.195 195.088ZM172.066 201.856C172.079 201.806 172.059 201.752 172.061 201.699C164.937 203.396 158.077 203.433 150.777 203.303C147.049 203.283 143.328 203.615 139.661 204.293C141.763 204.592 143.863 204.992 145.931 205.286C154.291 206.477 162.691 207.066 171.125 206.393C171.727 204.954 172.041 203.411 172.049 201.851L172.066 201.856ZM170.925 206.76C163.74 207.264 156.524 207.045 149.386 206.106C145.99 205.694 142.374 204.834 138.777 204.41C136.046 204.904 133.329 205.504 130.618 206.098C142.399 205.09 153.177 212.251 164.924 211.825C165.693 211.614 166.436 211.318 167.14 210.942C168.814 209.988 170.14 208.522 170.925 206.76ZM152.945 211.164C156.153 211.852 159.737 212.619 163.098 212.19C152.204 211.863 142.05 205.641 131.05 206.441C134.144 206.995 137.208 207.674 140.185 208.315C144.454 209.251 148.691 210.268 152.953 211.184L152.945 211.164Z" fill="#5C0609" fill-opacity="0.6"/>
<path d="M154.312 176.204C156.108 175.221 157.23 176.344 159.318 175.994C159.373 175.922 159.441 175.861 159.519 175.815C169.667 169.95 177.943 158.742 190.243 157.293C198.575 156.316 208.999 162.094 207.047 171.834C204.947 182.306 192.079 182.556 184.026 180.393C174.956 177.95 163.044 174.165 154.09 179.075C153.336 179.504 153.563 176.616 154.312 176.204ZM166.769 175.651C172.854 174.499 178.765 172.383 184.977 172.222C191.441 172.061 197.788 173.618 204.015 175.191C205.277 173.427 205.9 171.285 205.78 169.119C198.799 166.515 191.232 165.902 183.919 167.348L183.224 167.505C182.256 168.016 181.286 168.536 180.32 169.058C175.215 171.831 169.817 174.023 164.227 175.594C165.076 175.587 165.924 175.611 166.769 175.651ZM162.609 175.639C169.402 173.938 175.49 171.08 181.622 167.892C174.946 169.648 168.592 172.903 162.301 175.664L162.595 175.644L162.609 175.639ZM186.653 159.414C179.544 161.577 173.944 166.639 168.147 171.294C172.607 169.878 176.812 167.752 180.6 164.997C183.725 162.715 186.768 160.379 190.205 158.665C189.004 158.812 187.818 159.063 186.661 159.416L186.653 159.414ZM191.326 158.556C187.111 160.453 183.58 163.346 179.822 166.007C175.953 168.743 171.995 170.485 167.533 171.904C167.512 171.912 167.489 171.915 167.467 171.913C167.444 171.911 167.422 171.905 167.403 171.895C166.26 172.811 165.09 173.697 163.906 174.539C170.096 171.759 176.403 168.673 183.008 167.169L183.885 166.712C189.388 163.806 195.05 161.344 201.324 161.196C198.507 159.079 194.9 158.346 191.342 158.56L191.326 158.556ZM203.433 163.231C202.944 162.622 202.397 162.062 201.799 161.56C195.479 161.571 189.889 164.008 184.417 166.869L185.046 166.743C191.996 165.588 199.123 166.263 205.729 168.7C205.517 166.694 204.725 164.794 203.449 163.235L203.433 163.231ZM203.747 175.516C197.603 173.962 191.336 172.436 184.961 172.596C179.233 172.741 173.773 174.556 168.207 175.738C168.828 175.787 169.437 175.842 170.041 175.904C174.731 174.416 179.685 173.957 184.565 174.56C189.446 175.162 194.138 176.811 198.322 179.395C199.124 179.086 199.897 178.707 200.634 178.264C201.838 177.553 202.9 176.622 203.764 175.521L203.747 175.516ZM191.769 180.398C187.738 178.98 183.547 178.068 179.292 177.682C183.451 178.85 187.654 180.23 191.786 180.403L191.769 180.398ZM177.421 177.172C182.723 177.453 187.949 178.545 192.918 180.413C194.599 180.399 196.268 180.115 197.86 179.573C193.869 177.155 189.421 175.591 184.795 174.979C180.169 174.367 175.466 174.72 170.98 176.016C171.611 176.09 172.237 176.167 172.844 176.248C174.388 176.467 175.918 176.776 177.426 177.174L177.421 177.172Z" fill="#5C0609" fill-opacity="0.6"/>
<path d="M157.433 114.085C166.676 110.803 172.863 121.192 172.863 129.069C172.867 141.294 166.414 152.873 161.419 163.651C161.373 163.755 161.298 163.842 161.202 163.902C160.735 167.283 161.412 167.908 159.728 170.948C159.319 171.696 156.444 173.702 156.853 172.954C160.126 167.035 160.994 160.081 159.276 153.544C157.74 147.78 154.132 142.771 151.814 137.331C148.594 129.682 147.699 117.537 157.433 114.085ZM151.331 122.7C151.236 123.038 151.143 123.372 151.052 123.698C151.052 123.698 151.052 123.698 151.07 123.73C152.535 130.749 154.938 137.536 158.216 143.908C157.685 141.622 157.115 139.347 156.488 137.087C155.077 132.02 153.396 127.047 151.515 122.138C151.455 122.321 151.393 122.509 151.332 122.696L151.331 122.7ZM160.347 152.439C160.434 152.73 160.512 153.023 160.594 153.317C160.858 152.373 161.132 151.392 161.41 150.398C161.081 149.799 160.752 149.232 160.462 148.715C160.017 147.93 159.577 147.143 159.141 146.354C159.575 148.372 159.978 150.399 160.348 152.435L160.347 152.439ZM162.625 152.854C162.258 154.289 161.82 155.705 161.31 157.096C161.353 157.481 161.388 157.864 161.43 158.254C161.81 156.466 162.211 154.685 162.669 152.919L162.625 152.854ZM162.378 152.296C162.15 151.81 161.91 151.338 161.666 150.879C161.387 151.956 161.072 153.002 160.787 154.02C160.967 154.773 161.104 155.535 161.214 156.3C161.657 154.97 162.051 153.64 162.379 152.292L162.378 152.296ZM159.051 145.489C159.667 146.612 160.646 148.091 161.573 149.706C162.969 143.873 163.562 137.331 160.838 132.28C158.433 127.82 154.486 124.529 152.745 119.691C152.347 120.305 152.006 120.953 151.724 121.628C154.684 129.289 157.076 137.159 158.881 145.175C158.939 145.271 158.993 145.379 159.052 145.485L159.051 145.489ZM153.006 119.31C155.002 125.203 160.667 129.01 162.394 135.009C163.746 139.685 163.089 145.205 161.842 150.186C162.089 150.633 162.327 151.081 162.551 151.535C163.626 146.807 163.85 141.927 163.212 137.122C162.225 129.81 159.135 123.091 156.04 116.483C156.026 116.447 156.025 116.407 156.036 116.371C154.848 117.145 153.819 118.142 153.007 119.306L153.006 119.31ZM156.276 116.224C156.296 116.231 156.315 116.241 156.331 116.255C156.347 116.268 156.36 116.285 156.369 116.304C159.475 122.951 162.616 129.728 163.606 137.077C164.269 142.092 164 147.187 162.812 152.106L162.844 152.182C163.075 151.357 163.305 150.533 163.565 149.716C164.933 145.458 166.738 141.224 166.983 136.701C166.814 134.231 166.502 131.748 166.122 129.286C164.748 124.261 161.989 119.56 159.353 115.129C159.353 115.129 159.361 115.1 159.366 115.084C158.278 115.269 157.232 115.651 156.28 116.212L156.276 116.224ZM164.85 147.071C164.202 148.992 163.637 150.914 163.127 152.852C163.467 153.657 163.715 154.499 163.866 155.361C164.553 153.869 165.229 152.373 165.881 150.866C166.883 146.969 167.294 142.944 167.101 138.926C166.577 141.689 165.827 144.405 164.857 147.046L164.85 147.071ZM159.735 115.018C161.923 118.702 164.2 122.574 165.696 126.673C165.037 122.862 164.261 119.124 163.627 115.587C163.625 115.55 163.635 115.514 163.656 115.484C162.411 115.004 161.067 114.835 159.742 114.993L159.735 115.018ZM163.998 115.624C164.769 119.875 165.726 124.424 166.449 129.053C167.042 131.109 167.357 133.237 167.384 135.378C167.384 135.822 167.367 136.262 167.338 136.698C167.676 140.73 167.477 144.79 166.746 148.77C167.191 147.686 167.616 146.595 168.02 145.499C167.988 145.489 167.961 145.467 167.943 145.439C167.925 145.41 167.918 145.376 167.922 145.343C168.541 136.266 169.067 127.189 167.543 118.166C167.543 118.166 167.553 118.129 167.558 118.113C166.896 117.43 166.154 116.83 165.349 116.326C164.926 116.054 164.484 115.813 164.026 115.605L163.998 115.624ZM171.33 132.205C171.865 127.425 171.16 122.161 167.989 118.553C169.367 127.193 168.93 135.89 168.342 144.585C169.822 140.588 170.833 136.433 171.357 132.204L171.33 132.205ZM163.496 156.098C163.404 155.25 163.203 154.419 162.898 153.623C162.371 155.663 161.899 157.718 161.447 159.792C161.45 160.02 161.447 160.236 161.439 160.47C162.145 159.005 162.841 157.541 163.527 156.08L163.496 156.098ZM159.47 150.06C159.41 149.625 159.349 149.271 159.326 149.131C159.075 147.843 158.801 146.557 158.517 145.273C157.658 143.699 156.835 142.109 156.088 140.468C153.791 135.364 152.035 130.031 150.851 124.558C149.242 133.624 156.225 141.929 159.501 150.042L159.47 150.06Z" fill="#5C0609" fill-opacity="0.6"/>
<path d="M177.484 143.123C179.603 142.093 180.132 143.53 182.302 143.03C182.257 142.939 182.238 142.838 182.246 142.737C182.254 142.636 182.289 142.539 182.347 142.456C187.209 134.868 194.749 129.402 203.605 127.554C209.345 126.35 221.949 125.603 224.984 132.266C228.955 140.973 215.217 144.746 209.403 144.96C197.934 145.375 187.578 141.079 176.527 146.434C175.757 146.827 176.719 143.482 177.484 143.123ZM184.327 142.637C184.881 142.146 185.445 141.678 186.019 141.234L185.625 141.373C185.181 141.551 184.727 141.748 184.271 141.967C184.094 142.22 183.925 142.475 183.755 142.734L184.327 142.637ZM190.129 142.165C191.08 141.68 191.996 141.15 192.895 140.614C191.016 140.229 189.072 140.303 187.227 140.829L187.164 140.847C186.436 141.373 185.725 141.934 185.033 142.523C186.722 142.29 188.424 142.17 190.129 142.165ZM193.527 140.24C194.327 139.757 195.124 139.286 195.939 138.843C194.149 139.024 192.375 139.348 190.636 139.814C190.981 139.822 191.326 139.848 191.669 139.894C192.287 139.982 192.905 140.101 193.519 140.238L193.527 140.24ZM202.926 129.062C198.595 130.123 194.538 132.094 191.024 134.846C199.545 132.019 208.78 130.766 217.507 128.917C216.361 128.672 215.194 128.515 214.166 128.387C210.41 127.935 206.603 128.163 202.926 129.062ZM221.052 130.206C220.115 129.679 219.105 129.294 218.056 129.062C218.063 129.103 218.052 129.145 218.028 129.179C218.004 129.213 217.967 129.236 217.925 129.243C208.768 131.172 199.055 132.442 190.171 135.532C188.648 136.804 187.243 138.213 185.975 139.741C196.289 130.855 210.766 131.001 223.7 133.245C223.197 131.954 222.261 130.879 221.052 130.206ZM223.81 133.645C210.398 131.29 195.254 131.131 184.898 141.214C185.661 140.855 186.447 140.549 187.251 140.298C192.365 136.687 198.406 134.627 204.652 134.363C210.899 134.099 217.086 135.643 222.476 138.81C223.829 137.22 224.274 135.344 223.81 133.645ZM221.89 139.478C222.017 139.357 222.128 139.229 222.243 139.105C217.073 136.081 211.162 134.565 205.175 134.727C199.188 134.89 193.363 136.725 188.356 140.025C188.441 140.004 188.532 139.999 188.616 139.982C191.269 139.126 194.016 138.594 196.795 138.398C198.725 137.361 200.851 136.744 203.034 136.587C208.926 136.265 214.464 138.703 219.692 141.139C220.48 140.662 221.216 140.105 221.89 139.478ZM219.307 141.422C213.56 138.748 207.256 136.056 200.776 137.271C199.595 137.498 198.447 137.875 197.36 138.391C197.606 138.385 197.848 138.359 198.095 138.361C203.557 138.36 208.512 140.586 213.107 143.333C213.126 143.345 213.143 143.36 213.156 143.378C213.17 143.397 213.179 143.417 213.184 143.439C215.336 143.152 217.415 142.461 219.313 141.402L219.307 141.422ZM212.664 143.507C207.821 140.646 202.591 138.423 196.839 138.779L196.525 138.807C195.623 139.275 194.744 139.802 193.879 140.343C197.106 141.09 200.345 142.378 203.405 143.452C206.482 143.813 209.59 143.825 212.67 143.487L212.664 143.507ZM201.658 143.234C199.035 142.34 196.39 141.463 193.712 140.798C193.564 140.757 193.426 140.745 193.292 140.716C192.477 141.222 191.678 141.732 190.83 142.197C192.837 142.227 194.841 142.369 196.833 142.622C198.348 142.784 199.977 143.013 201.663 143.213L201.658 143.234Z" fill="#5C0609" fill-opacity="0.6"/>
<path d="M187.171 120.358C188.551 118.863 189.288 120.176 190.891 118.931C190.899 118.84 190.923 118.752 190.963 118.671C193.542 113.719 196.527 108.991 199.887 104.533C202.133 101.605 204.695 98.8014 208.192 97.4101C213.114 95.453 222.526 96.085 224.512 102.143C226.738 108.989 218.824 112.381 213.515 112.803C207.49 113.283 201.994 114.373 197.023 116.77C196.001 117.68 194.795 118.358 193.488 118.759C191.224 120.241 189.151 121.998 187.317 123.99C186.747 124.617 186.593 120.983 187.171 120.358ZM202.961 108.727C203.143 108.44 203.311 108.14 203.486 107.847C202.267 108.669 201.1 109.566 199.991 110.532L199.89 110.655C200.719 110.242 201.569 109.884 202.415 109.552C202.621 109.276 202.79 108.99 202.961 108.727ZM208.358 98.7947C208.233 98.8484 208.11 98.9074 207.987 98.9664C207.995 98.9947 207.995 99.0247 207.987 99.0531C207.979 99.0815 207.964 99.1072 207.942 99.1271C203.547 102.907 200.601 107.938 196.974 112.382C197.455 112.072 197.956 111.737 198.454 111.462C198.866 111.067 199.28 110.68 199.708 110.306C201.41 108.192 203.322 106.258 205.415 104.532C206.43 102.629 207.401 100.714 208.358 98.7947ZM206.189 103.873C209.328 101.419 212.813 99.4459 216.529 98.0171C213.981 97.4695 211.328 97.6672 208.887 98.5868C208.002 100.353 207.117 102.124 206.189 103.873ZM196.113 115.568C196.805 114.354 197.559 113.176 198.373 112.04C197.014 113.384 195.767 114.837 194.644 116.384C195.126 116.101 195.619 115.83 196.113 115.568ZM201.365 108.916C202.204 108.262 203.048 107.653 203.943 107.086C204.269 106.537 204.593 105.983 204.905 105.421C203.654 106.511 202.471 107.678 201.365 108.916ZM199.347 111.379C198.399 112.62 197.524 113.916 196.727 115.26C197.242 115.004 197.756 114.752 198.265 114.517C199.033 113.736 199.838 112.934 200.689 112.19C201.192 111.486 201.659 110.781 202.104 110.096C201.159 110.469 200.237 110.896 199.342 111.378L199.347 111.379ZM193.812 116.903C194.849 115.397 195.998 113.973 197.251 112.642C196.803 112.961 196.363 113.282 195.931 113.606C195.427 114.185 194.909 114.756 194.37 115.303C193.992 115.958 193.615 116.608 193.249 117.266L193.812 116.903ZM198.667 108.482C197.53 110.124 196.453 111.801 195.422 113.508L195.684 113.301C199.596 108.821 202.568 103.536 206.966 99.4766L206.889 99.5171C203.368 101.595 200.924 105.232 198.663 108.498L198.667 108.482ZM217.185 98.1605C213.025 99.696 209.149 101.917 205.718 104.733C205.365 105.376 205.011 106.011 204.644 106.655C209.971 103.409 216.054 101.623 222.282 101.475C222.307 101.482 222.323 101.487 222.344 101.493C221.503 100.258 220.311 99.306 218.924 98.758C218.356 98.526 217.774 98.332 217.18 98.177L217.185 98.1605ZM222.456 101.679C222.453 101.724 222.433 101.766 222.401 101.796C222.368 101.827 222.326 101.844 222.281 101.844C215.891 101.991 209.66 103.883 204.26 107.316C203.858 107.991 203.442 108.657 203.018 109.316C209.012 107.205 215.706 107.046 222.182 107.635C222.815 106.785 223.18 105.764 223.228 104.705C223.276 103.647 223.005 102.598 222.451 101.696L222.456 101.679ZM200.208 113.718C202.74 112.841 205.361 112.247 208.023 111.947C212.071 111.404 216.759 111.919 220.271 109.492C220.884 109.071 221.435 108.565 221.906 107.989C215.389 107.42 208.656 107.621 202.661 109.861C202.325 110.367 201.98 110.871 201.629 111.35C202.609 110.52 203.709 109.843 204.89 109.342C208.015 108.109 211.909 109.78 214.763 110.987C214.986 111.081 214.882 111.465 214.661 111.354C210.927 109.772 207.03 108.331 203.334 110.769C202.254 111.499 201.23 112.309 200.271 113.193C200.089 113.431 199.898 113.671 199.703 113.923C199.867 113.876 200.027 113.796 200.204 113.734L200.208 113.718Z" fill="#5C0609" fill-opacity="0.6"/>
<path d="M167.877 81.7835C170.468 79.8411 173.805 79.6055 176.771 80.7461C181.01 82.3761 183.201 85.7315 184.828 89.7913C189.015 100.181 185.309 111.307 183.333 121.765C183.328 121.793 183.32 121.82 183.31 121.847C184.06 124.048 185.154 123.798 185.858 126.005C186.118 126.819 184.455 129.613 184.188 128.805C180.441 117.048 176.325 106.087 168.159 96.6733C164.309 92.2407 162.221 85.998 167.877 81.7835ZM176.766 82.1448C179.972 87.8155 180.56 94.4163 181.539 100.758C182.101 104.377 183.421 108.867 183.142 112.892C183.23 113.823 183.264 114.759 183.244 115.694C183.339 115.276 183.427 114.883 183.515 114.472C183.794 110.701 183.124 106.806 183.07 103.053C183.008 98.6614 183.224 94.2725 183.445 89.8847C182.102 86.5886 180.013 83.5464 176.764 82.153L176.766 82.1448ZM183.798 90.7479C183.57 95.3027 183.367 99.8643 183.49 104.419C183.564 107.134 183.919 109.873 183.947 112.548C185.317 106.064 186.329 99.4347 184.56 93.0947C184.343 92.3183 184.088 91.5315 183.798 90.7479ZM182.805 117.772C182.862 116.779 182.887 115.785 182.861 114.8C182.824 114.932 182.786 115.068 182.745 115.213C182.836 115.997 182.725 116.793 182.423 117.523C182.407 117.58 182.392 117.634 182.377 117.688C182.368 117.72 182.351 117.748 182.325 117.77C182.3 117.792 182.269 117.805 182.237 117.808C182.21 117.849 182.181 117.889 182.15 117.927C182.147 118.161 182.139 118.395 182.133 118.624C182.228 118.886 182.327 119.149 182.421 119.416C182.57 118.866 182.687 118.321 182.805 117.772ZM181.806 117.524L181.812 117.503C181.812 117.51 181.81 117.517 181.806 117.524ZM181.84 116.644C181.855 115.67 181.858 114.676 181.847 113.668C181.586 112.918 181.248 112.196 180.84 111.515C180.726 112.328 180.569 113.134 180.369 113.93C180.803 114.979 181.218 116.036 181.614 117.101C181.692 116.967 181.765 116.814 181.836 116.656L181.84 116.644ZM180.525 110.995C179.512 109.482 178.348 108.076 177.053 106.797C178.18 108.917 179.192 111.098 180.107 113.314C180.286 112.553 180.424 111.784 180.521 111.008L180.525 110.995ZM175.611 104.216C175.886 104.675 176.132 105.144 176.392 105.608C177.949 107.068 179.356 108.681 180.592 110.423C180.709 109.247 180.731 108.065 180.659 106.886C180.468 106.601 180.26 106.33 180.038 106.045C177.791 103.288 174.926 100.993 171.922 99.0194C173.279 100.661 174.511 102.402 175.608 104.229L175.611 104.216ZM180.915 110.914C181.259 111.453 181.564 112.017 181.827 112.6C181.82 112.309 181.812 112.018 181.807 111.705C181.63 109.976 181.43 108.488 181.387 108.307C181.345 108.127 181.326 108.081 181.299 107.972C181.272 107.862 181.15 107.681 181.069 107.543C181.102 108.673 181.05 109.804 180.912 110.926L180.915 110.914ZM182.121 110.264C182.205 110.821 182.282 111.385 182.338 111.947C182.393 112.509 182.534 113.211 182.662 113.958C182.706 113.672 182.746 113.386 182.773 113.1C182.671 112.015 182.451 110.945 182.119 109.908C182.107 110.029 182.112 110.155 182.118 110.276L182.121 110.264ZM169.111 95.7396C169.783 96.5096 170.452 97.2879 171.117 98.0785C174.619 100.249 178.185 102.922 180.606 106.186C180.591 106.004 180.567 105.82 180.546 105.641C179.733 103.607 178.62 101.708 177.245 100.006C173.923 95.8274 169.786 92.2032 165.712 88.7791C165.526 88.6203 165.798 88.3588 165.981 88.5122C171.178 92.8505 177.287 97.7815 180.302 104.025C178.83 96.3861 173.519 89.8068 167.225 84.7618C167.037 84.6113 167.312 84.3415 167.494 84.4991C174.272 89.9508 179.87 97.1039 180.914 105.45C181.171 106.131 181.392 106.825 181.578 107.53C180.764 97.7584 177.938 87.7666 170.098 82.3826C169.897 82.2463 170.086 81.9347 170.291 82.0586C178.525 87.7129 181.31 98.3111 182.031 108.51C182.388 109.308 182.661 110.141 182.847 110.996C182.756 106.566 181.321 101.679 180.76 98.0283C179.903 92.4545 179.169 86.9152 176.276 81.9768C176.276 81.9768 176.284 81.9479 176.289 81.9315C175.821 81.7603 175.339 81.6257 174.85 81.529C173.071 81.1566 171.217 81.4283 169.617 82.2961C168.018 83.1638 166.776 84.5712 166.112 86.2685C164.655 90.115 166.701 92.9764 169.108 95.752L169.111 95.7396Z" fill="#5C0609" fill-opacity="0.6"/>
<path d="M193.883 95.1064C197.708 87.9616 202.338 81.1709 206.926 74.4974C210.157 69.7914 217.387 62.7545 222.533 69.5276C226.773 75.1318 222.231 82.334 216.688 84.7841C210.834 87.392 203.845 87.4155 198.229 90.5521C198.153 90.5917 198.071 90.6169 197.986 90.6265C196.962 92.3226 194.979 97.7333 194.044 99.4765C193.624 100.235 193.481 95.8609 193.883 95.1064ZM204.456 80.5232C203.316 82.2535 202.157 83.9875 201.035 85.7318C201.606 85.2571 202.252 84.8818 202.946 84.6215C203.094 84.4272 203.241 84.2328 203.393 84.0396C204.632 81.8813 206.063 79.8386 207.666 77.9361C208.734 75.941 209.688 73.8786 210.638 71.8108C210.202 72.2534 209.794 72.7226 209.416 73.2159C207.665 75.5621 206.088 78.0813 204.456 80.5232ZM201.202 87.8455L201.496 87.7454C201.56 87.6122 201.621 87.4736 201.681 87.3527C201.661 87.3297 201.647 87.3012 201.641 87.2706C201.636 87.24 201.639 87.2084 201.65 87.1795C201.626 87.2078 201.601 87.2348 201.574 87.2605C201.464 87.4476 201.342 87.6488 201.215 87.8489L201.202 87.8455ZM216.024 83.3538C213.313 82.6625 209.664 81.8731 207.035 83.2536C206.558 83.5115 206.104 83.8098 205.677 84.1452C207.366 84.1533 209.027 84.5706 210.519 85.3615C212.402 84.8328 214.242 84.1617 216.024 83.3538ZM204.488 84.6083C204.244 84.6484 204.001 84.7007 203.762 84.7652C203.584 84.9867 203.41 85.2136 203.226 85.4287C202.979 85.8042 202.748 86.1396 202.518 86.502C202.424 86.6937 202.324 86.8925 202.236 87.0676C202.9 86.2568 203.61 85.4848 204.363 84.7555C204.41 84.6976 204.45 84.6509 204.49 84.6001L204.488 84.6083ZM205.611 81.4953C205.913 81.0195 206.207 80.5374 206.499 80.05C205.983 80.7324 205.492 81.4308 205.026 82.1451C205.218 81.9187 205.407 81.7182 205.614 81.4871L205.611 81.4953ZM211.372 71.1359C210.518 73.035 209.648 74.9253 208.709 76.7743C211.717 73.4911 215.229 70.711 219.112 68.5397C216.667 67.6739 213.665 69.0879 211.375 71.1277L211.372 71.1359ZM219.557 68.7221C215.157 71.143 211.234 74.3479 207.98 78.1793C207.595 78.9031 207.191 79.6211 206.772 80.3263C211.094 76.1875 216.366 73.1794 222.121 71.5684C221.626 70.3458 220.72 69.3359 219.559 68.7138L219.557 68.7221ZM222.324 72.0163L222.277 71.9143C216.747 73.4566 211.663 76.3023 207.451 80.2138C208.162 79.6429 208.915 79.127 209.704 78.6705C213.697 76.3912 218.525 75.4566 222.919 74.2184C222.812 73.4601 222.613 72.7178 222.326 72.008L222.324 72.0163ZM222.974 74.6072C218.948 75.7349 214.621 76.6406 210.874 78.482C208.572 79.6479 206.533 81.2744 204.883 83.2607C204.639 83.6103 204.386 83.9575 204.148 84.3041C204.389 84.2563 204.633 84.2206 204.878 84.1973C206.431 82.4978 208.216 80.9968 210.27 80.149C213.713 78.7293 218.176 79.0485 221.829 78.9855C222.716 77.7031 223.117 76.1457 222.96 74.5944L222.974 74.6072ZM221.525 79.3584C218.115 79.4093 214.14 79.2486 210.943 80.3417C209.295 80.9507 207.788 81.8904 206.514 83.1034C206.859 82.8988 207.221 82.7234 207.596 82.5793C210.224 81.5985 213.561 82.3317 216.174 83.0048C216.198 83.0094 216.221 83.0191 216.24 83.0333C216.26 83.0474 216.276 83.0657 216.288 83.0867C216.299 83.1078 216.307 83.1311 216.309 83.1552C216.31 83.1793 216.307 83.2036 216.299 83.2263C218.372 82.2326 220.292 80.9647 221.528 79.3502L221.525 79.3584ZM209.975 85.5161C208.492 84.7915 206.851 84.4517 205.202 84.5279C205.014 84.6931 204.82 84.8655 204.62 85.0231C203.963 85.7904 203.339 86.5762 202.77 87.3594C205.045 86.7065 207.395 86.2126 209.58 85.6144L209.975 85.5161ZM199.925 88.3239C200.397 87.9019 200.855 87.4653 201.297 87.0141C201.684 86.4068 202.077 85.8099 202.513 85.2339C201.219 85.8804 200.183 86.9504 199.577 88.2667C199.562 88.3021 199.533 88.3301 199.498 88.3451C199.462 88.36 199.422 88.3605 199.386 88.3466L199.219 88.6111C199.455 88.4991 199.692 88.41 199.927 88.3156L199.925 88.3239Z" fill="#5C0609" fill-opacity="0.6"/>
<path d="M175.099 51.9499C182.09 51.8517 186.839 59.234 188.74 64.9929C192.284 75.6833 194.386 77.6313 195.124 82.2517C195.258 83.0892 193.672 86.6684 193.531 85.8068C193.063 83.1283 192.458 80.4756 191.72 77.8592C191.601 77.8288 191.494 77.7616 191.415 77.6671C185.567 70.7732 174.73 70.8316 169.531 63.3457C166.029 58.3036 168.667 52.0404 175.099 51.9499ZM177.667 63.6253C178.977 64.1874 180.246 64.8394 181.466 65.5767C182.434 66.1585 183.345 66.7824 184.28 67.4485C183.902 66.5514 183.551 65.6353 183.245 64.7007L183.073 64.426C180.089 59.7199 176.579 54.3598 170.263 55.0069C169.988 55.3289 169.762 55.6894 169.591 56.077C173.283 57.2519 175.085 60.6051 177.507 63.4206L177.667 63.6253ZM188.84 73.5733L188.696 73.3461C188.19 73.0389 187.705 72.7298 187.239 72.4188C187.283 72.4843 187.316 72.5559 187.356 72.6203C187.861 72.9216 188.354 73.2372 188.84 73.5733ZM190.185 72.7582C189.587 72.2353 188.984 71.7111 188.375 71.1941C189.148 72.3791 189.976 73.5397 190.806 74.7097C190.606 74.0584 190.4 73.4079 190.185 72.7582ZM190.405 74.7933C189.587 73.6756 188.753 72.5533 187.985 71.3694L189.743 74.2437C189.968 74.4222 190.187 74.6077 190.405 74.7933ZM188.218 72.5949L186.194 69.3882C185.911 69.1625 185.633 68.9379 185.347 68.7069C185.784 69.713 186.271 70.6964 186.806 71.6531C187.268 71.9824 187.74 72.2922 188.218 72.5949ZM185.609 68.4689L184.581 66.8481C184.736 67.2469 184.885 67.6487 185.049 68.0457L185.609 68.4689ZM184.557 68.1258C182.82 66.8059 180.964 65.6501 179.014 64.6733C178.791 64.5665 178.566 64.468 178.34 64.3736C180.662 66.9074 183.252 69.1816 186.063 71.1563C185.515 70.1674 185.013 69.1572 184.557 68.1258ZM170.661 54.6117C175.128 54.3319 178.454 57.1023 181.029 60.6228C181.609 61.4205 182.174 62.2365 182.733 63.0596C181.731 59.619 180.817 56.0385 177.842 53.9973C175.314 53.1614 172.405 53.0857 170.661 54.6117ZM179.011 54.4755C180.526 55.8769 181.487 57.7504 182.196 59.8424C182.752 61.4868 183.259 63.0956 183.801 64.6784C184.814 66.2241 185.797 67.7969 186.765 69.3746C186.328 68.5968 185.948 67.7879 185.629 66.9544C184.35 63.6008 184.082 60.041 182.324 56.8821C182.032 56.5782 181.732 56.272 181.414 55.9965C180.694 55.3718 179.884 54.8591 179.011 54.4755ZM183.299 57.9906C184.299 60.266 184.755 62.6917 185.447 65.1165C185.98 66.8936 186.747 68.5911 187.728 70.164C188.48 70.7877 189.22 71.4215 189.956 72.0583L189.677 71.2158C188.149 66.6945 186.403 61.7612 183.299 57.9906ZM181.789 69.8588C180.639 68.6161 179.351 67.5101 177.95 66.5625C176.147 65.4004 174.134 64.8152 172.071 64.345C173.462 65.58 175.004 66.6314 176.662 67.4736C178.351 68.346 180.081 69.1012 181.789 69.8588ZM171.565 63.839C176.263 64.904 179.372 66.9115 182.661 70.2448C184.038 70.8657 185.409 71.5114 186.696 72.2358C186.635 72.1386 186.579 72.0385 186.523 71.9383C184.119 70.3202 181.87 68.4843 179.802 66.4538C179.086 65.7288 178.412 64.963 177.784 64.1602C175.159 63.2085 172.055 62.8647 169.775 61.3647C170.237 62.2793 170.841 63.1144 171.565 63.839ZM169.133 58.2693C169.093 59.0921 169.221 59.9142 169.508 60.6856C171.426 62.182 174.009 62.2821 176.238 63.0611C176.576 63.1825 176.907 63.315 177.238 63.4475C174.998 60.5986 172.702 57.476 169.471 56.457C169.264 57.0383 169.143 57.647 169.112 58.2635L169.133 58.2693Z" fill="#5C0609" fill-opacity="0.6"/>
<path d="M170.122 30.9554C174.074 27.1444 179.476 31.0334 182.298 34.1338C186.667 38.9429 189.029 44.6042 191.171 50.6573C191.206 50.7606 191.214 50.8717 191.192 50.9788C192.622 52.4101 193.831 54.0816 194.26 56.0507C194.439 56.8832 193.569 59.6936 193.39 58.857C192.568 55.0931 188.302 50.0105 185.384 48.0165C181.823 45.5804 177.935 44.1063 174.188 42.0806C170.542 40.1053 166.065 34.8571 170.122 30.9554ZM173.714 40.3034L174.473 40.7601C176.709 41.4828 178.905 42.3226 181.053 43.2759C180.15 42.4321 179.246 41.5883 178.357 40.7438L177.574 39.9604C175.402 39.0099 173.159 38.2338 170.864 37.6393C170.849 37.6353 170.834 37.6283 170.822 37.6187C170.809 37.6091 170.799 37.5971 170.791 37.5834C171.565 38.6837 172.562 39.6077 173.717 40.2951L173.714 40.3034ZM187.166 47.6837L187.177 47.6425C186.829 47.1762 186.477 46.7086 186.139 46.2363C185.169 45.6984 184.185 45.1847 183.187 44.6952C183.776 45.2376 184.372 45.7689 184.955 46.3008C185.688 46.7222 186.419 47.1785 187.148 47.6697L187.166 47.6837ZM188.292 46.6384C188.263 46.637 188.235 46.6291 188.209 46.6154C187.851 46.3107 187.488 46.0268 187.101 45.7276C187.146 45.9002 187.185 46.0798 187.229 46.2524L187.466 46.563C187.814 46.7625 188.155 46.9691 188.5 47.1768L188.292 46.6384ZM171.72 31.4733C174.453 32.2953 177.052 33.5147 179.432 35.0925C177.983 32.9982 176.134 31.3967 173.037 31.0105C172.571 31.0882 172.12 31.2397 171.701 31.4593L171.72 31.4733ZM171.3 31.7517C170.674 32.2313 170.243 32.9228 170.087 33.697C174.959 34.4594 179.276 37.5515 182.934 41.2905C182.687 40.857 182.43 40.4294 182.191 39.9847C181.426 38.5662 180.73 37.1538 179.936 35.8737C177.3 34.0231 174.378 32.6215 171.286 31.7253L171.3 31.7517ZM184.835 43.3379L185.349 43.9261C185.719 44.1854 186.064 44.4284 186.412 44.6902C185.637 42.1353 184.482 39.7498 182.433 37.8521C182.009 37.4626 181.553 37.0816 181.077 36.7083C182.365 38.8866 183.555 41.1308 184.817 43.3239L184.835 43.3379ZM186.606 46.0558L186.193 45.5357L186.507 45.9971L186.606 46.0558ZM186.298 45.0807L186.623 45.5048C186.606 45.4379 186.584 45.374 186.563 45.3059C186.472 45.2183 186.38 45.1348 186.281 45.0625L186.298 45.0807ZM188.718 47.7444L188.072 47.3593C188.424 47.831 188.768 48.2962 189.096 48.7568L188.718 47.7444ZM187.436 47.1459L187.506 47.4676C187.656 47.6741 187.802 47.8837 187.956 48.0914C187.975 48.1155 187.988 48.1439 187.993 48.1741C187.999 48.2043 187.997 48.2354 187.988 48.2646C188.202 48.4179 188.41 48.5783 188.618 48.7387C188.224 48.2018 187.824 47.6649 187.419 47.1277L187.436 47.1459ZM181.93 44.1035C180.066 43.2399 178.166 42.4552 176.222 41.7649C178.612 43.0644 181.056 44.1837 183.442 45.4644C182.918 44.9932 182.41 44.5443 181.913 44.0854L181.93 44.1035ZM182.269 43.8427C183.406 44.374 184.529 44.94 185.637 45.5405C185.227 44.9457 184.823 44.348 184.43 43.7403C182.631 42.5212 180.743 41.4404 178.782 40.5072C179.925 41.6046 181.084 42.7202 182.252 43.8245L182.269 43.8427ZM183.951 42.9796L183.831 42.7905C179.968 38.5631 175.293 34.8817 170.013 34.072C169.981 34.1874 169.994 34.329 169.989 34.4608C172.282 34.7867 174.051 35.9925 175.808 37.6528C176.508 38.3198 177.205 38.995 177.903 39.6702C179.995 40.6063 182.011 41.7064 183.93 42.9603L183.951 42.9796ZM183.216 37.2534C181.492 35.0331 179.403 32.4842 176.756 31.4103C176.033 31.1215 175.269 30.9528 174.492 30.9108C176.697 31.4534 178.61 32.8218 179.838 34.7349C180.086 35.1155 180.325 35.4979 180.564 35.8803C181.304 36.4159 182.017 36.9891 182.699 37.5976C184.95 39.6275 186.136 42.2838 186.926 45.1008C187.289 45.3889 187.651 45.6812 188.01 45.9817C186.813 42.8591 185.194 39.9162 183.199 37.2352L183.216 37.2534ZM170.054 35.6838C170.168 36.3204 170.406 36.928 170.756 37.4713C170.746 37.4399 170.746 37.4065 170.753 37.3746C170.761 37.3427 170.777 37.3135 170.8 37.29C170.823 37.2664 170.852 37.2495 170.883 37.2408C170.915 37.2321 170.948 37.232 170.98 37.2406C172.999 37.7714 174.978 38.4438 176.903 39.2527C174.906 37.2317 172.842 35.2899 169.972 34.8518C169.979 35.1241 170.001 35.3959 170.037 35.6657L170.054 35.6838Z" fill="#5C0609" fill-opacity="0.6"/>
<path d="M198.93 57.9437C200.02 54.5058 200.841 50.477 202.772 47.3765C204.539 44.5634 209.966 39.756 213.531 42.3844C217.413 45.2747 215.681 52.3692 212.511 55.0207C208.293 58.5442 202.615 59.9699 198.544 63.8587C198.544 63.8587 198.507 63.8795 198.49 63.8925C197.885 65.9458 197.289 68.0283 196.75 70.1135C196.52 70.938 194.894 69.0964 195.116 68.2696C196.135 64.3095 197.684 61.8623 198.93 57.9437ZM199.835 60.908C200.262 60.435 200.685 59.9442 201.102 59.4356C201.261 58.8666 201.42 58.2977 201.579 57.7288C201.129 58.1246 200.712 58.5565 200.332 59.0201C200.143 59.6401 199.978 60.2694 199.835 60.908ZM200.811 60.3634L200.845 60.3373L200.852 60.3125C200.852 60.3125 200.824 60.3492 200.811 60.3634ZM200.985 57.1758C200.858 57.487 200.747 57.8029 200.637 58.1187C200.995 57.7448 201.378 57.3944 201.781 57.0697C201.937 56.5131 202.093 55.9566 202.28 55.431C201.806 55.98 201.373 56.5631 200.985 57.1758ZM202.556 54.5703C202.721 54.0742 202.892 53.5753 203.068 53.0868C202.575 53.8691 202.125 54.6782 201.721 55.5104C201.99 55.1826 202.268 54.8692 202.556 54.5703ZM202.29 56.6785C202.909 56.2257 203.556 55.8128 204.227 55.4422C205.294 54.038 206.367 52.6403 207.496 51.298C205.795 52.2193 204.24 53.3908 202.885 54.7734C202.678 55.4002 202.478 56.0376 202.29 56.6785ZM202.119 57.2886C201.988 57.7586 201.856 58.2286 201.725 58.6985C202.395 57.8859 203.023 57.0524 203.66 56.2171C203.115 56.5382 202.591 56.8934 202.09 57.2805L202.119 57.2886ZM205.839 45.7316C203.418 48.0462 202.544 51.1711 201.527 54.2558C201.215 55.1955 200.912 56.1374 200.608 57.0794C200.612 57.0584 200.618 57.0377 200.626 57.0176C201.404 55.0544 202.431 53.1993 203.681 51.4979C204.91 48.5612 206.543 45.8442 209.022 43.6215C207.835 44.1156 206.752 44.8309 205.831 45.7293L205.839 45.7316ZM209.747 43.393C209.755 43.4205 209.756 43.4499 209.748 43.4777C209.74 43.5055 209.725 43.5305 209.703 43.5496C207.564 45.4035 205.849 47.6991 204.678 50.2787C206.927 47.5896 209.715 45.404 212.86 43.8636C212.413 43.547 211.898 43.3395 211.356 43.2573C210.814 43.1753 210.26 43.2209 209.739 43.3907L209.747 43.393ZM213.667 44.7204C213.516 44.5075 213.344 44.3104 213.153 44.1322C209.536 45.8765 206.399 48.4821 204.018 51.7209C203.71 52.4572 203.428 53.2097 203.162 53.9709C204.657 52.5904 206.341 51.4313 208.163 50.5289C209.839 48.5597 211.777 46.8312 213.922 45.392C213.956 45.3717 213.996 45.3653 214.034 45.3742C213.93 45.1438 213.805 44.924 213.659 44.7181L213.667 44.7204ZM214.149 45.6598C214.142 45.6845 214.136 45.7051 214.105 45.723C212.242 46.9593 210.54 48.4249 209.041 50.0854C210.797 49.2833 212.613 48.62 214.472 48.1017C214.541 47.2722 214.427 46.438 214.141 45.6575L214.149 45.6598ZM214.421 48.5229C212.342 49.1066 210.321 49.8805 208.384 50.835C207.206 52.177 206.101 53.5926 204.996 55.0217C207.58 53.7085 210.458 52.7708 212.937 51.7528C212.968 51.7399 213.003 51.735 213.036 51.7386C213.07 51.7422 213.103 51.7542 213.131 51.7735C213.159 51.7928 213.182 51.8188 213.197 51.8492C213.212 51.8795 213.22 51.9133 213.219 51.9474C213.832 50.8918 214.237 49.7285 214.413 48.5206L214.421 48.5229ZM207.155 56.5766C208.496 55.8227 210.058 55.1661 211.296 54.2588C212.059 53.6579 212.696 52.9113 213.169 52.0624L213.161 52.0912C210.472 53.197 207.251 54.2032 204.499 55.7362C203.508 57.0458 202.513 58.3543 201.472 59.619L201.356 60.0313C203.21 58.7626 205.207 57.6589 207.163 56.5789L207.155 56.5766ZM199.326 61.4727C199.413 61.0524 199.508 60.6344 199.615 60.2198C199.489 60.6692 199.333 61.1147 199.195 61.5606L199.326 61.4727Z" fill="#5C0609" fill-opacity="0.6"/>
<path d="M193.84 42.2869C193.392 36.961 194.799 31.3271 196.862 26.4544C198.159 23.4033 200.649 18.1787 204.444 17.5598C209.588 16.7272 210.328 23.2906 208.666 26.6039C207.079 29.7563 204.071 32.0798 201.613 34.5128C199.817 36.2205 198.187 38.0954 196.744 40.1122C196.703 40.2606 196.69 40.4171 196.67 40.5671C196.65 40.7172 196.489 40.7252 196.386 40.6477C195.311 42.3206 195.159 46.7943 194.66 48.8328C194.458 49.6654 192.483 46.646 192.684 45.8176C192.97 44.6521 193.372 43.518 193.883 42.4325C193.863 42.3858 193.849 42.337 193.84 42.2869ZM205.987 19.4584C201.847 24.5166 198.908 30.4513 197.392 36.8129C199.094 33.8716 201.171 31.1651 203.571 28.7619C205.03 26.0008 206.212 23.1018 207.1 20.1074C206.783 19.8278 206.413 19.6154 206.011 19.4829L205.987 19.4584ZM196.626 37.9988L196.78 37.7974C196.851 37.5418 196.894 37.2781 196.956 37.0244C196.851 37.3684 196.742 37.6935 196.634 38.0188L196.626 37.9988ZM205.591 19.3521C205.08 19.2591 204.555 19.2743 204.05 19.3965C203.038 21.5762 202.071 23.7699 201.149 25.9776C202.433 23.6471 203.922 21.4363 205.599 19.3721L205.591 19.3521ZM198.363 35.9419C198.831 35.4299 199.312 34.9212 199.805 34.4161C199.948 34.2694 200.098 34.1291 200.246 33.9794C200.98 32.9401 201.74 31.9035 202.406 30.8052C202.554 30.562 202.693 30.3166 202.836 30.0764C201.164 31.8913 199.669 33.8621 198.37 35.9619L198.363 35.9419ZM195.228 39.9548C195.206 39.9344 195.19 39.9083 195.183 39.8795C195.175 39.8506 195.176 39.8201 195.185 39.7916C197.069 33.722 198.954 27.6527 200.84 21.5838C199.507 23.1801 198.523 25.381 197.775 27.4387C197.115 31.2091 196.241 34.939 195.156 38.6101C195.122 39.1294 195.102 39.644 195.095 40.162C195.143 40.1311 195.184 40.0627 195.231 39.9912L195.228 39.9548ZM195.39 36.444C195.963 34.3286 196.47 32.1958 196.909 30.0456C196.839 30.293 196.774 30.528 196.71 30.7547C196.129 32.6335 195.687 34.5529 195.388 36.4969L195.39 36.444ZM201.443 20.9033L195.796 39.0958L195.921 38.9175C198.095 32.3024 200.649 25.8184 203.569 19.4978C203.259 19.6078 202.96 19.7475 202.677 19.9149C202.224 20.2108 201.81 20.5604 201.441 20.9563L201.443 20.9033ZM208.314 23.0117C208.357 22.0456 208.036 21.099 207.415 20.36C206.641 22.9409 205.651 25.452 204.456 27.8668C205.542 26.837 206.714 25.8314 207.96 24.8464C208.169 24.2743 208.288 23.6731 208.312 23.0646L208.314 23.0117ZM205.38 28.8587C206.305 27.8746 207.082 26.7608 207.687 25.5524C206.364 26.6104 205.099 27.7406 203.899 28.938C203.751 29.2123 203.604 29.4866 203.452 29.7598C202.894 30.7415 202.277 31.6802 201.638 32.5996C202.915 31.441 204.207 30.2288 205.378 28.9116L205.38 28.8587Z" fill="#5C0609" fill-opacity="0.6"/>
<path d="M187.347 18.837C186.187 14.3298 186.205 -3.56557 195.368 0.633038C198.906 2.2492 197.798 6.3398 196.206 8.93956C193.37 13.5784 187.278 18.0843 187.951 24.189C188.046 25.0379 186.725 25.0239 186.622 24.1862C186.475 22.4549 186.773 20.7141 187.487 19.1294C187.417 19.0451 187.369 18.9446 187.347 18.837ZM190.396 3.40288C189.347 7.15033 188.453 10.905 188.589 14.7926C188.849 14.3254 189.134 13.8725 189.443 13.4356C189.698 12.7115 189.938 11.9827 190.185 11.2563C190.185 11.2563 190.166 11.2152 190.174 11.1864C190.991 8.47143 191.255 5.61991 190.949 2.80209C190.753 2.99616 190.568 3.19778 190.396 3.40288ZM188.804 15.1816C188.743 15.3025 188.687 15.4245 188.631 15.5466L188.634 15.6454L188.804 15.1816ZM188.239 16.7261C188.291 16.5405 188.37 16.3672 188.438 16.1863C188.41 16.1828 188.382 16.1751 188.356 16.1633C188.319 16.2952 188.255 16.415 188.204 16.5652L188.239 16.7261ZM188.091 15.7957C188.125 15.6762 188.198 15.5723 188.251 15.4626C187.997 11.6134 188.788 7.93166 189.777 4.23455C189.638 4.44805 189.511 4.66926 189.397 4.89715C187.818 8.18057 187.566 12.1417 188.09 15.7999L188.091 15.7957ZM191.291 2.46656C191.514 4.30118 191.5 6.15733 191.25 7.98903C191.943 5.79588 192.594 3.59538 193.198 1.37282C192.483 1.5846 191.828 1.96373 191.288 2.47894L191.291 2.46656ZM193.606 1.30909C192.63 4.93909 191.522 8.52287 190.306 12.0768C190.33 11.9902 190.386 11.917 190.431 11.8361C192.132 8.71596 194.68 6.25009 195.925 2.87354C195.859 2.71162 195.778 2.55641 195.683 2.41003C195.467 2.05668 195.159 1.76882 194.793 1.5771C194.427 1.38538 194.015 1.29703 193.602 1.32147L193.606 1.30909ZM196.113 3.43734C195.13 5.82926 193.545 7.73761 192.098 9.87084C191.767 10.3562 191.469 10.8507 191.177 11.3558C192.57 9.87846 194.151 8.53805 195.615 7.20074C196.081 6.07313 196.397 4.64135 196.11 3.44972L196.113 3.43734ZM192.695 11.318C193.561 10.3487 194.357 9.31914 195.077 8.23704L195.129 8.14501C193.423 9.57985 191.833 11.1476 190.374 12.8336C189.764 14.0735 189.228 15.3486 188.769 16.6521C189.94 14.7814 191.252 13.0024 192.691 11.3304L192.695 11.318Z" fill="#5C0609" fill-opacity="0.6"/>
<path d="M165.01 16.8216C166.671 14.2237 170.43 14.0036 173.077 14.8282C178.555 16.5291 181.465 22.2281 184.792 26.4348C186.058 27.1484 187.268 27.9564 188.412 28.8517C189.074 29.3702 188.391 30.5127 187.729 29.9942C186.593 29.1036 185.39 28.302 184.13 27.5965C184.092 27.578 184.055 27.5558 184.02 27.5302C181.826 26.322 179.495 25.382 177.077 24.7303C174.116 23.9024 170.915 23.6204 168.105 22.3324C165.821 21.3068 163.299 19.4991 165.01 16.8216ZM167.245 20.6694C170.73 21.1107 173.942 22.5778 177.346 23.4011C177.371 23.408 177.383 23.4115 177.404 23.4172L177.425 23.423C177.7 23.5 177.971 23.5759 178.247 23.6529C174.461 21.705 170.599 20.0427 166.308 19.7094C166.561 20.082 166.879 20.407 167.245 20.6694ZM180.388 24.3984C180.966 24.6135 181.53 24.8469 182.095 25.0937C181.925 24.9884 181.758 24.8883 181.593 24.78C181.566 24.7843 181.537 24.7826 181.51 24.7751C181.484 24.7675 181.459 24.7543 181.437 24.7363L181.146 24.4771C179.284 23.2096 177.583 21.7471 175.657 20.5816C172.703 18.7995 169.253 18.0216 165.819 18.3638C165.82 18.7059 165.902 19.0429 166.059 19.3464C171.274 19.6892 175.862 21.9549 180.408 24.4042L180.388 24.3984ZM180.063 22.2805C176.169 19.9558 173.127 16.9626 168.735 15.9297C168.399 16.022 168.07 16.1381 167.751 16.2769C173.097 17.2608 177.312 20.6088 181.375 24.1676L181.58 24.3051C181.087 23.625 180.594 22.9491 180.083 22.2862L180.063 22.2805ZM167.177 16.5521C166.585 16.8444 166.126 17.3519 165.894 17.9712C168.726 17.6969 171.58 18.1643 174.177 19.3276C174.862 19.6535 175.526 20.0232 176.164 20.4344C173.466 18.5554 170.587 17.0744 167.198 16.5579L167.177 16.5521ZM170.147 15.698L169.961 15.7127C173.461 16.927 176.2 19.3689 179.391 21.417C178.514 20.3155 177.537 19.2982 176.473 18.3783C174.723 16.8667 172.567 15.6369 170.168 15.7037L170.147 15.698ZM173.783 22.7469C171.916 22.08 170.003 21.5452 168.06 21.1463C169.66 21.9716 171.83 22.4095 173.804 22.7527L173.783 22.7469Z" fill="#5C0609" fill-opacity="0.6"/>
</svg>
